%TF.GenerationSoftware,KiCad,Pcbnew,7.0.1*%
%TF.CreationDate,2023-04-24T15:46:41+03:00*%
%TF.ProjectId,BSPD,42535044-2e6b-4696-9361-645f70636258,rev?*%
%TF.SameCoordinates,Original*%
%TF.FileFunction,Legend,Top*%
%TF.FilePolarity,Positive*%
%FSLAX46Y46*%
G04 Gerber Fmt 4.6, Leading zero omitted, Abs format (unit mm)*
G04 Created by KiCad (PCBNEW 7.0.1) date 2023-04-24 15:46:41*
%MOMM*%
%LPD*%
G01*
G04 APERTURE LIST*
%ADD10C,0.150000*%
%ADD11C,0.120000*%
G04 APERTURE END LIST*
D10*
%TO.C,RV2*%
X40032619Y-57735238D02*
X39556428Y-58068571D01*
X40032619Y-58306666D02*
X39032619Y-58306666D01*
X39032619Y-58306666D02*
X39032619Y-57925714D01*
X39032619Y-57925714D02*
X39080238Y-57830476D01*
X39080238Y-57830476D02*
X39127857Y-57782857D01*
X39127857Y-57782857D02*
X39223095Y-57735238D01*
X39223095Y-57735238D02*
X39365952Y-57735238D01*
X39365952Y-57735238D02*
X39461190Y-57782857D01*
X39461190Y-57782857D02*
X39508809Y-57830476D01*
X39508809Y-57830476D02*
X39556428Y-57925714D01*
X39556428Y-57925714D02*
X39556428Y-58306666D01*
X39032619Y-57449523D02*
X40032619Y-57116190D01*
X40032619Y-57116190D02*
X39032619Y-56782857D01*
X39127857Y-56497142D02*
X39080238Y-56449523D01*
X39080238Y-56449523D02*
X39032619Y-56354285D01*
X39032619Y-56354285D02*
X39032619Y-56116190D01*
X39032619Y-56116190D02*
X39080238Y-56020952D01*
X39080238Y-56020952D02*
X39127857Y-55973333D01*
X39127857Y-55973333D02*
X39223095Y-55925714D01*
X39223095Y-55925714D02*
X39318333Y-55925714D01*
X39318333Y-55925714D02*
X39461190Y-55973333D01*
X39461190Y-55973333D02*
X40032619Y-56544761D01*
X40032619Y-56544761D02*
X40032619Y-55925714D01*
%TO.C,RV1*%
X40032619Y-69175238D02*
X39556428Y-69508571D01*
X40032619Y-69746666D02*
X39032619Y-69746666D01*
X39032619Y-69746666D02*
X39032619Y-69365714D01*
X39032619Y-69365714D02*
X39080238Y-69270476D01*
X39080238Y-69270476D02*
X39127857Y-69222857D01*
X39127857Y-69222857D02*
X39223095Y-69175238D01*
X39223095Y-69175238D02*
X39365952Y-69175238D01*
X39365952Y-69175238D02*
X39461190Y-69222857D01*
X39461190Y-69222857D02*
X39508809Y-69270476D01*
X39508809Y-69270476D02*
X39556428Y-69365714D01*
X39556428Y-69365714D02*
X39556428Y-69746666D01*
X39032619Y-68889523D02*
X40032619Y-68556190D01*
X40032619Y-68556190D02*
X39032619Y-68222857D01*
X40032619Y-67365714D02*
X40032619Y-67937142D01*
X40032619Y-67651428D02*
X39032619Y-67651428D01*
X39032619Y-67651428D02*
X39175476Y-67746666D01*
X39175476Y-67746666D02*
X39270714Y-67841904D01*
X39270714Y-67841904D02*
X39318333Y-67937142D01*
%TO.C,R14*%
X69182142Y-45562619D02*
X68848809Y-45086428D01*
X68610714Y-45562619D02*
X68610714Y-44562619D01*
X68610714Y-44562619D02*
X68991666Y-44562619D01*
X68991666Y-44562619D02*
X69086904Y-44610238D01*
X69086904Y-44610238D02*
X69134523Y-44657857D01*
X69134523Y-44657857D02*
X69182142Y-44753095D01*
X69182142Y-44753095D02*
X69182142Y-44895952D01*
X69182142Y-44895952D02*
X69134523Y-44991190D01*
X69134523Y-44991190D02*
X69086904Y-45038809D01*
X69086904Y-45038809D02*
X68991666Y-45086428D01*
X68991666Y-45086428D02*
X68610714Y-45086428D01*
X70134523Y-45562619D02*
X69563095Y-45562619D01*
X69848809Y-45562619D02*
X69848809Y-44562619D01*
X69848809Y-44562619D02*
X69753571Y-44705476D01*
X69753571Y-44705476D02*
X69658333Y-44800714D01*
X69658333Y-44800714D02*
X69563095Y-44848333D01*
X70991666Y-44895952D02*
X70991666Y-45562619D01*
X70753571Y-44515000D02*
X70515476Y-45229285D01*
X70515476Y-45229285D02*
X71134523Y-45229285D01*
%TO.C,R12*%
X58727142Y-60802619D02*
X58393809Y-60326428D01*
X58155714Y-60802619D02*
X58155714Y-59802619D01*
X58155714Y-59802619D02*
X58536666Y-59802619D01*
X58536666Y-59802619D02*
X58631904Y-59850238D01*
X58631904Y-59850238D02*
X58679523Y-59897857D01*
X58679523Y-59897857D02*
X58727142Y-59993095D01*
X58727142Y-59993095D02*
X58727142Y-60135952D01*
X58727142Y-60135952D02*
X58679523Y-60231190D01*
X58679523Y-60231190D02*
X58631904Y-60278809D01*
X58631904Y-60278809D02*
X58536666Y-60326428D01*
X58536666Y-60326428D02*
X58155714Y-60326428D01*
X59679523Y-60802619D02*
X59108095Y-60802619D01*
X59393809Y-60802619D02*
X59393809Y-59802619D01*
X59393809Y-59802619D02*
X59298571Y-59945476D01*
X59298571Y-59945476D02*
X59203333Y-60040714D01*
X59203333Y-60040714D02*
X59108095Y-60088333D01*
X60060476Y-59897857D02*
X60108095Y-59850238D01*
X60108095Y-59850238D02*
X60203333Y-59802619D01*
X60203333Y-59802619D02*
X60441428Y-59802619D01*
X60441428Y-59802619D02*
X60536666Y-59850238D01*
X60536666Y-59850238D02*
X60584285Y-59897857D01*
X60584285Y-59897857D02*
X60631904Y-59993095D01*
X60631904Y-59993095D02*
X60631904Y-60088333D01*
X60631904Y-60088333D02*
X60584285Y-60231190D01*
X60584285Y-60231190D02*
X60012857Y-60802619D01*
X60012857Y-60802619D02*
X60631904Y-60802619D01*
%TO.C,R11*%
X64447142Y-60802619D02*
X64113809Y-60326428D01*
X63875714Y-60802619D02*
X63875714Y-59802619D01*
X63875714Y-59802619D02*
X64256666Y-59802619D01*
X64256666Y-59802619D02*
X64351904Y-59850238D01*
X64351904Y-59850238D02*
X64399523Y-59897857D01*
X64399523Y-59897857D02*
X64447142Y-59993095D01*
X64447142Y-59993095D02*
X64447142Y-60135952D01*
X64447142Y-60135952D02*
X64399523Y-60231190D01*
X64399523Y-60231190D02*
X64351904Y-60278809D01*
X64351904Y-60278809D02*
X64256666Y-60326428D01*
X64256666Y-60326428D02*
X63875714Y-60326428D01*
X65399523Y-60802619D02*
X64828095Y-60802619D01*
X65113809Y-60802619D02*
X65113809Y-59802619D01*
X65113809Y-59802619D02*
X65018571Y-59945476D01*
X65018571Y-59945476D02*
X64923333Y-60040714D01*
X64923333Y-60040714D02*
X64828095Y-60088333D01*
X66351904Y-60802619D02*
X65780476Y-60802619D01*
X66066190Y-60802619D02*
X66066190Y-59802619D01*
X66066190Y-59802619D02*
X65970952Y-59945476D01*
X65970952Y-59945476D02*
X65875714Y-60040714D01*
X65875714Y-60040714D02*
X65780476Y-60088333D01*
%TO.C,R10*%
X38407142Y-30322619D02*
X38073809Y-29846428D01*
X37835714Y-30322619D02*
X37835714Y-29322619D01*
X37835714Y-29322619D02*
X38216666Y-29322619D01*
X38216666Y-29322619D02*
X38311904Y-29370238D01*
X38311904Y-29370238D02*
X38359523Y-29417857D01*
X38359523Y-29417857D02*
X38407142Y-29513095D01*
X38407142Y-29513095D02*
X38407142Y-29655952D01*
X38407142Y-29655952D02*
X38359523Y-29751190D01*
X38359523Y-29751190D02*
X38311904Y-29798809D01*
X38311904Y-29798809D02*
X38216666Y-29846428D01*
X38216666Y-29846428D02*
X37835714Y-29846428D01*
X39359523Y-30322619D02*
X38788095Y-30322619D01*
X39073809Y-30322619D02*
X39073809Y-29322619D01*
X39073809Y-29322619D02*
X38978571Y-29465476D01*
X38978571Y-29465476D02*
X38883333Y-29560714D01*
X38883333Y-29560714D02*
X38788095Y-29608333D01*
X39978571Y-29322619D02*
X40073809Y-29322619D01*
X40073809Y-29322619D02*
X40169047Y-29370238D01*
X40169047Y-29370238D02*
X40216666Y-29417857D01*
X40216666Y-29417857D02*
X40264285Y-29513095D01*
X40264285Y-29513095D02*
X40311904Y-29703571D01*
X40311904Y-29703571D02*
X40311904Y-29941666D01*
X40311904Y-29941666D02*
X40264285Y-30132142D01*
X40264285Y-30132142D02*
X40216666Y-30227380D01*
X40216666Y-30227380D02*
X40169047Y-30275000D01*
X40169047Y-30275000D02*
X40073809Y-30322619D01*
X40073809Y-30322619D02*
X39978571Y-30322619D01*
X39978571Y-30322619D02*
X39883333Y-30275000D01*
X39883333Y-30275000D02*
X39835714Y-30227380D01*
X39835714Y-30227380D02*
X39788095Y-30132142D01*
X39788095Y-30132142D02*
X39740476Y-29941666D01*
X39740476Y-29941666D02*
X39740476Y-29703571D01*
X39740476Y-29703571D02*
X39788095Y-29513095D01*
X39788095Y-29513095D02*
X39835714Y-29417857D01*
X39835714Y-29417857D02*
X39883333Y-29370238D01*
X39883333Y-29370238D02*
X39978571Y-29322619D01*
%TO.C,R9*%
X56962619Y-42396666D02*
X56486428Y-42729999D01*
X56962619Y-42968094D02*
X55962619Y-42968094D01*
X55962619Y-42968094D02*
X55962619Y-42587142D01*
X55962619Y-42587142D02*
X56010238Y-42491904D01*
X56010238Y-42491904D02*
X56057857Y-42444285D01*
X56057857Y-42444285D02*
X56153095Y-42396666D01*
X56153095Y-42396666D02*
X56295952Y-42396666D01*
X56295952Y-42396666D02*
X56391190Y-42444285D01*
X56391190Y-42444285D02*
X56438809Y-42491904D01*
X56438809Y-42491904D02*
X56486428Y-42587142D01*
X56486428Y-42587142D02*
X56486428Y-42968094D01*
X56962619Y-41920475D02*
X56962619Y-41729999D01*
X56962619Y-41729999D02*
X56915000Y-41634761D01*
X56915000Y-41634761D02*
X56867380Y-41587142D01*
X56867380Y-41587142D02*
X56724523Y-41491904D01*
X56724523Y-41491904D02*
X56534047Y-41444285D01*
X56534047Y-41444285D02*
X56153095Y-41444285D01*
X56153095Y-41444285D02*
X56057857Y-41491904D01*
X56057857Y-41491904D02*
X56010238Y-41539523D01*
X56010238Y-41539523D02*
X55962619Y-41634761D01*
X55962619Y-41634761D02*
X55962619Y-41825237D01*
X55962619Y-41825237D02*
X56010238Y-41920475D01*
X56010238Y-41920475D02*
X56057857Y-41968094D01*
X56057857Y-41968094D02*
X56153095Y-42015713D01*
X56153095Y-42015713D02*
X56391190Y-42015713D01*
X56391190Y-42015713D02*
X56486428Y-41968094D01*
X56486428Y-41968094D02*
X56534047Y-41920475D01*
X56534047Y-41920475D02*
X56581666Y-41825237D01*
X56581666Y-41825237D02*
X56581666Y-41634761D01*
X56581666Y-41634761D02*
X56534047Y-41539523D01*
X56534047Y-41539523D02*
X56486428Y-41491904D01*
X56486428Y-41491904D02*
X56391190Y-41444285D01*
%TO.C,R8*%
X61743333Y-55722619D02*
X61410000Y-55246428D01*
X61171905Y-55722619D02*
X61171905Y-54722619D01*
X61171905Y-54722619D02*
X61552857Y-54722619D01*
X61552857Y-54722619D02*
X61648095Y-54770238D01*
X61648095Y-54770238D02*
X61695714Y-54817857D01*
X61695714Y-54817857D02*
X61743333Y-54913095D01*
X61743333Y-54913095D02*
X61743333Y-55055952D01*
X61743333Y-55055952D02*
X61695714Y-55151190D01*
X61695714Y-55151190D02*
X61648095Y-55198809D01*
X61648095Y-55198809D02*
X61552857Y-55246428D01*
X61552857Y-55246428D02*
X61171905Y-55246428D01*
X62314762Y-55151190D02*
X62219524Y-55103571D01*
X62219524Y-55103571D02*
X62171905Y-55055952D01*
X62171905Y-55055952D02*
X62124286Y-54960714D01*
X62124286Y-54960714D02*
X62124286Y-54913095D01*
X62124286Y-54913095D02*
X62171905Y-54817857D01*
X62171905Y-54817857D02*
X62219524Y-54770238D01*
X62219524Y-54770238D02*
X62314762Y-54722619D01*
X62314762Y-54722619D02*
X62505238Y-54722619D01*
X62505238Y-54722619D02*
X62600476Y-54770238D01*
X62600476Y-54770238D02*
X62648095Y-54817857D01*
X62648095Y-54817857D02*
X62695714Y-54913095D01*
X62695714Y-54913095D02*
X62695714Y-54960714D01*
X62695714Y-54960714D02*
X62648095Y-55055952D01*
X62648095Y-55055952D02*
X62600476Y-55103571D01*
X62600476Y-55103571D02*
X62505238Y-55151190D01*
X62505238Y-55151190D02*
X62314762Y-55151190D01*
X62314762Y-55151190D02*
X62219524Y-55198809D01*
X62219524Y-55198809D02*
X62171905Y-55246428D01*
X62171905Y-55246428D02*
X62124286Y-55341666D01*
X62124286Y-55341666D02*
X62124286Y-55532142D01*
X62124286Y-55532142D02*
X62171905Y-55627380D01*
X62171905Y-55627380D02*
X62219524Y-55675000D01*
X62219524Y-55675000D02*
X62314762Y-55722619D01*
X62314762Y-55722619D02*
X62505238Y-55722619D01*
X62505238Y-55722619D02*
X62600476Y-55675000D01*
X62600476Y-55675000D02*
X62648095Y-55627380D01*
X62648095Y-55627380D02*
X62695714Y-55532142D01*
X62695714Y-55532142D02*
X62695714Y-55341666D01*
X62695714Y-55341666D02*
X62648095Y-55246428D01*
X62648095Y-55246428D02*
X62600476Y-55198809D01*
X62600476Y-55198809D02*
X62505238Y-55151190D01*
%TO.C,R7*%
X64923333Y-58262619D02*
X64590000Y-57786428D01*
X64351905Y-58262619D02*
X64351905Y-57262619D01*
X64351905Y-57262619D02*
X64732857Y-57262619D01*
X64732857Y-57262619D02*
X64828095Y-57310238D01*
X64828095Y-57310238D02*
X64875714Y-57357857D01*
X64875714Y-57357857D02*
X64923333Y-57453095D01*
X64923333Y-57453095D02*
X64923333Y-57595952D01*
X64923333Y-57595952D02*
X64875714Y-57691190D01*
X64875714Y-57691190D02*
X64828095Y-57738809D01*
X64828095Y-57738809D02*
X64732857Y-57786428D01*
X64732857Y-57786428D02*
X64351905Y-57786428D01*
X65256667Y-57262619D02*
X65923333Y-57262619D01*
X65923333Y-57262619D02*
X65494762Y-58262619D01*
%TO.C,R6*%
X29363333Y-25242619D02*
X29030000Y-24766428D01*
X28791905Y-25242619D02*
X28791905Y-24242619D01*
X28791905Y-24242619D02*
X29172857Y-24242619D01*
X29172857Y-24242619D02*
X29268095Y-24290238D01*
X29268095Y-24290238D02*
X29315714Y-24337857D01*
X29315714Y-24337857D02*
X29363333Y-24433095D01*
X29363333Y-24433095D02*
X29363333Y-24575952D01*
X29363333Y-24575952D02*
X29315714Y-24671190D01*
X29315714Y-24671190D02*
X29268095Y-24718809D01*
X29268095Y-24718809D02*
X29172857Y-24766428D01*
X29172857Y-24766428D02*
X28791905Y-24766428D01*
X30220476Y-24242619D02*
X30030000Y-24242619D01*
X30030000Y-24242619D02*
X29934762Y-24290238D01*
X29934762Y-24290238D02*
X29887143Y-24337857D01*
X29887143Y-24337857D02*
X29791905Y-24480714D01*
X29791905Y-24480714D02*
X29744286Y-24671190D01*
X29744286Y-24671190D02*
X29744286Y-25052142D01*
X29744286Y-25052142D02*
X29791905Y-25147380D01*
X29791905Y-25147380D02*
X29839524Y-25195000D01*
X29839524Y-25195000D02*
X29934762Y-25242619D01*
X29934762Y-25242619D02*
X30125238Y-25242619D01*
X30125238Y-25242619D02*
X30220476Y-25195000D01*
X30220476Y-25195000D02*
X30268095Y-25147380D01*
X30268095Y-25147380D02*
X30315714Y-25052142D01*
X30315714Y-25052142D02*
X30315714Y-24814047D01*
X30315714Y-24814047D02*
X30268095Y-24718809D01*
X30268095Y-24718809D02*
X30220476Y-24671190D01*
X30220476Y-24671190D02*
X30125238Y-24623571D01*
X30125238Y-24623571D02*
X29934762Y-24623571D01*
X29934762Y-24623571D02*
X29839524Y-24671190D01*
X29839524Y-24671190D02*
X29791905Y-24718809D01*
X29791905Y-24718809D02*
X29744286Y-24814047D01*
%TO.C,R5*%
X23942619Y-34776666D02*
X23466428Y-35109999D01*
X23942619Y-35348094D02*
X22942619Y-35348094D01*
X22942619Y-35348094D02*
X22942619Y-34967142D01*
X22942619Y-34967142D02*
X22990238Y-34871904D01*
X22990238Y-34871904D02*
X23037857Y-34824285D01*
X23037857Y-34824285D02*
X23133095Y-34776666D01*
X23133095Y-34776666D02*
X23275952Y-34776666D01*
X23275952Y-34776666D02*
X23371190Y-34824285D01*
X23371190Y-34824285D02*
X23418809Y-34871904D01*
X23418809Y-34871904D02*
X23466428Y-34967142D01*
X23466428Y-34967142D02*
X23466428Y-35348094D01*
X22942619Y-33871904D02*
X22942619Y-34348094D01*
X22942619Y-34348094D02*
X23418809Y-34395713D01*
X23418809Y-34395713D02*
X23371190Y-34348094D01*
X23371190Y-34348094D02*
X23323571Y-34252856D01*
X23323571Y-34252856D02*
X23323571Y-34014761D01*
X23323571Y-34014761D02*
X23371190Y-33919523D01*
X23371190Y-33919523D02*
X23418809Y-33871904D01*
X23418809Y-33871904D02*
X23514047Y-33824285D01*
X23514047Y-33824285D02*
X23752142Y-33824285D01*
X23752142Y-33824285D02*
X23847380Y-33871904D01*
X23847380Y-33871904D02*
X23895000Y-33919523D01*
X23895000Y-33919523D02*
X23942619Y-34014761D01*
X23942619Y-34014761D02*
X23942619Y-34252856D01*
X23942619Y-34252856D02*
X23895000Y-34348094D01*
X23895000Y-34348094D02*
X23847380Y-34395713D01*
%TO.C,TP4*%
X51002619Y-59681904D02*
X51002619Y-59110476D01*
X52002619Y-59396190D02*
X51002619Y-59396190D01*
X52002619Y-58777142D02*
X51002619Y-58777142D01*
X51002619Y-58777142D02*
X51002619Y-58396190D01*
X51002619Y-58396190D02*
X51050238Y-58300952D01*
X51050238Y-58300952D02*
X51097857Y-58253333D01*
X51097857Y-58253333D02*
X51193095Y-58205714D01*
X51193095Y-58205714D02*
X51335952Y-58205714D01*
X51335952Y-58205714D02*
X51431190Y-58253333D01*
X51431190Y-58253333D02*
X51478809Y-58300952D01*
X51478809Y-58300952D02*
X51526428Y-58396190D01*
X51526428Y-58396190D02*
X51526428Y-58777142D01*
X51335952Y-57348571D02*
X52002619Y-57348571D01*
X50955000Y-57586666D02*
X51669285Y-57824761D01*
X51669285Y-57824761D02*
X51669285Y-57205714D01*
%TO.C,U1*%
X79248095Y-17452619D02*
X79248095Y-18262142D01*
X79248095Y-18262142D02*
X79295714Y-18357380D01*
X79295714Y-18357380D02*
X79343333Y-18405000D01*
X79343333Y-18405000D02*
X79438571Y-18452619D01*
X79438571Y-18452619D02*
X79629047Y-18452619D01*
X79629047Y-18452619D02*
X79724285Y-18405000D01*
X79724285Y-18405000D02*
X79771904Y-18357380D01*
X79771904Y-18357380D02*
X79819523Y-18262142D01*
X79819523Y-18262142D02*
X79819523Y-17452619D01*
X80819523Y-18452619D02*
X80248095Y-18452619D01*
X80533809Y-18452619D02*
X80533809Y-17452619D01*
X80533809Y-17452619D02*
X80438571Y-17595476D01*
X80438571Y-17595476D02*
X80343333Y-17690714D01*
X80343333Y-17690714D02*
X80248095Y-17738333D01*
%TO.C,C2*%
X50633333Y-47577380D02*
X50585714Y-47625000D01*
X50585714Y-47625000D02*
X50442857Y-47672619D01*
X50442857Y-47672619D02*
X50347619Y-47672619D01*
X50347619Y-47672619D02*
X50204762Y-47625000D01*
X50204762Y-47625000D02*
X50109524Y-47529761D01*
X50109524Y-47529761D02*
X50061905Y-47434523D01*
X50061905Y-47434523D02*
X50014286Y-47244047D01*
X50014286Y-47244047D02*
X50014286Y-47101190D01*
X50014286Y-47101190D02*
X50061905Y-46910714D01*
X50061905Y-46910714D02*
X50109524Y-46815476D01*
X50109524Y-46815476D02*
X50204762Y-46720238D01*
X50204762Y-46720238D02*
X50347619Y-46672619D01*
X50347619Y-46672619D02*
X50442857Y-46672619D01*
X50442857Y-46672619D02*
X50585714Y-46720238D01*
X50585714Y-46720238D02*
X50633333Y-46767857D01*
X51014286Y-46767857D02*
X51061905Y-46720238D01*
X51061905Y-46720238D02*
X51157143Y-46672619D01*
X51157143Y-46672619D02*
X51395238Y-46672619D01*
X51395238Y-46672619D02*
X51490476Y-46720238D01*
X51490476Y-46720238D02*
X51538095Y-46767857D01*
X51538095Y-46767857D02*
X51585714Y-46863095D01*
X51585714Y-46863095D02*
X51585714Y-46958333D01*
X51585714Y-46958333D02*
X51538095Y-47101190D01*
X51538095Y-47101190D02*
X50966667Y-47672619D01*
X50966667Y-47672619D02*
X51585714Y-47672619D01*
%TO.C,U3*%
X33528095Y-30152619D02*
X33528095Y-30962142D01*
X33528095Y-30962142D02*
X33575714Y-31057380D01*
X33575714Y-31057380D02*
X33623333Y-31105000D01*
X33623333Y-31105000D02*
X33718571Y-31152619D01*
X33718571Y-31152619D02*
X33909047Y-31152619D01*
X33909047Y-31152619D02*
X34004285Y-31105000D01*
X34004285Y-31105000D02*
X34051904Y-31057380D01*
X34051904Y-31057380D02*
X34099523Y-30962142D01*
X34099523Y-30962142D02*
X34099523Y-30152619D01*
X34480476Y-30152619D02*
X35099523Y-30152619D01*
X35099523Y-30152619D02*
X34766190Y-30533571D01*
X34766190Y-30533571D02*
X34909047Y-30533571D01*
X34909047Y-30533571D02*
X35004285Y-30581190D01*
X35004285Y-30581190D02*
X35051904Y-30628809D01*
X35051904Y-30628809D02*
X35099523Y-30724047D01*
X35099523Y-30724047D02*
X35099523Y-30962142D01*
X35099523Y-30962142D02*
X35051904Y-31057380D01*
X35051904Y-31057380D02*
X35004285Y-31105000D01*
X35004285Y-31105000D02*
X34909047Y-31152619D01*
X34909047Y-31152619D02*
X34623333Y-31152619D01*
X34623333Y-31152619D02*
X34528095Y-31105000D01*
X34528095Y-31105000D02*
X34480476Y-31057380D01*
%TO.C,U4*%
X48768095Y-19992619D02*
X48768095Y-20802142D01*
X48768095Y-20802142D02*
X48815714Y-20897380D01*
X48815714Y-20897380D02*
X48863333Y-20945000D01*
X48863333Y-20945000D02*
X48958571Y-20992619D01*
X48958571Y-20992619D02*
X49149047Y-20992619D01*
X49149047Y-20992619D02*
X49244285Y-20945000D01*
X49244285Y-20945000D02*
X49291904Y-20897380D01*
X49291904Y-20897380D02*
X49339523Y-20802142D01*
X49339523Y-20802142D02*
X49339523Y-19992619D01*
X50244285Y-20325952D02*
X50244285Y-20992619D01*
X50006190Y-19945000D02*
X49768095Y-20659285D01*
X49768095Y-20659285D02*
X50387142Y-20659285D01*
%TO.C,U2*%
X18288095Y-19992619D02*
X18288095Y-20802142D01*
X18288095Y-20802142D02*
X18335714Y-20897380D01*
X18335714Y-20897380D02*
X18383333Y-20945000D01*
X18383333Y-20945000D02*
X18478571Y-20992619D01*
X18478571Y-20992619D02*
X18669047Y-20992619D01*
X18669047Y-20992619D02*
X18764285Y-20945000D01*
X18764285Y-20945000D02*
X18811904Y-20897380D01*
X18811904Y-20897380D02*
X18859523Y-20802142D01*
X18859523Y-20802142D02*
X18859523Y-19992619D01*
X19288095Y-20087857D02*
X19335714Y-20040238D01*
X19335714Y-20040238D02*
X19430952Y-19992619D01*
X19430952Y-19992619D02*
X19669047Y-19992619D01*
X19669047Y-19992619D02*
X19764285Y-20040238D01*
X19764285Y-20040238D02*
X19811904Y-20087857D01*
X19811904Y-20087857D02*
X19859523Y-20183095D01*
X19859523Y-20183095D02*
X19859523Y-20278333D01*
X19859523Y-20278333D02*
X19811904Y-20421190D01*
X19811904Y-20421190D02*
X19240476Y-20992619D01*
X19240476Y-20992619D02*
X19859523Y-20992619D01*
%TO.C,U6*%
X79248095Y-42852619D02*
X79248095Y-43662142D01*
X79248095Y-43662142D02*
X79295714Y-43757380D01*
X79295714Y-43757380D02*
X79343333Y-43805000D01*
X79343333Y-43805000D02*
X79438571Y-43852619D01*
X79438571Y-43852619D02*
X79629047Y-43852619D01*
X79629047Y-43852619D02*
X79724285Y-43805000D01*
X79724285Y-43805000D02*
X79771904Y-43757380D01*
X79771904Y-43757380D02*
X79819523Y-43662142D01*
X79819523Y-43662142D02*
X79819523Y-42852619D01*
X80724285Y-42852619D02*
X80533809Y-42852619D01*
X80533809Y-42852619D02*
X80438571Y-42900238D01*
X80438571Y-42900238D02*
X80390952Y-42947857D01*
X80390952Y-42947857D02*
X80295714Y-43090714D01*
X80295714Y-43090714D02*
X80248095Y-43281190D01*
X80248095Y-43281190D02*
X80248095Y-43662142D01*
X80248095Y-43662142D02*
X80295714Y-43757380D01*
X80295714Y-43757380D02*
X80343333Y-43805000D01*
X80343333Y-43805000D02*
X80438571Y-43852619D01*
X80438571Y-43852619D02*
X80629047Y-43852619D01*
X80629047Y-43852619D02*
X80724285Y-43805000D01*
X80724285Y-43805000D02*
X80771904Y-43757380D01*
X80771904Y-43757380D02*
X80819523Y-43662142D01*
X80819523Y-43662142D02*
X80819523Y-43424047D01*
X80819523Y-43424047D02*
X80771904Y-43328809D01*
X80771904Y-43328809D02*
X80724285Y-43281190D01*
X80724285Y-43281190D02*
X80629047Y-43233571D01*
X80629047Y-43233571D02*
X80438571Y-43233571D01*
X80438571Y-43233571D02*
X80343333Y-43281190D01*
X80343333Y-43281190D02*
X80295714Y-43328809D01*
X80295714Y-43328809D02*
X80248095Y-43424047D01*
%TO.C,D2*%
X37361905Y-20822619D02*
X37361905Y-19822619D01*
X37361905Y-19822619D02*
X37600000Y-19822619D01*
X37600000Y-19822619D02*
X37742857Y-19870238D01*
X37742857Y-19870238D02*
X37838095Y-19965476D01*
X37838095Y-19965476D02*
X37885714Y-20060714D01*
X37885714Y-20060714D02*
X37933333Y-20251190D01*
X37933333Y-20251190D02*
X37933333Y-20394047D01*
X37933333Y-20394047D02*
X37885714Y-20584523D01*
X37885714Y-20584523D02*
X37838095Y-20679761D01*
X37838095Y-20679761D02*
X37742857Y-20775000D01*
X37742857Y-20775000D02*
X37600000Y-20822619D01*
X37600000Y-20822619D02*
X37361905Y-20822619D01*
X38314286Y-19917857D02*
X38361905Y-19870238D01*
X38361905Y-19870238D02*
X38457143Y-19822619D01*
X38457143Y-19822619D02*
X38695238Y-19822619D01*
X38695238Y-19822619D02*
X38790476Y-19870238D01*
X38790476Y-19870238D02*
X38838095Y-19917857D01*
X38838095Y-19917857D02*
X38885714Y-20013095D01*
X38885714Y-20013095D02*
X38885714Y-20108333D01*
X38885714Y-20108333D02*
X38838095Y-20251190D01*
X38838095Y-20251190D02*
X38266667Y-20822619D01*
X38266667Y-20822619D02*
X38885714Y-20822619D01*
%TO.C,C1*%
X55671421Y-52657380D02*
X55623802Y-52705000D01*
X55623802Y-52705000D02*
X55480945Y-52752619D01*
X55480945Y-52752619D02*
X55385707Y-52752619D01*
X55385707Y-52752619D02*
X55242850Y-52705000D01*
X55242850Y-52705000D02*
X55147612Y-52609761D01*
X55147612Y-52609761D02*
X55099993Y-52514523D01*
X55099993Y-52514523D02*
X55052374Y-52324047D01*
X55052374Y-52324047D02*
X55052374Y-52181190D01*
X55052374Y-52181190D02*
X55099993Y-51990714D01*
X55099993Y-51990714D02*
X55147612Y-51895476D01*
X55147612Y-51895476D02*
X55242850Y-51800238D01*
X55242850Y-51800238D02*
X55385707Y-51752619D01*
X55385707Y-51752619D02*
X55480945Y-51752619D01*
X55480945Y-51752619D02*
X55623802Y-51800238D01*
X55623802Y-51800238D02*
X55671421Y-51847857D01*
X56623802Y-52752619D02*
X56052374Y-52752619D01*
X56338088Y-52752619D02*
X56338088Y-51752619D01*
X56338088Y-51752619D02*
X56242850Y-51895476D01*
X56242850Y-51895476D02*
X56147612Y-51990714D01*
X56147612Y-51990714D02*
X56052374Y-52038333D01*
%TO.C,TP1*%
X15442619Y-46981904D02*
X15442619Y-46410476D01*
X16442619Y-46696190D02*
X15442619Y-46696190D01*
X16442619Y-46077142D02*
X15442619Y-46077142D01*
X15442619Y-46077142D02*
X15442619Y-45696190D01*
X15442619Y-45696190D02*
X15490238Y-45600952D01*
X15490238Y-45600952D02*
X15537857Y-45553333D01*
X15537857Y-45553333D02*
X15633095Y-45505714D01*
X15633095Y-45505714D02*
X15775952Y-45505714D01*
X15775952Y-45505714D02*
X15871190Y-45553333D01*
X15871190Y-45553333D02*
X15918809Y-45600952D01*
X15918809Y-45600952D02*
X15966428Y-45696190D01*
X15966428Y-45696190D02*
X15966428Y-46077142D01*
X16442619Y-44553333D02*
X16442619Y-45124761D01*
X16442619Y-44839047D02*
X15442619Y-44839047D01*
X15442619Y-44839047D02*
X15585476Y-44934285D01*
X15585476Y-44934285D02*
X15680714Y-45029523D01*
X15680714Y-45029523D02*
X15728333Y-45124761D01*
%TO.C,C3*%
X52828333Y-49677380D02*
X52780714Y-49725000D01*
X52780714Y-49725000D02*
X52637857Y-49772619D01*
X52637857Y-49772619D02*
X52542619Y-49772619D01*
X52542619Y-49772619D02*
X52399762Y-49725000D01*
X52399762Y-49725000D02*
X52304524Y-49629761D01*
X52304524Y-49629761D02*
X52256905Y-49534523D01*
X52256905Y-49534523D02*
X52209286Y-49344047D01*
X52209286Y-49344047D02*
X52209286Y-49201190D01*
X52209286Y-49201190D02*
X52256905Y-49010714D01*
X52256905Y-49010714D02*
X52304524Y-48915476D01*
X52304524Y-48915476D02*
X52399762Y-48820238D01*
X52399762Y-48820238D02*
X52542619Y-48772619D01*
X52542619Y-48772619D02*
X52637857Y-48772619D01*
X52637857Y-48772619D02*
X52780714Y-48820238D01*
X52780714Y-48820238D02*
X52828333Y-48867857D01*
X53161667Y-48772619D02*
X53780714Y-48772619D01*
X53780714Y-48772619D02*
X53447381Y-49153571D01*
X53447381Y-49153571D02*
X53590238Y-49153571D01*
X53590238Y-49153571D02*
X53685476Y-49201190D01*
X53685476Y-49201190D02*
X53733095Y-49248809D01*
X53733095Y-49248809D02*
X53780714Y-49344047D01*
X53780714Y-49344047D02*
X53780714Y-49582142D01*
X53780714Y-49582142D02*
X53733095Y-49677380D01*
X53733095Y-49677380D02*
X53685476Y-49725000D01*
X53685476Y-49725000D02*
X53590238Y-49772619D01*
X53590238Y-49772619D02*
X53304524Y-49772619D01*
X53304524Y-49772619D02*
X53209286Y-49725000D01*
X53209286Y-49725000D02*
X53161667Y-49677380D01*
%TO.C,D1*%
X60081905Y-51222619D02*
X60081905Y-50222619D01*
X60081905Y-50222619D02*
X60320000Y-50222619D01*
X60320000Y-50222619D02*
X60462857Y-50270238D01*
X60462857Y-50270238D02*
X60558095Y-50365476D01*
X60558095Y-50365476D02*
X60605714Y-50460714D01*
X60605714Y-50460714D02*
X60653333Y-50651190D01*
X60653333Y-50651190D02*
X60653333Y-50794047D01*
X60653333Y-50794047D02*
X60605714Y-50984523D01*
X60605714Y-50984523D02*
X60558095Y-51079761D01*
X60558095Y-51079761D02*
X60462857Y-51175000D01*
X60462857Y-51175000D02*
X60320000Y-51222619D01*
X60320000Y-51222619D02*
X60081905Y-51222619D01*
X61605714Y-51222619D02*
X61034286Y-51222619D01*
X61320000Y-51222619D02*
X61320000Y-50222619D01*
X61320000Y-50222619D02*
X61224762Y-50365476D01*
X61224762Y-50365476D02*
X61129524Y-50460714D01*
X61129524Y-50460714D02*
X61034286Y-50508333D01*
%TO.C,TP2*%
X66242619Y-54601904D02*
X66242619Y-54030476D01*
X67242619Y-54316190D02*
X66242619Y-54316190D01*
X67242619Y-53697142D02*
X66242619Y-53697142D01*
X66242619Y-53697142D02*
X66242619Y-53316190D01*
X66242619Y-53316190D02*
X66290238Y-53220952D01*
X66290238Y-53220952D02*
X66337857Y-53173333D01*
X66337857Y-53173333D02*
X66433095Y-53125714D01*
X66433095Y-53125714D02*
X66575952Y-53125714D01*
X66575952Y-53125714D02*
X66671190Y-53173333D01*
X66671190Y-53173333D02*
X66718809Y-53220952D01*
X66718809Y-53220952D02*
X66766428Y-53316190D01*
X66766428Y-53316190D02*
X66766428Y-53697142D01*
X66337857Y-52744761D02*
X66290238Y-52697142D01*
X66290238Y-52697142D02*
X66242619Y-52601904D01*
X66242619Y-52601904D02*
X66242619Y-52363809D01*
X66242619Y-52363809D02*
X66290238Y-52268571D01*
X66290238Y-52268571D02*
X66337857Y-52220952D01*
X66337857Y-52220952D02*
X66433095Y-52173333D01*
X66433095Y-52173333D02*
X66528333Y-52173333D01*
X66528333Y-52173333D02*
X66671190Y-52220952D01*
X66671190Y-52220952D02*
X67242619Y-52792380D01*
X67242619Y-52792380D02*
X67242619Y-52173333D01*
%TO.C,TP3*%
X20522619Y-46981904D02*
X20522619Y-46410476D01*
X21522619Y-46696190D02*
X20522619Y-46696190D01*
X21522619Y-46077142D02*
X20522619Y-46077142D01*
X20522619Y-46077142D02*
X20522619Y-45696190D01*
X20522619Y-45696190D02*
X20570238Y-45600952D01*
X20570238Y-45600952D02*
X20617857Y-45553333D01*
X20617857Y-45553333D02*
X20713095Y-45505714D01*
X20713095Y-45505714D02*
X20855952Y-45505714D01*
X20855952Y-45505714D02*
X20951190Y-45553333D01*
X20951190Y-45553333D02*
X20998809Y-45600952D01*
X20998809Y-45600952D02*
X21046428Y-45696190D01*
X21046428Y-45696190D02*
X21046428Y-46077142D01*
X20522619Y-45172380D02*
X20522619Y-44553333D01*
X20522619Y-44553333D02*
X20903571Y-44886666D01*
X20903571Y-44886666D02*
X20903571Y-44743809D01*
X20903571Y-44743809D02*
X20951190Y-44648571D01*
X20951190Y-44648571D02*
X20998809Y-44600952D01*
X20998809Y-44600952D02*
X21094047Y-44553333D01*
X21094047Y-44553333D02*
X21332142Y-44553333D01*
X21332142Y-44553333D02*
X21427380Y-44600952D01*
X21427380Y-44600952D02*
X21475000Y-44648571D01*
X21475000Y-44648571D02*
X21522619Y-44743809D01*
X21522619Y-44743809D02*
X21522619Y-45029523D01*
X21522619Y-45029523D02*
X21475000Y-45124761D01*
X21475000Y-45124761D02*
X21427380Y-45172380D01*
%TO.C,TP5*%
X72382619Y-49521904D02*
X72382619Y-48950476D01*
X73382619Y-49236190D02*
X72382619Y-49236190D01*
X73382619Y-48617142D02*
X72382619Y-48617142D01*
X72382619Y-48617142D02*
X72382619Y-48236190D01*
X72382619Y-48236190D02*
X72430238Y-48140952D01*
X72430238Y-48140952D02*
X72477857Y-48093333D01*
X72477857Y-48093333D02*
X72573095Y-48045714D01*
X72573095Y-48045714D02*
X72715952Y-48045714D01*
X72715952Y-48045714D02*
X72811190Y-48093333D01*
X72811190Y-48093333D02*
X72858809Y-48140952D01*
X72858809Y-48140952D02*
X72906428Y-48236190D01*
X72906428Y-48236190D02*
X72906428Y-48617142D01*
X72382619Y-47140952D02*
X72382619Y-47617142D01*
X72382619Y-47617142D02*
X72858809Y-47664761D01*
X72858809Y-47664761D02*
X72811190Y-47617142D01*
X72811190Y-47617142D02*
X72763571Y-47521904D01*
X72763571Y-47521904D02*
X72763571Y-47283809D01*
X72763571Y-47283809D02*
X72811190Y-47188571D01*
X72811190Y-47188571D02*
X72858809Y-47140952D01*
X72858809Y-47140952D02*
X72954047Y-47093333D01*
X72954047Y-47093333D02*
X73192142Y-47093333D01*
X73192142Y-47093333D02*
X73287380Y-47140952D01*
X73287380Y-47140952D02*
X73335000Y-47188571D01*
X73335000Y-47188571D02*
X73382619Y-47283809D01*
X73382619Y-47283809D02*
X73382619Y-47521904D01*
X73382619Y-47521904D02*
X73335000Y-47617142D01*
X73335000Y-47617142D02*
X73287380Y-47664761D01*
%TO.C,U5*%
X64008095Y-19987619D02*
X64008095Y-20797142D01*
X64008095Y-20797142D02*
X64055714Y-20892380D01*
X64055714Y-20892380D02*
X64103333Y-20940000D01*
X64103333Y-20940000D02*
X64198571Y-20987619D01*
X64198571Y-20987619D02*
X64389047Y-20987619D01*
X64389047Y-20987619D02*
X64484285Y-20940000D01*
X64484285Y-20940000D02*
X64531904Y-20892380D01*
X64531904Y-20892380D02*
X64579523Y-20797142D01*
X64579523Y-20797142D02*
X64579523Y-19987619D01*
X65531904Y-19987619D02*
X65055714Y-19987619D01*
X65055714Y-19987619D02*
X65008095Y-20463809D01*
X65008095Y-20463809D02*
X65055714Y-20416190D01*
X65055714Y-20416190D02*
X65150952Y-20368571D01*
X65150952Y-20368571D02*
X65389047Y-20368571D01*
X65389047Y-20368571D02*
X65484285Y-20416190D01*
X65484285Y-20416190D02*
X65531904Y-20463809D01*
X65531904Y-20463809D02*
X65579523Y-20559047D01*
X65579523Y-20559047D02*
X65579523Y-20797142D01*
X65579523Y-20797142D02*
X65531904Y-20892380D01*
X65531904Y-20892380D02*
X65484285Y-20940000D01*
X65484285Y-20940000D02*
X65389047Y-20987619D01*
X65389047Y-20987619D02*
X65150952Y-20987619D01*
X65150952Y-20987619D02*
X65055714Y-20940000D01*
X65055714Y-20940000D02*
X65008095Y-20892380D01*
D11*
%TO.C,RV2*%
X50740000Y-57261000D02*
X50740000Y-52220000D01*
X44100000Y-52220000D02*
X44648000Y-52220000D01*
X40699000Y-52220000D02*
X44648000Y-52220000D01*
X47340000Y-55903000D02*
X47340000Y-52220000D01*
X40699000Y-57261000D02*
X40699000Y-52220000D01*
X44646000Y-57261000D02*
X46795000Y-57261000D01*
X46793000Y-52220000D02*
X47340000Y-52220000D01*
X46793000Y-52220000D02*
X50740000Y-52220000D01*
X40699000Y-57261000D02*
X41794000Y-57261000D01*
X44100000Y-55903000D02*
X44100000Y-52220000D01*
X49645000Y-57261000D02*
X50740000Y-57261000D01*
X44646000Y-57261000D02*
X46795000Y-57261000D01*
%TO.C,RV1*%
X50740000Y-68701000D02*
X50740000Y-63660000D01*
X44100000Y-63660000D02*
X44648000Y-63660000D01*
X40699000Y-63660000D02*
X44648000Y-63660000D01*
X47340000Y-67343000D02*
X47340000Y-63660000D01*
X40699000Y-68701000D02*
X40699000Y-63660000D01*
X44646000Y-68701000D02*
X46795000Y-68701000D01*
X46793000Y-63660000D02*
X47340000Y-63660000D01*
X46793000Y-63660000D02*
X50740000Y-63660000D01*
X40699000Y-68701000D02*
X41794000Y-68701000D01*
X44100000Y-67343000D02*
X44100000Y-63660000D01*
X49645000Y-68701000D02*
X50740000Y-68701000D01*
X44646000Y-68701000D02*
X46795000Y-68701000D01*
%TO.C,R14*%
X70357867Y-43879999D02*
G75*
G03*
X70454905Y-42430642I417133J699999D01*
G01*
%TO.C,R12*%
X59902867Y-59119999D02*
G75*
G03*
X59999905Y-57670642I417133J699999D01*
G01*
%TO.C,R11*%
X65622867Y-59119999D02*
G75*
G03*
X65719905Y-57670642I417133J699999D01*
G01*
%TO.C,R10*%
X39582867Y-28639999D02*
G75*
G03*
X39679905Y-27190642I417133J699999D01*
G01*
%TO.C,R9*%
X57720001Y-42762867D02*
G75*
G03*
X59169358Y-42859905I699999J-417133D01*
G01*
%TO.C,R8*%
X62442867Y-54039999D02*
G75*
G03*
X62539905Y-52590642I417133J699999D01*
G01*
%TO.C,R7*%
X65622867Y-56579999D02*
G75*
G03*
X65719905Y-55130642I417133J699999D01*
G01*
%TO.C,R6*%
X30062867Y-23559999D02*
G75*
G03*
X30159905Y-22110642I417133J699999D01*
G01*
%TO.C,R5*%
X24700001Y-35142867D02*
G75*
G03*
X26149358Y-35239905I699999J-417133D01*
G01*
%TO.C,TP4*%
X54290000Y-57470000D02*
X52390000Y-57470000D01*
X52390000Y-57470000D02*
X52390000Y-59320000D01*
X54290000Y-59320000D02*
X54290000Y-57470000D01*
X54240000Y-59320000D02*
X54290000Y-59320000D01*
X52390000Y-59320000D02*
X54240000Y-59320000D01*
%TO.C,U1*%
X74870000Y-18930000D02*
X74870000Y-36950000D01*
X74870000Y-36950000D02*
X85150000Y-36950000D01*
X77360000Y-18990000D02*
X77360000Y-36890000D01*
X77360000Y-36890000D02*
X82660000Y-36890000D01*
X79010000Y-18990000D02*
X77360000Y-18990000D01*
X82660000Y-18990000D02*
X81010000Y-18990000D01*
X82660000Y-36890000D02*
X82660000Y-18990000D01*
X85150000Y-18930000D02*
X74870000Y-18930000D01*
X85150000Y-36950000D02*
X85150000Y-18930000D01*
X79010000Y-18990000D02*
G75*
G03*
X81010000Y-18990000I1000000J0D01*
G01*
%TO.C,U3*%
X33290000Y-31690000D02*
G75*
G03*
X35290000Y-31690000I1000000J0D01*
G01*
X36940000Y-49590000D02*
X36940000Y-31690000D01*
X36940000Y-31690000D02*
X35290000Y-31690000D01*
X33290000Y-31690000D02*
X31640000Y-31690000D01*
X31640000Y-49590000D02*
X36940000Y-49590000D01*
X31640000Y-31690000D02*
X31640000Y-49590000D01*
%TO.C,U4*%
X46880000Y-21530000D02*
X46880000Y-39430000D01*
X46880000Y-39430000D02*
X52180000Y-39430000D01*
X48530000Y-21530000D02*
X46880000Y-21530000D01*
X52180000Y-21530000D02*
X50530000Y-21530000D01*
X52180000Y-39430000D02*
X52180000Y-21530000D01*
X48530000Y-21530000D02*
G75*
G03*
X50530000Y-21530000I1000000J0D01*
G01*
%TO.C,U2*%
X16400000Y-21530000D02*
X16400000Y-41970000D01*
X16400000Y-41970000D02*
X21700000Y-41970000D01*
X18050000Y-21530000D02*
X16400000Y-21530000D01*
X21700000Y-21530000D02*
X20050000Y-21530000D01*
X21700000Y-41970000D02*
X21700000Y-21530000D01*
X18050000Y-21530000D02*
G75*
G03*
X20050000Y-21530000I1000000J0D01*
G01*
%TO.C,U6*%
X77360000Y-44390000D02*
X77360000Y-62290000D01*
X77360000Y-62290000D02*
X82660000Y-62290000D01*
X79010000Y-44390000D02*
X77360000Y-44390000D01*
X82660000Y-44390000D02*
X81010000Y-44390000D01*
X82660000Y-62290000D02*
X82660000Y-44390000D01*
X79010000Y-44390000D02*
G75*
G03*
X81010000Y-44390000I1000000J0D01*
G01*
%TO.C,D2*%
X34690000Y-21250000D02*
X34690000Y-24470000D01*
X34690000Y-24470000D02*
X40500000Y-24470000D01*
X40500000Y-21250000D02*
X34690000Y-21250000D01*
%TO.C,TP1*%
X18730000Y-44770000D02*
X16830000Y-44770000D01*
X16830000Y-44770000D02*
X16830000Y-46620000D01*
X18730000Y-46620000D02*
X18730000Y-44770000D01*
X18680000Y-46620000D02*
X18730000Y-46620000D01*
X16830000Y-46620000D02*
X18680000Y-46620000D01*
%TO.C,D1*%
X64230000Y-49870000D02*
X64230000Y-46650000D01*
X64230000Y-46650000D02*
X58420000Y-46650000D01*
X58420000Y-49870000D02*
X64230000Y-49870000D01*
%TO.C,TP2*%
X69530000Y-52390000D02*
X67630000Y-52390000D01*
X67630000Y-52390000D02*
X67630000Y-54240000D01*
X69530000Y-54240000D02*
X69530000Y-52390000D01*
X69480000Y-54240000D02*
X69530000Y-54240000D01*
X67630000Y-54240000D02*
X69480000Y-54240000D01*
%TO.C,TP3*%
X23810000Y-44770000D02*
X21910000Y-44770000D01*
X21910000Y-44770000D02*
X21910000Y-46620000D01*
X23810000Y-46620000D02*
X23810000Y-44770000D01*
X23760000Y-46620000D02*
X23810000Y-46620000D01*
X21910000Y-46620000D02*
X23760000Y-46620000D01*
%TO.C,TP5*%
X70170000Y-49210000D02*
X72070000Y-49210000D01*
X72070000Y-49210000D02*
X72070000Y-47360000D01*
X70170000Y-47360000D02*
X70170000Y-49210000D01*
X70220000Y-47360000D02*
X70170000Y-47360000D01*
X72070000Y-47360000D02*
X70220000Y-47360000D01*
%TO.C,U5*%
X62120000Y-21525000D02*
X62120000Y-39425000D01*
X62120000Y-39425000D02*
X67420000Y-39425000D01*
X63770000Y-21525000D02*
X62120000Y-21525000D01*
X67420000Y-21525000D02*
X65770000Y-21525000D01*
X67420000Y-39425000D02*
X67420000Y-21525000D01*
X63770000Y-21525000D02*
G75*
G03*
X65770000Y-21525000I1000000J0D01*
G01*
%TD*%
M02*
