%TF.GenerationSoftware,KiCad,Pcbnew,7.0.1*%
%TF.CreationDate,2023-04-24T15:46:41+03:00*%
%TF.ProjectId,BSPD,42535044-2e6b-4696-9361-645f70636258,rev?*%
%TF.SameCoordinates,Original*%
%TF.FileFunction,Soldermask,Bot*%
%TF.FilePolarity,Negative*%
%FSLAX46Y46*%
G04 Gerber Fmt 4.6, Leading zero omitted, Abs format (unit mm)*
G04 Created by KiCad (PCBNEW 7.0.1) date 2023-04-24 15:46:41*
%MOMM*%
%LPD*%
G01*
G04 APERTURE LIST*
%ADD10C,2.340000*%
%ADD11C,1.400000*%
%ADD12O,1.400000X1.400000*%
%ADD13R,1.600000X1.600000*%
%ADD14O,1.600000X1.600000*%
%ADD15C,1.600000*%
G04 APERTURE END LIST*
D10*
%TO.C,RV2*%
X43220000Y-57140000D03*
X45720000Y-53340000D03*
X48220000Y-57140000D03*
%TD*%
%TO.C,RV1*%
X43220000Y-68580000D03*
X45720000Y-64780000D03*
X48220000Y-68580000D03*
%TD*%
D11*
%TO.C,R14*%
X70775000Y-43180000D03*
D12*
X68875000Y-43180000D03*
%TD*%
D11*
%TO.C,R12*%
X60320000Y-58420000D03*
D12*
X58420000Y-58420000D03*
%TD*%
D11*
%TO.C,R11*%
X66040000Y-58420000D03*
D12*
X64140000Y-58420000D03*
%TD*%
D11*
%TO.C,R10*%
X40000000Y-27940000D03*
D12*
X38100000Y-27940000D03*
%TD*%
D11*
%TO.C,R9*%
X58420000Y-43180000D03*
D12*
X58420000Y-41280000D03*
%TD*%
D11*
%TO.C,R8*%
X62860000Y-53340000D03*
D12*
X60960000Y-53340000D03*
%TD*%
D11*
%TO.C,R7*%
X66040000Y-55880000D03*
D12*
X64140000Y-55880000D03*
%TD*%
D11*
%TO.C,R6*%
X30480000Y-22860000D03*
D12*
X28580000Y-22860000D03*
%TD*%
D11*
%TO.C,R5*%
X25400000Y-35560000D03*
D12*
X25400000Y-33660000D03*
%TD*%
D11*
%TO.C,TP4*%
X53340000Y-58420000D03*
%TD*%
D13*
%TO.C,U1*%
X76200000Y-20320000D03*
D14*
X76200000Y-22860000D03*
X76200000Y-25400000D03*
X76200000Y-27940000D03*
X76200000Y-30480000D03*
X76200000Y-33020000D03*
X76200000Y-35560000D03*
X83820000Y-35560000D03*
X83820000Y-33020000D03*
X83820000Y-30480000D03*
X83820000Y-27940000D03*
X83820000Y-25400000D03*
X83820000Y-22860000D03*
X83820000Y-20320000D03*
%TD*%
%TO.C,U3*%
X38100000Y-33020000D03*
X38100000Y-35560000D03*
X38100000Y-38100000D03*
X38100000Y-40640000D03*
X38100000Y-43180000D03*
X38100000Y-45720000D03*
X38100000Y-48260000D03*
X30480000Y-48260000D03*
X30480000Y-45720000D03*
X30480000Y-43180000D03*
X30480000Y-40640000D03*
X30480000Y-38100000D03*
X30480000Y-35560000D03*
D13*
X30480000Y-33020000D03*
%TD*%
%TO.C,U4*%
X45720000Y-22860000D03*
D14*
X45720000Y-25400000D03*
X45720000Y-27940000D03*
X45720000Y-30480000D03*
X45720000Y-33020000D03*
X45720000Y-35560000D03*
X45720000Y-38100000D03*
X53340000Y-38100000D03*
X53340000Y-35560000D03*
X53340000Y-33020000D03*
X53340000Y-30480000D03*
X53340000Y-27940000D03*
X53340000Y-25400000D03*
X53340000Y-22860000D03*
%TD*%
D13*
%TO.C,U2*%
X15240000Y-22860000D03*
D15*
X15240000Y-25400000D03*
X15240000Y-38100000D03*
X15240000Y-40640000D03*
X22860000Y-40640000D03*
X22860000Y-38100000D03*
X22860000Y-25400000D03*
X22860000Y-22860000D03*
%TD*%
D13*
%TO.C,U6*%
X76200000Y-45720000D03*
D14*
X76200000Y-48260000D03*
X76200000Y-50800000D03*
X76200000Y-53340000D03*
X76200000Y-55880000D03*
X76200000Y-58420000D03*
X76200000Y-60960000D03*
X83820000Y-60960000D03*
X83820000Y-58420000D03*
X83820000Y-55880000D03*
X83820000Y-53340000D03*
X83820000Y-50800000D03*
X83820000Y-48260000D03*
X83820000Y-45720000D03*
%TD*%
D11*
%TO.C,TP1*%
X17780000Y-45720000D03*
%TD*%
%TO.C,TP2*%
X68580000Y-53340000D03*
%TD*%
%TO.C,TP3*%
X22860000Y-45720000D03*
%TD*%
%TO.C,TP5*%
X71120000Y-48260000D03*
%TD*%
D13*
%TO.C,U5*%
X60960000Y-22855000D03*
D14*
X60960000Y-25395000D03*
X60960000Y-27935000D03*
X60960000Y-30475000D03*
X60960000Y-33015000D03*
X60960000Y-35555000D03*
X60960000Y-38095000D03*
X68580000Y-38095000D03*
X68580000Y-35555000D03*
X68580000Y-33015000D03*
X68580000Y-30475000D03*
X68580000Y-27935000D03*
X68580000Y-25395000D03*
X68580000Y-22855000D03*
%TD*%
M02*
