%TF.GenerationSoftware,KiCad,Pcbnew,7.0.1*%
%TF.CreationDate,2023-04-24T15:46:41+03:00*%
%TF.ProjectId,BSPD,42535044-2e6b-4696-9361-645f70636258,rev?*%
%TF.SameCoordinates,Original*%
%TF.FileFunction,Copper,L2,Bot*%
%TF.FilePolarity,Positive*%
%FSLAX46Y46*%
G04 Gerber Fmt 4.6, Leading zero omitted, Abs format (unit mm)*
G04 Created by KiCad (PCBNEW 7.0.1) date 2023-04-24 15:46:41*
%MOMM*%
%LPD*%
G01*
G04 APERTURE LIST*
%TA.AperFunction,ComponentPad*%
%ADD10C,2.340000*%
%TD*%
%TA.AperFunction,ComponentPad*%
%ADD11C,1.400000*%
%TD*%
%TA.AperFunction,ComponentPad*%
%ADD12O,1.400000X1.400000*%
%TD*%
%TA.AperFunction,ComponentPad*%
%ADD13R,1.600000X1.600000*%
%TD*%
%TA.AperFunction,ComponentPad*%
%ADD14O,1.600000X1.600000*%
%TD*%
%TA.AperFunction,ComponentPad*%
%ADD15C,1.600000*%
%TD*%
%TA.AperFunction,Conductor*%
%ADD16C,0.250000*%
%TD*%
G04 APERTURE END LIST*
D10*
%TO.P,RV2,1,1*%
%TO.N,VCC*%
X43220000Y-57140000D03*
%TO.P,RV2,2,2*%
%TO.N,Net-(U2A--)*%
X45720000Y-53340000D03*
%TO.P,RV2,3,3*%
%TO.N,Net-(C1-Pad2)*%
X48220000Y-57140000D03*
%TD*%
%TO.P,RV1,1,1*%
%TO.N,Net-(C1-Pad2)*%
X43220000Y-68580000D03*
%TO.P,RV1,2,2*%
%TO.N,Net-(U2B--)*%
X45720000Y-64780000D03*
%TO.P,RV1,3,3*%
%TO.N,Net-(R11-Pad1)*%
X48220000Y-68580000D03*
%TD*%
D11*
%TO.P,R14,1*%
%TO.N,Net-(R14-Pad1)*%
X70775000Y-43180000D03*
D12*
%TO.P,R14,2*%
%TO.N,Net-(R14-Pad2)*%
X68875000Y-43180000D03*
%TD*%
D11*
%TO.P,R12,1*%
%TO.N,Net-(U6A-+)*%
X60320000Y-58420000D03*
D12*
%TO.P,R12,2*%
%TO.N,Net-(C1-Pad2)*%
X58420000Y-58420000D03*
%TD*%
D11*
%TO.P,R11,1*%
%TO.N,Net-(R11-Pad1)*%
X66040000Y-58420000D03*
D12*
%TO.P,R11,2*%
%TO.N,Net-(U6A-+)*%
X64140000Y-58420000D03*
%TD*%
D11*
%TO.P,R10,1*%
%TO.N,Net-(D2-A)*%
X40000000Y-27940000D03*
D12*
%TO.P,R10,2*%
%TO.N,Net-(D2-K)*%
X38100000Y-27940000D03*
%TD*%
D11*
%TO.P,R9,1*%
%TO.N,Net-(D1-A)*%
X58420000Y-43180000D03*
D12*
%TO.P,R9,2*%
%TO.N,Net-(D1-K)*%
X58420000Y-41280000D03*
%TD*%
D11*
%TO.P,R8,1*%
%TO.N,Net-(U5A-+)*%
X62860000Y-53340000D03*
D12*
%TO.P,R8,2*%
%TO.N,Net-(C1-Pad2)*%
X60960000Y-53340000D03*
%TD*%
D11*
%TO.P,R7,1*%
%TO.N,Net-(R11-Pad1)*%
X66040000Y-55880000D03*
D12*
%TO.P,R7,2*%
%TO.N,Net-(U5A-+)*%
X64140000Y-55880000D03*
%TD*%
D11*
%TO.P,R6,1*%
%TO.N,Net-(R11-Pad1)*%
X30480000Y-22860000D03*
D12*
%TO.P,R6,2*%
%TO.N,Net-(R6-Pad2)*%
X28580000Y-22860000D03*
%TD*%
D11*
%TO.P,R5,1*%
%TO.N,VCC*%
X25400000Y-35560000D03*
D12*
%TO.P,R5,2*%
%TO.N,Net-(R5-Pad2)*%
X25400000Y-33660000D03*
%TD*%
D11*
%TO.P,TP4,1,1*%
%TO.N,Net-(C1-Pad2)*%
X53340000Y-58420000D03*
%TD*%
D13*
%TO.P,U1,1,CLK*%
%TO.N,unconnected-(U1-CLK-Pad1)*%
X76200000Y-20320000D03*
D14*
%TO.P,U1,2,PR*%
%TO.N,unconnected-(U1-PR-Pad2)*%
X76200000Y-22860000D03*
%TO.P,U1,3,CLR*%
%TO.N,Net-(U1-CLR-Pad3)*%
X76200000Y-25400000D03*
%TO.P,U1,4,J*%
%TO.N,Net-(U1-J-Pad4)*%
X76200000Y-27940000D03*
%TO.P,U1,5,VCC*%
%TO.N,VCC*%
X76200000Y-30480000D03*
%TO.P,U1,6,CLK*%
%TO.N,unconnected-(U1-CLK-Pad6)*%
X76200000Y-33020000D03*
%TO.P,U1,7,PR*%
%TO.N,unconnected-(U1-PR-Pad7)*%
X76200000Y-35560000D03*
%TO.P,U1,8,CLR*%
%TO.N,unconnected-(U1-CLR-Pad8)*%
X83820000Y-35560000D03*
%TO.P,U1,9,J*%
%TO.N,unconnected-(U1-J-Pad9)*%
X83820000Y-33020000D03*
%TO.P,U1,10,~{Q}*%
%TO.N,unconnected-(U1-~{Q}-Pad10)*%
X83820000Y-30480000D03*
%TO.P,U1,11,Q*%
%TO.N,unconnected-(U1-Q-Pad11)*%
X83820000Y-27940000D03*
%TO.P,U1,12,K*%
%TO.N,Net-(U1-CLR-Pad3)*%
X83820000Y-25400000D03*
%TO.P,U1,13,GND*%
%TO.N,unconnected-(U1-GND-Pad13)*%
X83820000Y-22860000D03*
%TO.P,U1,14,~{Q}*%
%TO.N,unconnected-(U1-~{Q}-Pad14)*%
X83820000Y-20320000D03*
%TD*%
%TO.P,U3,14*%
%TO.N,N/C*%
X38100000Y-33020000D03*
%TO.P,U3,13*%
X38100000Y-35560000D03*
%TO.P,U3,12*%
X38100000Y-38100000D03*
%TO.P,U3,11*%
X38100000Y-40640000D03*
%TO.P,U3,10*%
X38100000Y-43180000D03*
%TO.P,U3,9*%
X38100000Y-45720000D03*
%TO.P,U3,8*%
X38100000Y-48260000D03*
%TO.P,U3,7*%
X30480000Y-48260000D03*
%TO.P,U3,6*%
X30480000Y-45720000D03*
%TO.P,U3,5*%
X30480000Y-43180000D03*
%TO.P,U3,4*%
X30480000Y-40640000D03*
%TO.P,U3,3*%
%TO.N,Net-(D2-A)*%
X30480000Y-38100000D03*
%TO.P,U3,2*%
%TO.N,Net-(R6-Pad2)*%
X30480000Y-35560000D03*
D13*
%TO.P,U3,1*%
%TO.N,Net-(R5-Pad2)*%
X30480000Y-33020000D03*
%TD*%
%TO.P,U4,1*%
%TO.N,Net-(D2-A)*%
X45720000Y-22860000D03*
D14*
%TO.P,U4,2*%
%TO.N,Net-(D1-A)*%
X45720000Y-25400000D03*
%TO.P,U4,3*%
%TO.N,N/C*%
X45720000Y-27940000D03*
%TO.P,U4,4*%
X45720000Y-30480000D03*
%TO.P,U4,5*%
X45720000Y-33020000D03*
%TO.P,U4,6*%
X45720000Y-35560000D03*
%TO.P,U4,7*%
X45720000Y-38100000D03*
%TO.P,U4,8*%
X53340000Y-38100000D03*
%TO.P,U4,9*%
X53340000Y-35560000D03*
%TO.P,U4,10*%
X53340000Y-33020000D03*
%TO.P,U4,11*%
X53340000Y-30480000D03*
%TO.P,U4,12*%
X53340000Y-27940000D03*
%TO.P,U4,13*%
X53340000Y-25400000D03*
%TO.P,U4,14*%
X53340000Y-22860000D03*
%TD*%
D13*
%TO.P,U2,1*%
%TO.N,Net-(R5-Pad2)*%
X15240000Y-22860000D03*
D15*
%TO.P,U2,2,-*%
%TO.N,Net-(U2A--)*%
X15240000Y-25400000D03*
%TO.P,U2,3,+*%
%TO.N,Net-(U2A-+)*%
X15240000Y-38100000D03*
%TO.P,U2,4*%
%TO.N,N/C*%
X15240000Y-40640000D03*
%TO.P,U2,5,+*%
%TO.N,Net-(U2B-+)*%
X22860000Y-40640000D03*
%TO.P,U2,6,-*%
%TO.N,Net-(U2B--)*%
X22860000Y-38100000D03*
%TO.P,U2,7*%
%TO.N,Net-(R6-Pad2)*%
X22860000Y-25400000D03*
%TO.P,U2,8*%
%TO.N,N/C*%
X22860000Y-22860000D03*
%TD*%
D13*
%TO.P,U6,1*%
%TO.N,Net-(U1-J-Pad4)*%
X76200000Y-45720000D03*
D14*
%TO.P,U6,2,-*%
%TO.N,Net-(D1-K)*%
X76200000Y-48260000D03*
%TO.P,U6,3,+*%
%TO.N,Net-(U6A-+)*%
X76200000Y-50800000D03*
%TO.P,U6,4*%
%TO.N,N/C*%
X76200000Y-53340000D03*
%TO.P,U6,5*%
X76200000Y-55880000D03*
%TO.P,U6,6*%
X76200000Y-58420000D03*
%TO.P,U6,7*%
X76200000Y-60960000D03*
%TO.P,U6,8*%
X83820000Y-60960000D03*
%TO.P,U6,9*%
X83820000Y-58420000D03*
%TO.P,U6,10*%
X83820000Y-55880000D03*
%TO.P,U6,11*%
X83820000Y-53340000D03*
%TO.P,U6,12*%
X83820000Y-50800000D03*
%TO.P,U6,13*%
X83820000Y-48260000D03*
%TO.P,U6,14*%
X83820000Y-45720000D03*
%TD*%
D11*
%TO.P,TP1,1,1*%
%TO.N,Net-(U2A-+)*%
X17780000Y-45720000D03*
%TD*%
%TO.P,TP2,1,1*%
%TO.N,Net-(R11-Pad1)*%
X68580000Y-53340000D03*
%TD*%
%TO.P,TP3,1,1*%
%TO.N,Net-(U2B-+)*%
X22860000Y-45720000D03*
%TD*%
%TO.P,TP5,1,1*%
%TO.N,Net-(R14-Pad2)*%
X71120000Y-48260000D03*
%TD*%
D13*
%TO.P,U5,1*%
%TO.N,Net-(U1-CLR-Pad3)*%
X60960000Y-22855000D03*
D14*
%TO.P,U5,2,-*%
%TO.N,Net-(D2-K)*%
X60960000Y-25395000D03*
%TO.P,U5,3,+*%
%TO.N,Net-(U5A-+)*%
X60960000Y-27935000D03*
%TO.P,U5,4*%
%TO.N,N/C*%
X60960000Y-30475000D03*
%TO.P,U5,5*%
X60960000Y-33015000D03*
%TO.P,U5,6*%
X60960000Y-35555000D03*
%TO.P,U5,7*%
X60960000Y-38095000D03*
%TO.P,U5,8*%
X68580000Y-38095000D03*
%TO.P,U5,9*%
X68580000Y-35555000D03*
%TO.P,U5,10*%
X68580000Y-33015000D03*
%TO.P,U5,11*%
X68580000Y-30475000D03*
%TO.P,U5,12*%
X68580000Y-27935000D03*
%TO.P,U5,13*%
X68580000Y-25395000D03*
%TO.P,U5,14*%
X68580000Y-22855000D03*
%TD*%
D16*
%TO.N,Net-(U5A-+)*%
X66040000Y-33015000D02*
X60960000Y-27935000D01*
X66040000Y-50160000D02*
X66040000Y-33015000D01*
X62860000Y-53340000D02*
X66040000Y-50160000D01*
%TO.N,Net-(U2B--)*%
X20320000Y-38100000D02*
X22860000Y-38100000D01*
X17780000Y-40640000D02*
X20320000Y-38100000D01*
X17780000Y-43180000D02*
X17780000Y-40640000D01*
X15240000Y-45720000D02*
X17780000Y-43180000D01*
X15240000Y-53340000D02*
X15240000Y-45720000D01*
X19040000Y-57140000D02*
X15240000Y-53340000D01*
X32980000Y-57140000D02*
X19040000Y-57140000D01*
X35560000Y-59720000D02*
X32980000Y-57140000D01*
X35560000Y-71120000D02*
X35560000Y-59720000D01*
X38100000Y-73660000D02*
X35560000Y-71120000D01*
X53340000Y-73660000D02*
X38100000Y-73660000D01*
X55880000Y-71120000D02*
X53340000Y-73660000D01*
X55880000Y-66040000D02*
X55880000Y-71120000D01*
X54620000Y-64780000D02*
X55880000Y-66040000D01*
X45720000Y-64780000D02*
X54620000Y-64780000D01*
%TO.N,Net-(C1-Pad2)*%
X40640000Y-60960000D02*
X50800000Y-60960000D01*
X38100000Y-66040000D02*
X38100000Y-63500000D01*
X50800000Y-60960000D02*
X53340000Y-58420000D01*
X40640000Y-68580000D02*
X38100000Y-66040000D01*
X38100000Y-63500000D02*
X40640000Y-60960000D01*
X43220000Y-68580000D02*
X40640000Y-68580000D01*
%TO.N,Net-(D2-K)*%
X45720000Y-17780000D02*
X53345000Y-17780000D01*
X43180000Y-22860000D02*
X43180000Y-20320000D01*
X43180000Y-20320000D02*
X45720000Y-17780000D01*
X38100000Y-27940000D02*
X43180000Y-22860000D01*
X53345000Y-17780000D02*
X60960000Y-25395000D01*
%TO.N,Net-(C1-Pad2)*%
X52060000Y-57140000D02*
X53340000Y-58420000D01*
X48220000Y-57140000D02*
X52060000Y-57140000D01*
X53340000Y-58420000D02*
X58420000Y-58420000D01*
%TO.N,Net-(R5-Pad2)*%
X29840000Y-33660000D02*
X30480000Y-33020000D01*
X25400000Y-33660000D02*
X29840000Y-33660000D01*
%TO.N,Net-(U6A-+)*%
X66680000Y-60960000D02*
X64140000Y-58420000D01*
X73660000Y-58420000D02*
X71120000Y-60960000D01*
X73660000Y-53340000D02*
X73660000Y-58420000D01*
X71120000Y-60960000D02*
X66680000Y-60960000D01*
X76200000Y-50800000D02*
X73660000Y-53340000D01*
%TO.N,Net-(D1-A)*%
X55880000Y-45720000D02*
X58420000Y-48260000D01*
X48260000Y-45720000D02*
X55880000Y-45720000D01*
X45720000Y-25400000D02*
X43180000Y-27940000D01*
X43180000Y-40640000D02*
X48260000Y-45720000D01*
X43180000Y-27940000D02*
X43180000Y-40640000D01*
%TO.N,Net-(U1-CLR-Pad3)*%
X60965000Y-22855000D02*
X63500000Y-20320000D01*
X76200000Y-25400000D02*
X83820000Y-25400000D01*
X63500000Y-20320000D02*
X71120000Y-20320000D01*
X60960000Y-22855000D02*
X60965000Y-22855000D01*
X71120000Y-20320000D02*
X76200000Y-25400000D01*
%TO.N,Net-(U1-J-Pad4)*%
X73660000Y-30480000D02*
X73660000Y-43180000D01*
X73660000Y-43180000D02*
X76200000Y-45720000D01*
X76200000Y-27940000D02*
X73660000Y-30480000D01*
%TD*%
M02*
