%TF.GenerationSoftware,KiCad,Pcbnew,7.0.1*%
%TF.CreationDate,2023-04-06T21:44:55+03:00*%
%TF.ProjectId,BSPD_large,42535044-5f6c-4617-9267-652e6b696361,rev?*%
%TF.SameCoordinates,Original*%
%TF.FileFunction,Soldermask,Bot*%
%TF.FilePolarity,Negative*%
%FSLAX46Y46*%
G04 Gerber Fmt 4.6, Leading zero omitted, Abs format (unit mm)*
G04 Created by KiCad (PCBNEW 7.0.1) date 2023-04-06 21:44:55*
%MOMM*%
%LPD*%
G01*
G04 APERTURE LIST*
%ADD10C,1.400000*%
%ADD11R,1.600000X1.600000*%
%ADD12O,1.600000X1.600000*%
%ADD13C,1.600000*%
G04 APERTURE END LIST*
D10*
%TO.C,TP4*%
X114300000Y-83820000D03*
%TD*%
D11*
%TO.C,U1*%
X157480000Y-43180000D03*
D12*
X157480000Y-45720000D03*
X157480000Y-48260000D03*
X157480000Y-50800000D03*
X157480000Y-53340000D03*
X157480000Y-55880000D03*
X157480000Y-58420000D03*
X165100000Y-58420000D03*
X165100000Y-55880000D03*
X165100000Y-53340000D03*
X165100000Y-50800000D03*
X165100000Y-48260000D03*
X165100000Y-45720000D03*
X165100000Y-43180000D03*
%TD*%
D11*
%TO.C,U3*%
X111760000Y-55880000D03*
D12*
X111760000Y-58420000D03*
X111760000Y-60960000D03*
X111760000Y-63500000D03*
X111760000Y-66040000D03*
X111760000Y-68580000D03*
X111760000Y-71120000D03*
X119380000Y-71120000D03*
X119380000Y-68580000D03*
X119380000Y-66040000D03*
X119380000Y-63500000D03*
X119380000Y-60960000D03*
X119380000Y-58420000D03*
X119380000Y-55880000D03*
%TD*%
D11*
%TO.C,U4*%
X127000000Y-45720000D03*
D12*
X127000000Y-48260000D03*
X127000000Y-50800000D03*
X127000000Y-53340000D03*
X127000000Y-55880000D03*
X127000000Y-58420000D03*
X127000000Y-60960000D03*
X134620000Y-60960000D03*
X134620000Y-58420000D03*
X134620000Y-55880000D03*
X134620000Y-53340000D03*
X134620000Y-50800000D03*
X134620000Y-48260000D03*
X134620000Y-45720000D03*
%TD*%
D11*
%TO.C,U2*%
X93980000Y-50800000D03*
D13*
X93980000Y-53340000D03*
X93980000Y-66040000D03*
X93980000Y-68580000D03*
X101600000Y-68580000D03*
X101600000Y-66040000D03*
X101600000Y-53340000D03*
X101600000Y-50800000D03*
%TD*%
D11*
%TO.C,U6*%
X157480000Y-68580000D03*
D12*
X157480000Y-71120000D03*
X157480000Y-73660000D03*
X157480000Y-76200000D03*
X157480000Y-78740000D03*
X157480000Y-81280000D03*
X157480000Y-83820000D03*
X165100000Y-83820000D03*
X165100000Y-81280000D03*
X165100000Y-78740000D03*
X165100000Y-76200000D03*
X165100000Y-73660000D03*
X165100000Y-71120000D03*
X165100000Y-68580000D03*
%TD*%
D10*
%TO.C,TP1*%
X109220000Y-83820000D03*
%TD*%
%TO.C,TP2*%
X149860000Y-76200000D03*
%TD*%
%TO.C,TP3*%
X124460000Y-83820000D03*
%TD*%
%TO.C,TP5*%
X152400000Y-86360000D03*
%TD*%
D11*
%TO.C,U5*%
X142240000Y-45715000D03*
D12*
X142240000Y-48255000D03*
X142240000Y-50795000D03*
X142240000Y-53335000D03*
X142240000Y-55875000D03*
X142240000Y-58415000D03*
X142240000Y-60955000D03*
X149860000Y-60955000D03*
X149860000Y-58415000D03*
X149860000Y-55875000D03*
X149860000Y-53335000D03*
X149860000Y-50795000D03*
X149860000Y-48255000D03*
X149860000Y-45715000D03*
%TD*%
M02*
