%TF.GenerationSoftware,KiCad,Pcbnew,7.0.1*%
%TF.CreationDate,2023-04-06T21:44:55+03:00*%
%TF.ProjectId,BSPD_large,42535044-5f6c-4617-9267-652e6b696361,rev?*%
%TF.SameCoordinates,Original*%
%TF.FileFunction,Copper,L2,Bot*%
%TF.FilePolarity,Positive*%
%FSLAX46Y46*%
G04 Gerber Fmt 4.6, Leading zero omitted, Abs format (unit mm)*
G04 Created by KiCad (PCBNEW 7.0.1) date 2023-04-06 21:44:55*
%MOMM*%
%LPD*%
G01*
G04 APERTURE LIST*
%TA.AperFunction,ComponentPad*%
%ADD10C,1.400000*%
%TD*%
%TA.AperFunction,ComponentPad*%
%ADD11R,1.600000X1.600000*%
%TD*%
%TA.AperFunction,ComponentPad*%
%ADD12O,1.600000X1.600000*%
%TD*%
%TA.AperFunction,ComponentPad*%
%ADD13C,1.600000*%
%TD*%
%TA.AperFunction,Conductor*%
%ADD14C,0.250000*%
%TD*%
G04 APERTURE END LIST*
D10*
%TO.P,TP4,1,1*%
%TO.N,Net-(C1-Pad2)*%
X114300000Y-83820000D03*
%TD*%
D11*
%TO.P,U1,1,CLK*%
%TO.N,unconnected-(U1-CLK-Pad1)*%
X157480000Y-43180000D03*
D12*
%TO.P,U1,2,PR*%
%TO.N,unconnected-(U1-PR-Pad2)*%
X157480000Y-45720000D03*
%TO.P,U1,3,CLR*%
%TO.N,Net-(U1-CLR-Pad3)*%
X157480000Y-48260000D03*
%TO.P,U1,4,J*%
%TO.N,Net-(U1-J-Pad4)*%
X157480000Y-50800000D03*
%TO.P,U1,5,VCC*%
%TO.N,VCC*%
X157480000Y-53340000D03*
%TO.P,U1,6,CLK*%
%TO.N,unconnected-(U1-CLK-Pad6)*%
X157480000Y-55880000D03*
%TO.P,U1,7,PR*%
%TO.N,unconnected-(U1-PR-Pad7)*%
X157480000Y-58420000D03*
%TO.P,U1,8,CLR*%
%TO.N,unconnected-(U1-CLR-Pad8)*%
X165100000Y-58420000D03*
%TO.P,U1,9,J*%
%TO.N,unconnected-(U1-J-Pad9)*%
X165100000Y-55880000D03*
%TO.P,U1,10,~{Q}*%
%TO.N,unconnected-(U1-~{Q}-Pad10)*%
X165100000Y-53340000D03*
%TO.P,U1,11,Q*%
%TO.N,unconnected-(U1-Q-Pad11)*%
X165100000Y-50800000D03*
%TO.P,U1,12,K*%
%TO.N,Net-(U1-CLR-Pad3)*%
X165100000Y-48260000D03*
%TO.P,U1,13,GND*%
%TO.N,unconnected-(U1-GND-Pad13)*%
X165100000Y-45720000D03*
%TO.P,U1,14,~{Q}*%
%TO.N,unconnected-(U1-~{Q}-Pad14)*%
X165100000Y-43180000D03*
%TD*%
D11*
%TO.P,U3,1*%
%TO.N,Net-(R5-Pad2)*%
X111760000Y-55880000D03*
D12*
%TO.P,U3,2*%
%TO.N,Net-(R6-Pad2)*%
X111760000Y-58420000D03*
%TO.P,U3,3*%
%TO.N,Net-(D2-A)*%
X111760000Y-60960000D03*
%TO.P,U3,4*%
%TO.N,N/C*%
X111760000Y-63500000D03*
%TO.P,U3,5*%
X111760000Y-66040000D03*
%TO.P,U3,6*%
X111760000Y-68580000D03*
%TO.P,U3,7*%
X111760000Y-71120000D03*
%TO.P,U3,8*%
X119380000Y-71120000D03*
%TO.P,U3,9*%
X119380000Y-68580000D03*
%TO.P,U3,10*%
X119380000Y-66040000D03*
%TO.P,U3,11*%
X119380000Y-63500000D03*
%TO.P,U3,12*%
X119380000Y-60960000D03*
%TO.P,U3,13*%
X119380000Y-58420000D03*
%TO.P,U3,14*%
X119380000Y-55880000D03*
%TD*%
D11*
%TO.P,U4,1*%
%TO.N,Net-(D2-A)*%
X127000000Y-45720000D03*
D12*
%TO.P,U4,2*%
%TO.N,Net-(D1-A)*%
X127000000Y-48260000D03*
%TO.P,U4,3*%
%TO.N,N/C*%
X127000000Y-50800000D03*
%TO.P,U4,4*%
X127000000Y-53340000D03*
%TO.P,U4,5*%
X127000000Y-55880000D03*
%TO.P,U4,6*%
X127000000Y-58420000D03*
%TO.P,U4,7*%
X127000000Y-60960000D03*
%TO.P,U4,8*%
X134620000Y-60960000D03*
%TO.P,U4,9*%
X134620000Y-58420000D03*
%TO.P,U4,10*%
X134620000Y-55880000D03*
%TO.P,U4,11*%
X134620000Y-53340000D03*
%TO.P,U4,12*%
X134620000Y-50800000D03*
%TO.P,U4,13*%
X134620000Y-48260000D03*
%TO.P,U4,14*%
X134620000Y-45720000D03*
%TD*%
D11*
%TO.P,U2,1*%
%TO.N,Net-(R5-Pad2)*%
X93980000Y-50800000D03*
D13*
%TO.P,U2,2,-*%
%TO.N,Net-(U2A--)*%
X93980000Y-53340000D03*
%TO.P,U2,3,+*%
%TO.N,Net-(U2A-+)*%
X93980000Y-66040000D03*
%TO.P,U2,4*%
%TO.N,N/C*%
X93980000Y-68580000D03*
%TO.P,U2,5,+*%
%TO.N,Net-(U2B-+)*%
X101600000Y-68580000D03*
%TO.P,U2,6,-*%
%TO.N,Net-(U2B--)*%
X101600000Y-66040000D03*
%TO.P,U2,7*%
%TO.N,Net-(R6-Pad2)*%
X101600000Y-53340000D03*
%TO.P,U2,8*%
%TO.N,N/C*%
X101600000Y-50800000D03*
%TD*%
D11*
%TO.P,U6,1*%
%TO.N,Net-(U1-J-Pad4)*%
X157480000Y-68580000D03*
D12*
%TO.P,U6,2,-*%
%TO.N,Net-(D1-K)*%
X157480000Y-71120000D03*
%TO.P,U6,3,+*%
%TO.N,Net-(U6A-+)*%
X157480000Y-73660000D03*
%TO.P,U6,4*%
%TO.N,N/C*%
X157480000Y-76200000D03*
%TO.P,U6,5*%
X157480000Y-78740000D03*
%TO.P,U6,6*%
X157480000Y-81280000D03*
%TO.P,U6,7*%
X157480000Y-83820000D03*
%TO.P,U6,8*%
X165100000Y-83820000D03*
%TO.P,U6,9*%
X165100000Y-81280000D03*
%TO.P,U6,10*%
X165100000Y-78740000D03*
%TO.P,U6,11*%
X165100000Y-76200000D03*
%TO.P,U6,12*%
X165100000Y-73660000D03*
%TO.P,U6,13*%
X165100000Y-71120000D03*
%TO.P,U6,14*%
X165100000Y-68580000D03*
%TD*%
D10*
%TO.P,TP1,1,1*%
%TO.N,Net-(U2A-+)*%
X109220000Y-83820000D03*
%TD*%
%TO.P,TP2,1,1*%
%TO.N,Net-(R11-Pad1)*%
X149860000Y-76200000D03*
%TD*%
%TO.P,TP3,1,1*%
%TO.N,Net-(U2B-+)*%
X124460000Y-83820000D03*
%TD*%
%TO.P,TP5,1,1*%
%TO.N,Net-(R14-Pad2)*%
X152400000Y-86360000D03*
%TD*%
D11*
%TO.P,U5,1*%
%TO.N,Net-(U1-CLR-Pad3)*%
X142240000Y-45715000D03*
D12*
%TO.P,U5,2,-*%
%TO.N,Net-(D2-K)*%
X142240000Y-48255000D03*
%TO.P,U5,3,+*%
%TO.N,Net-(U5A-+)*%
X142240000Y-50795000D03*
%TO.P,U5,4*%
%TO.N,N/C*%
X142240000Y-53335000D03*
%TO.P,U5,5*%
X142240000Y-55875000D03*
%TO.P,U5,6*%
X142240000Y-58415000D03*
%TO.P,U5,7*%
X142240000Y-60955000D03*
%TO.P,U5,8*%
X149860000Y-60955000D03*
%TO.P,U5,9*%
X149860000Y-58415000D03*
%TO.P,U5,10*%
X149860000Y-55875000D03*
%TO.P,U5,11*%
X149860000Y-53335000D03*
%TO.P,U5,12*%
X149860000Y-50795000D03*
%TO.P,U5,13*%
X149860000Y-48255000D03*
%TO.P,U5,14*%
X149860000Y-45715000D03*
%TD*%
D14*
%TO.N,Net-(R5-Pad2)*%
X111760000Y-50800000D02*
X111760000Y-55880000D01*
X96520000Y-48260000D02*
X109220000Y-48260000D01*
X109220000Y-48260000D02*
X111760000Y-50800000D01*
X93980000Y-50800000D02*
X96520000Y-48260000D01*
%TO.N,Net-(U2A--)*%
X91440000Y-53340000D02*
X83820000Y-60960000D01*
X83820000Y-60960000D02*
X83820000Y-81280000D01*
X93980000Y-53340000D02*
X91440000Y-53340000D01*
%TO.N,VCC*%
X157480000Y-53340000D02*
X160020000Y-55880000D01*
X154940000Y-91440000D02*
X109220000Y-91440000D01*
X160020000Y-86360000D02*
X157480000Y-88900000D01*
X157480000Y-88900000D02*
X154940000Y-91440000D01*
X160020000Y-55880000D02*
X160020000Y-86360000D01*
X109220000Y-91440000D02*
X96520000Y-78740000D01*
%TO.N,Net-(D1-A)*%
X137160000Y-68580000D02*
X139700000Y-71120000D01*
X129540000Y-68580000D02*
X137160000Y-68580000D01*
X127000000Y-48260000D02*
X124460000Y-50800000D01*
X124460000Y-63500000D02*
X129540000Y-68580000D01*
X124460000Y-50800000D02*
X124460000Y-63500000D01*
%TO.N,Net-(D1-K)*%
X157480000Y-71120000D02*
X152400000Y-71120000D01*
X152400000Y-71120000D02*
X144780000Y-71120000D01*
%TO.N,Net-(U2A-+)*%
X109220000Y-78740000D02*
X109220000Y-83820000D01*
X91440000Y-71120000D02*
X93980000Y-73660000D01*
X93980000Y-66040000D02*
X91440000Y-68580000D01*
X91440000Y-68580000D02*
X91440000Y-71120000D01*
X104140000Y-73660000D02*
X109220000Y-78740000D01*
X93980000Y-73660000D02*
X104140000Y-73660000D01*
%TO.N,Net-(U2B-+)*%
X121920000Y-78740000D02*
X124460000Y-81280000D01*
X101600000Y-68580000D02*
X111760000Y-78740000D01*
X111760000Y-78740000D02*
X121920000Y-78740000D01*
X124460000Y-81280000D02*
X124460000Y-83820000D01*
%TO.N,Net-(U1-CLR-Pad3)*%
X142245000Y-45715000D02*
X144780000Y-43180000D01*
X157480000Y-48260000D02*
X165100000Y-48260000D01*
X144780000Y-43180000D02*
X152400000Y-43180000D01*
X142240000Y-45715000D02*
X142245000Y-45715000D01*
X152400000Y-43180000D02*
X157480000Y-48260000D01*
%TO.N,Net-(U1-J-Pad4)*%
X154940000Y-53340000D02*
X154940000Y-66040000D01*
X154940000Y-66040000D02*
X157480000Y-68580000D01*
X157480000Y-50800000D02*
X154940000Y-53340000D01*
%TD*%
M02*
