%TF.GenerationSoftware,KiCad,Pcbnew,7.0.1*%
%TF.CreationDate,2023-04-06T21:44:55+03:00*%
%TF.ProjectId,BSPD_large,42535044-5f6c-4617-9267-652e6b696361,rev?*%
%TF.SameCoordinates,Original*%
%TF.FileFunction,Soldermask,Top*%
%TF.FilePolarity,Negative*%
%FSLAX46Y46*%
G04 Gerber Fmt 4.6, Leading zero omitted, Abs format (unit mm)*
G04 Created by KiCad (PCBNEW 7.0.1) date 2023-04-06 21:44:55*
%MOMM*%
%LPD*%
G01*
G04 APERTURE LIST*
G04 Aperture macros list*
%AMRoundRect*
0 Rectangle with rounded corners*
0 $1 Rounding radius*
0 $2 $3 $4 $5 $6 $7 $8 $9 X,Y pos of 4 corners*
0 Add a 4 corners polygon primitive as box body*
4,1,4,$2,$3,$4,$5,$6,$7,$8,$9,$2,$3,0*
0 Add four circle primitives for the rounded corners*
1,1,$1+$1,$2,$3*
1,1,$1+$1,$4,$5*
1,1,$1+$1,$6,$7*
1,1,$1+$1,$8,$9*
0 Add four rect primitives between the rounded corners*
20,1,$1+$1,$2,$3,$4,$5,0*
20,1,$1+$1,$4,$5,$6,$7,0*
20,1,$1+$1,$6,$7,$8,$9,0*
20,1,$1+$1,$8,$9,$2,$3,0*%
G04 Aperture macros list end*
%ADD10C,1.400000*%
%ADD11R,1.600000X1.600000*%
%ADD12O,1.600000X1.600000*%
%ADD13RoundRect,0.100000X-0.130000X-0.100000X0.130000X-0.100000X0.130000X0.100000X-0.130000X0.100000X0*%
%ADD14R,2.500000X2.000000*%
%ADD15RoundRect,0.100000X0.130000X0.100000X-0.130000X0.100000X-0.130000X-0.100000X0.130000X-0.100000X0*%
%ADD16C,1.600000*%
%ADD17RoundRect,0.250000X-0.500000X-1.100000X0.500000X-1.100000X0.500000X1.100000X-0.500000X1.100000X0*%
%ADD18RoundRect,0.100000X0.100000X-0.130000X0.100000X0.130000X-0.100000X0.130000X-0.100000X-0.130000X0*%
%ADD19RoundRect,0.250000X0.500000X1.100000X-0.500000X1.100000X-0.500000X-1.100000X0.500000X-1.100000X0*%
%ADD20RoundRect,0.100000X-0.100000X0.130000X-0.100000X-0.130000X0.100000X-0.130000X0.100000X0.130000X0*%
G04 APERTURE END LIST*
D10*
%TO.C,TP4*%
X114300000Y-83820000D03*
%TD*%
D11*
%TO.C,U1*%
X157480000Y-43180000D03*
D12*
X157480000Y-45720000D03*
X157480000Y-48260000D03*
X157480000Y-50800000D03*
X157480000Y-53340000D03*
X157480000Y-55880000D03*
X157480000Y-58420000D03*
X165100000Y-58420000D03*
X165100000Y-55880000D03*
X165100000Y-53340000D03*
X165100000Y-50800000D03*
X165100000Y-48260000D03*
X165100000Y-45720000D03*
X165100000Y-43180000D03*
%TD*%
D13*
%TO.C,C2*%
X131760000Y-71120000D03*
X132400000Y-71120000D03*
%TD*%
D14*
%TO.C,RV1*%
X96520000Y-83040000D03*
X105170000Y-80890000D03*
X96520000Y-78740000D03*
%TD*%
D15*
%TO.C,R14*%
X152375000Y-66040000D03*
X151735000Y-66040000D03*
%TD*%
D11*
%TO.C,U3*%
X111760000Y-55880000D03*
D12*
X111760000Y-58420000D03*
X111760000Y-60960000D03*
X111760000Y-63500000D03*
X111760000Y-66040000D03*
X111760000Y-68580000D03*
X111760000Y-71120000D03*
X119380000Y-71120000D03*
X119380000Y-68580000D03*
X119380000Y-66040000D03*
X119380000Y-63500000D03*
X119380000Y-60960000D03*
X119380000Y-58420000D03*
X119380000Y-55880000D03*
%TD*%
D15*
%TO.C,R12*%
X144780000Y-81280000D03*
X144140000Y-81280000D03*
%TD*%
D11*
%TO.C,U4*%
X127000000Y-45720000D03*
D12*
X127000000Y-48260000D03*
X127000000Y-50800000D03*
X127000000Y-53340000D03*
X127000000Y-55880000D03*
X127000000Y-58420000D03*
X127000000Y-60960000D03*
X134620000Y-60960000D03*
X134620000Y-58420000D03*
X134620000Y-55880000D03*
X134620000Y-53340000D03*
X134620000Y-50800000D03*
X134620000Y-48260000D03*
X134620000Y-45720000D03*
%TD*%
D11*
%TO.C,U2*%
X93980000Y-50800000D03*
D16*
X93980000Y-53340000D03*
X93980000Y-66040000D03*
X93980000Y-68580000D03*
X101600000Y-68580000D03*
X101600000Y-66040000D03*
X101600000Y-53340000D03*
X101600000Y-50800000D03*
%TD*%
D11*
%TO.C,U6*%
X157480000Y-68580000D03*
D12*
X157480000Y-71120000D03*
X157480000Y-73660000D03*
X157480000Y-76200000D03*
X157480000Y-78740000D03*
X157480000Y-81280000D03*
X157480000Y-83820000D03*
X165100000Y-83820000D03*
X165100000Y-81280000D03*
X165100000Y-78740000D03*
X165100000Y-76200000D03*
X165100000Y-73660000D03*
X165100000Y-71120000D03*
X165100000Y-68580000D03*
%TD*%
D15*
%TO.C,R10*%
X116815000Y-50800000D03*
X116175000Y-50800000D03*
%TD*%
D17*
%TO.C,D2*%
X116980000Y-45720000D03*
X121780000Y-45720000D03*
%TD*%
D13*
%TO.C,C1*%
X136798088Y-84810000D03*
X137438088Y-84810000D03*
%TD*%
D10*
%TO.C,TP1*%
X109220000Y-83820000D03*
%TD*%
D18*
%TO.C,R5*%
X81625000Y-51120000D03*
X81625000Y-50480000D03*
%TD*%
D15*
%TO.C,C3*%
X134595000Y-71120000D03*
X133955000Y-71120000D03*
%TD*%
D19*
%TO.C,D1*%
X144500000Y-71120000D03*
X139700000Y-71120000D03*
%TD*%
D14*
%TO.C,RV2*%
X92470000Y-78740000D03*
X83820000Y-80890000D03*
X92470000Y-83040000D03*
%TD*%
D15*
%TO.C,R11*%
X145420000Y-78740000D03*
X144780000Y-78740000D03*
%TD*%
D10*
%TO.C,TP2*%
X149860000Y-76200000D03*
%TD*%
D18*
%TO.C,R9*%
X139700000Y-66360000D03*
X139700000Y-65720000D03*
%TD*%
D10*
%TO.C,TP3*%
X124460000Y-83820000D03*
%TD*%
%TO.C,TP5*%
X152400000Y-86360000D03*
%TD*%
D20*
%TO.C,R6*%
X81280000Y-53020000D03*
X81280000Y-53660000D03*
%TD*%
D11*
%TO.C,U5*%
X142240000Y-45715000D03*
D12*
X142240000Y-48255000D03*
X142240000Y-50795000D03*
X142240000Y-53335000D03*
X142240000Y-55875000D03*
X142240000Y-58415000D03*
X142240000Y-60955000D03*
X149860000Y-60955000D03*
X149860000Y-58415000D03*
X149860000Y-55875000D03*
X149860000Y-53335000D03*
X149860000Y-50795000D03*
X149860000Y-48255000D03*
X149860000Y-45715000D03*
%TD*%
D15*
%TO.C,R8*%
X142035576Y-79730000D03*
X141395576Y-79730000D03*
%TD*%
%TO.C,R7*%
X145445000Y-76200000D03*
X144805000Y-76200000D03*
%TD*%
M02*
