%TF.GenerationSoftware,KiCad,Pcbnew,7.0.1*%
%TF.CreationDate,2023-04-06T21:44:55+03:00*%
%TF.ProjectId,BSPD_large,42535044-5f6c-4617-9267-652e6b696361,rev?*%
%TF.SameCoordinates,Original*%
%TF.FileFunction,Legend,Top*%
%TF.FilePolarity,Positive*%
%FSLAX46Y46*%
G04 Gerber Fmt 4.6, Leading zero omitted, Abs format (unit mm)*
G04 Created by KiCad (PCBNEW 7.0.1) date 2023-04-06 21:44:55*
%MOMM*%
%LPD*%
G01*
G04 APERTURE LIST*
%ADD10C,0.150000*%
%ADD11C,0.120000*%
G04 APERTURE END LIST*
D10*
%TO.C,TP4*%
X111962619Y-85081904D02*
X111962619Y-84510476D01*
X112962619Y-84796190D02*
X111962619Y-84796190D01*
X112962619Y-84177142D02*
X111962619Y-84177142D01*
X111962619Y-84177142D02*
X111962619Y-83796190D01*
X111962619Y-83796190D02*
X112010238Y-83700952D01*
X112010238Y-83700952D02*
X112057857Y-83653333D01*
X112057857Y-83653333D02*
X112153095Y-83605714D01*
X112153095Y-83605714D02*
X112295952Y-83605714D01*
X112295952Y-83605714D02*
X112391190Y-83653333D01*
X112391190Y-83653333D02*
X112438809Y-83700952D01*
X112438809Y-83700952D02*
X112486428Y-83796190D01*
X112486428Y-83796190D02*
X112486428Y-84177142D01*
X112295952Y-82748571D02*
X112962619Y-82748571D01*
X111915000Y-82986666D02*
X112629285Y-83224761D01*
X112629285Y-83224761D02*
X112629285Y-82605714D01*
%TO.C,U1*%
X160528095Y-40312619D02*
X160528095Y-41122142D01*
X160528095Y-41122142D02*
X160575714Y-41217380D01*
X160575714Y-41217380D02*
X160623333Y-41265000D01*
X160623333Y-41265000D02*
X160718571Y-41312619D01*
X160718571Y-41312619D02*
X160909047Y-41312619D01*
X160909047Y-41312619D02*
X161004285Y-41265000D01*
X161004285Y-41265000D02*
X161051904Y-41217380D01*
X161051904Y-41217380D02*
X161099523Y-41122142D01*
X161099523Y-41122142D02*
X161099523Y-40312619D01*
X162099523Y-41312619D02*
X161528095Y-41312619D01*
X161813809Y-41312619D02*
X161813809Y-40312619D01*
X161813809Y-40312619D02*
X161718571Y-40455476D01*
X161718571Y-40455476D02*
X161623333Y-40550714D01*
X161623333Y-40550714D02*
X161528095Y-40598333D01*
%TO.C,C2*%
X131913333Y-70437380D02*
X131865714Y-70485000D01*
X131865714Y-70485000D02*
X131722857Y-70532619D01*
X131722857Y-70532619D02*
X131627619Y-70532619D01*
X131627619Y-70532619D02*
X131484762Y-70485000D01*
X131484762Y-70485000D02*
X131389524Y-70389761D01*
X131389524Y-70389761D02*
X131341905Y-70294523D01*
X131341905Y-70294523D02*
X131294286Y-70104047D01*
X131294286Y-70104047D02*
X131294286Y-69961190D01*
X131294286Y-69961190D02*
X131341905Y-69770714D01*
X131341905Y-69770714D02*
X131389524Y-69675476D01*
X131389524Y-69675476D02*
X131484762Y-69580238D01*
X131484762Y-69580238D02*
X131627619Y-69532619D01*
X131627619Y-69532619D02*
X131722857Y-69532619D01*
X131722857Y-69532619D02*
X131865714Y-69580238D01*
X131865714Y-69580238D02*
X131913333Y-69627857D01*
X132294286Y-69627857D02*
X132341905Y-69580238D01*
X132341905Y-69580238D02*
X132437143Y-69532619D01*
X132437143Y-69532619D02*
X132675238Y-69532619D01*
X132675238Y-69532619D02*
X132770476Y-69580238D01*
X132770476Y-69580238D02*
X132818095Y-69627857D01*
X132818095Y-69627857D02*
X132865714Y-69723095D01*
X132865714Y-69723095D02*
X132865714Y-69818333D01*
X132865714Y-69818333D02*
X132818095Y-69961190D01*
X132818095Y-69961190D02*
X132246667Y-70532619D01*
X132246667Y-70532619D02*
X132865714Y-70532619D01*
%TO.C,RV1*%
X100249761Y-76852619D02*
X99916428Y-76376428D01*
X99678333Y-76852619D02*
X99678333Y-75852619D01*
X99678333Y-75852619D02*
X100059285Y-75852619D01*
X100059285Y-75852619D02*
X100154523Y-75900238D01*
X100154523Y-75900238D02*
X100202142Y-75947857D01*
X100202142Y-75947857D02*
X100249761Y-76043095D01*
X100249761Y-76043095D02*
X100249761Y-76185952D01*
X100249761Y-76185952D02*
X100202142Y-76281190D01*
X100202142Y-76281190D02*
X100154523Y-76328809D01*
X100154523Y-76328809D02*
X100059285Y-76376428D01*
X100059285Y-76376428D02*
X99678333Y-76376428D01*
X100535476Y-75852619D02*
X100868809Y-76852619D01*
X100868809Y-76852619D02*
X101202142Y-75852619D01*
X102059285Y-76852619D02*
X101487857Y-76852619D01*
X101773571Y-76852619D02*
X101773571Y-75852619D01*
X101773571Y-75852619D02*
X101678333Y-75995476D01*
X101678333Y-75995476D02*
X101583095Y-76090714D01*
X101583095Y-76090714D02*
X101487857Y-76138333D01*
%TO.C,R14*%
X151412142Y-67552619D02*
X151078809Y-67076428D01*
X150840714Y-67552619D02*
X150840714Y-66552619D01*
X150840714Y-66552619D02*
X151221666Y-66552619D01*
X151221666Y-66552619D02*
X151316904Y-66600238D01*
X151316904Y-66600238D02*
X151364523Y-66647857D01*
X151364523Y-66647857D02*
X151412142Y-66743095D01*
X151412142Y-66743095D02*
X151412142Y-66885952D01*
X151412142Y-66885952D02*
X151364523Y-66981190D01*
X151364523Y-66981190D02*
X151316904Y-67028809D01*
X151316904Y-67028809D02*
X151221666Y-67076428D01*
X151221666Y-67076428D02*
X150840714Y-67076428D01*
X152364523Y-67552619D02*
X151793095Y-67552619D01*
X152078809Y-67552619D02*
X152078809Y-66552619D01*
X152078809Y-66552619D02*
X151983571Y-66695476D01*
X151983571Y-66695476D02*
X151888333Y-66790714D01*
X151888333Y-66790714D02*
X151793095Y-66838333D01*
X153221666Y-66885952D02*
X153221666Y-67552619D01*
X152983571Y-66505000D02*
X152745476Y-67219285D01*
X152745476Y-67219285D02*
X153364523Y-67219285D01*
%TO.C,U3*%
X114808095Y-53012619D02*
X114808095Y-53822142D01*
X114808095Y-53822142D02*
X114855714Y-53917380D01*
X114855714Y-53917380D02*
X114903333Y-53965000D01*
X114903333Y-53965000D02*
X114998571Y-54012619D01*
X114998571Y-54012619D02*
X115189047Y-54012619D01*
X115189047Y-54012619D02*
X115284285Y-53965000D01*
X115284285Y-53965000D02*
X115331904Y-53917380D01*
X115331904Y-53917380D02*
X115379523Y-53822142D01*
X115379523Y-53822142D02*
X115379523Y-53012619D01*
X115760476Y-53012619D02*
X116379523Y-53012619D01*
X116379523Y-53012619D02*
X116046190Y-53393571D01*
X116046190Y-53393571D02*
X116189047Y-53393571D01*
X116189047Y-53393571D02*
X116284285Y-53441190D01*
X116284285Y-53441190D02*
X116331904Y-53488809D01*
X116331904Y-53488809D02*
X116379523Y-53584047D01*
X116379523Y-53584047D02*
X116379523Y-53822142D01*
X116379523Y-53822142D02*
X116331904Y-53917380D01*
X116331904Y-53917380D02*
X116284285Y-53965000D01*
X116284285Y-53965000D02*
X116189047Y-54012619D01*
X116189047Y-54012619D02*
X115903333Y-54012619D01*
X115903333Y-54012619D02*
X115808095Y-53965000D01*
X115808095Y-53965000D02*
X115760476Y-53917380D01*
%TO.C,R12*%
X143817142Y-82792619D02*
X143483809Y-82316428D01*
X143245714Y-82792619D02*
X143245714Y-81792619D01*
X143245714Y-81792619D02*
X143626666Y-81792619D01*
X143626666Y-81792619D02*
X143721904Y-81840238D01*
X143721904Y-81840238D02*
X143769523Y-81887857D01*
X143769523Y-81887857D02*
X143817142Y-81983095D01*
X143817142Y-81983095D02*
X143817142Y-82125952D01*
X143817142Y-82125952D02*
X143769523Y-82221190D01*
X143769523Y-82221190D02*
X143721904Y-82268809D01*
X143721904Y-82268809D02*
X143626666Y-82316428D01*
X143626666Y-82316428D02*
X143245714Y-82316428D01*
X144769523Y-82792619D02*
X144198095Y-82792619D01*
X144483809Y-82792619D02*
X144483809Y-81792619D01*
X144483809Y-81792619D02*
X144388571Y-81935476D01*
X144388571Y-81935476D02*
X144293333Y-82030714D01*
X144293333Y-82030714D02*
X144198095Y-82078333D01*
X145150476Y-81887857D02*
X145198095Y-81840238D01*
X145198095Y-81840238D02*
X145293333Y-81792619D01*
X145293333Y-81792619D02*
X145531428Y-81792619D01*
X145531428Y-81792619D02*
X145626666Y-81840238D01*
X145626666Y-81840238D02*
X145674285Y-81887857D01*
X145674285Y-81887857D02*
X145721904Y-81983095D01*
X145721904Y-81983095D02*
X145721904Y-82078333D01*
X145721904Y-82078333D02*
X145674285Y-82221190D01*
X145674285Y-82221190D02*
X145102857Y-82792619D01*
X145102857Y-82792619D02*
X145721904Y-82792619D01*
%TO.C,U4*%
X130048095Y-42852619D02*
X130048095Y-43662142D01*
X130048095Y-43662142D02*
X130095714Y-43757380D01*
X130095714Y-43757380D02*
X130143333Y-43805000D01*
X130143333Y-43805000D02*
X130238571Y-43852619D01*
X130238571Y-43852619D02*
X130429047Y-43852619D01*
X130429047Y-43852619D02*
X130524285Y-43805000D01*
X130524285Y-43805000D02*
X130571904Y-43757380D01*
X130571904Y-43757380D02*
X130619523Y-43662142D01*
X130619523Y-43662142D02*
X130619523Y-42852619D01*
X131524285Y-43185952D02*
X131524285Y-43852619D01*
X131286190Y-42805000D02*
X131048095Y-43519285D01*
X131048095Y-43519285D02*
X131667142Y-43519285D01*
%TO.C,U2*%
X97028095Y-47932619D02*
X97028095Y-48742142D01*
X97028095Y-48742142D02*
X97075714Y-48837380D01*
X97075714Y-48837380D02*
X97123333Y-48885000D01*
X97123333Y-48885000D02*
X97218571Y-48932619D01*
X97218571Y-48932619D02*
X97409047Y-48932619D01*
X97409047Y-48932619D02*
X97504285Y-48885000D01*
X97504285Y-48885000D02*
X97551904Y-48837380D01*
X97551904Y-48837380D02*
X97599523Y-48742142D01*
X97599523Y-48742142D02*
X97599523Y-47932619D01*
X98028095Y-48027857D02*
X98075714Y-47980238D01*
X98075714Y-47980238D02*
X98170952Y-47932619D01*
X98170952Y-47932619D02*
X98409047Y-47932619D01*
X98409047Y-47932619D02*
X98504285Y-47980238D01*
X98504285Y-47980238D02*
X98551904Y-48027857D01*
X98551904Y-48027857D02*
X98599523Y-48123095D01*
X98599523Y-48123095D02*
X98599523Y-48218333D01*
X98599523Y-48218333D02*
X98551904Y-48361190D01*
X98551904Y-48361190D02*
X97980476Y-48932619D01*
X97980476Y-48932619D02*
X98599523Y-48932619D01*
%TO.C,U6*%
X160528095Y-65712619D02*
X160528095Y-66522142D01*
X160528095Y-66522142D02*
X160575714Y-66617380D01*
X160575714Y-66617380D02*
X160623333Y-66665000D01*
X160623333Y-66665000D02*
X160718571Y-66712619D01*
X160718571Y-66712619D02*
X160909047Y-66712619D01*
X160909047Y-66712619D02*
X161004285Y-66665000D01*
X161004285Y-66665000D02*
X161051904Y-66617380D01*
X161051904Y-66617380D02*
X161099523Y-66522142D01*
X161099523Y-66522142D02*
X161099523Y-65712619D01*
X162004285Y-65712619D02*
X161813809Y-65712619D01*
X161813809Y-65712619D02*
X161718571Y-65760238D01*
X161718571Y-65760238D02*
X161670952Y-65807857D01*
X161670952Y-65807857D02*
X161575714Y-65950714D01*
X161575714Y-65950714D02*
X161528095Y-66141190D01*
X161528095Y-66141190D02*
X161528095Y-66522142D01*
X161528095Y-66522142D02*
X161575714Y-66617380D01*
X161575714Y-66617380D02*
X161623333Y-66665000D01*
X161623333Y-66665000D02*
X161718571Y-66712619D01*
X161718571Y-66712619D02*
X161909047Y-66712619D01*
X161909047Y-66712619D02*
X162004285Y-66665000D01*
X162004285Y-66665000D02*
X162051904Y-66617380D01*
X162051904Y-66617380D02*
X162099523Y-66522142D01*
X162099523Y-66522142D02*
X162099523Y-66284047D01*
X162099523Y-66284047D02*
X162051904Y-66188809D01*
X162051904Y-66188809D02*
X162004285Y-66141190D01*
X162004285Y-66141190D02*
X161909047Y-66093571D01*
X161909047Y-66093571D02*
X161718571Y-66093571D01*
X161718571Y-66093571D02*
X161623333Y-66141190D01*
X161623333Y-66141190D02*
X161575714Y-66188809D01*
X161575714Y-66188809D02*
X161528095Y-66284047D01*
%TO.C,R10*%
X115852142Y-52312619D02*
X115518809Y-51836428D01*
X115280714Y-52312619D02*
X115280714Y-51312619D01*
X115280714Y-51312619D02*
X115661666Y-51312619D01*
X115661666Y-51312619D02*
X115756904Y-51360238D01*
X115756904Y-51360238D02*
X115804523Y-51407857D01*
X115804523Y-51407857D02*
X115852142Y-51503095D01*
X115852142Y-51503095D02*
X115852142Y-51645952D01*
X115852142Y-51645952D02*
X115804523Y-51741190D01*
X115804523Y-51741190D02*
X115756904Y-51788809D01*
X115756904Y-51788809D02*
X115661666Y-51836428D01*
X115661666Y-51836428D02*
X115280714Y-51836428D01*
X116804523Y-52312619D02*
X116233095Y-52312619D01*
X116518809Y-52312619D02*
X116518809Y-51312619D01*
X116518809Y-51312619D02*
X116423571Y-51455476D01*
X116423571Y-51455476D02*
X116328333Y-51550714D01*
X116328333Y-51550714D02*
X116233095Y-51598333D01*
X117423571Y-51312619D02*
X117518809Y-51312619D01*
X117518809Y-51312619D02*
X117614047Y-51360238D01*
X117614047Y-51360238D02*
X117661666Y-51407857D01*
X117661666Y-51407857D02*
X117709285Y-51503095D01*
X117709285Y-51503095D02*
X117756904Y-51693571D01*
X117756904Y-51693571D02*
X117756904Y-51931666D01*
X117756904Y-51931666D02*
X117709285Y-52122142D01*
X117709285Y-52122142D02*
X117661666Y-52217380D01*
X117661666Y-52217380D02*
X117614047Y-52265000D01*
X117614047Y-52265000D02*
X117518809Y-52312619D01*
X117518809Y-52312619D02*
X117423571Y-52312619D01*
X117423571Y-52312619D02*
X117328333Y-52265000D01*
X117328333Y-52265000D02*
X117280714Y-52217380D01*
X117280714Y-52217380D02*
X117233095Y-52122142D01*
X117233095Y-52122142D02*
X117185476Y-51931666D01*
X117185476Y-51931666D02*
X117185476Y-51693571D01*
X117185476Y-51693571D02*
X117233095Y-51503095D01*
X117233095Y-51503095D02*
X117280714Y-51407857D01*
X117280714Y-51407857D02*
X117328333Y-51360238D01*
X117328333Y-51360238D02*
X117423571Y-51312619D01*
%TO.C,D2*%
X118641905Y-43682619D02*
X118641905Y-42682619D01*
X118641905Y-42682619D02*
X118880000Y-42682619D01*
X118880000Y-42682619D02*
X119022857Y-42730238D01*
X119022857Y-42730238D02*
X119118095Y-42825476D01*
X119118095Y-42825476D02*
X119165714Y-42920714D01*
X119165714Y-42920714D02*
X119213333Y-43111190D01*
X119213333Y-43111190D02*
X119213333Y-43254047D01*
X119213333Y-43254047D02*
X119165714Y-43444523D01*
X119165714Y-43444523D02*
X119118095Y-43539761D01*
X119118095Y-43539761D02*
X119022857Y-43635000D01*
X119022857Y-43635000D02*
X118880000Y-43682619D01*
X118880000Y-43682619D02*
X118641905Y-43682619D01*
X119594286Y-42777857D02*
X119641905Y-42730238D01*
X119641905Y-42730238D02*
X119737143Y-42682619D01*
X119737143Y-42682619D02*
X119975238Y-42682619D01*
X119975238Y-42682619D02*
X120070476Y-42730238D01*
X120070476Y-42730238D02*
X120118095Y-42777857D01*
X120118095Y-42777857D02*
X120165714Y-42873095D01*
X120165714Y-42873095D02*
X120165714Y-42968333D01*
X120165714Y-42968333D02*
X120118095Y-43111190D01*
X120118095Y-43111190D02*
X119546667Y-43682619D01*
X119546667Y-43682619D02*
X120165714Y-43682619D01*
%TO.C,C1*%
X136951421Y-84127380D02*
X136903802Y-84175000D01*
X136903802Y-84175000D02*
X136760945Y-84222619D01*
X136760945Y-84222619D02*
X136665707Y-84222619D01*
X136665707Y-84222619D02*
X136522850Y-84175000D01*
X136522850Y-84175000D02*
X136427612Y-84079761D01*
X136427612Y-84079761D02*
X136379993Y-83984523D01*
X136379993Y-83984523D02*
X136332374Y-83794047D01*
X136332374Y-83794047D02*
X136332374Y-83651190D01*
X136332374Y-83651190D02*
X136379993Y-83460714D01*
X136379993Y-83460714D02*
X136427612Y-83365476D01*
X136427612Y-83365476D02*
X136522850Y-83270238D01*
X136522850Y-83270238D02*
X136665707Y-83222619D01*
X136665707Y-83222619D02*
X136760945Y-83222619D01*
X136760945Y-83222619D02*
X136903802Y-83270238D01*
X136903802Y-83270238D02*
X136951421Y-83317857D01*
X137903802Y-84222619D02*
X137332374Y-84222619D01*
X137618088Y-84222619D02*
X137618088Y-83222619D01*
X137618088Y-83222619D02*
X137522850Y-83365476D01*
X137522850Y-83365476D02*
X137427612Y-83460714D01*
X137427612Y-83460714D02*
X137332374Y-83508333D01*
%TO.C,TP1*%
X106882619Y-85081904D02*
X106882619Y-84510476D01*
X107882619Y-84796190D02*
X106882619Y-84796190D01*
X107882619Y-84177142D02*
X106882619Y-84177142D01*
X106882619Y-84177142D02*
X106882619Y-83796190D01*
X106882619Y-83796190D02*
X106930238Y-83700952D01*
X106930238Y-83700952D02*
X106977857Y-83653333D01*
X106977857Y-83653333D02*
X107073095Y-83605714D01*
X107073095Y-83605714D02*
X107215952Y-83605714D01*
X107215952Y-83605714D02*
X107311190Y-83653333D01*
X107311190Y-83653333D02*
X107358809Y-83700952D01*
X107358809Y-83700952D02*
X107406428Y-83796190D01*
X107406428Y-83796190D02*
X107406428Y-84177142D01*
X107882619Y-82653333D02*
X107882619Y-83224761D01*
X107882619Y-82939047D02*
X106882619Y-82939047D01*
X106882619Y-82939047D02*
X107025476Y-83034285D01*
X107025476Y-83034285D02*
X107120714Y-83129523D01*
X107120714Y-83129523D02*
X107168333Y-83224761D01*
%TO.C,R5*%
X81037619Y-50966666D02*
X80561428Y-51299999D01*
X81037619Y-51538094D02*
X80037619Y-51538094D01*
X80037619Y-51538094D02*
X80037619Y-51157142D01*
X80037619Y-51157142D02*
X80085238Y-51061904D01*
X80085238Y-51061904D02*
X80132857Y-51014285D01*
X80132857Y-51014285D02*
X80228095Y-50966666D01*
X80228095Y-50966666D02*
X80370952Y-50966666D01*
X80370952Y-50966666D02*
X80466190Y-51014285D01*
X80466190Y-51014285D02*
X80513809Y-51061904D01*
X80513809Y-51061904D02*
X80561428Y-51157142D01*
X80561428Y-51157142D02*
X80561428Y-51538094D01*
X80037619Y-50061904D02*
X80037619Y-50538094D01*
X80037619Y-50538094D02*
X80513809Y-50585713D01*
X80513809Y-50585713D02*
X80466190Y-50538094D01*
X80466190Y-50538094D02*
X80418571Y-50442856D01*
X80418571Y-50442856D02*
X80418571Y-50204761D01*
X80418571Y-50204761D02*
X80466190Y-50109523D01*
X80466190Y-50109523D02*
X80513809Y-50061904D01*
X80513809Y-50061904D02*
X80609047Y-50014285D01*
X80609047Y-50014285D02*
X80847142Y-50014285D01*
X80847142Y-50014285D02*
X80942380Y-50061904D01*
X80942380Y-50061904D02*
X80990000Y-50109523D01*
X80990000Y-50109523D02*
X81037619Y-50204761D01*
X81037619Y-50204761D02*
X81037619Y-50442856D01*
X81037619Y-50442856D02*
X80990000Y-50538094D01*
X80990000Y-50538094D02*
X80942380Y-50585713D01*
%TO.C,C3*%
X134108333Y-72537380D02*
X134060714Y-72585000D01*
X134060714Y-72585000D02*
X133917857Y-72632619D01*
X133917857Y-72632619D02*
X133822619Y-72632619D01*
X133822619Y-72632619D02*
X133679762Y-72585000D01*
X133679762Y-72585000D02*
X133584524Y-72489761D01*
X133584524Y-72489761D02*
X133536905Y-72394523D01*
X133536905Y-72394523D02*
X133489286Y-72204047D01*
X133489286Y-72204047D02*
X133489286Y-72061190D01*
X133489286Y-72061190D02*
X133536905Y-71870714D01*
X133536905Y-71870714D02*
X133584524Y-71775476D01*
X133584524Y-71775476D02*
X133679762Y-71680238D01*
X133679762Y-71680238D02*
X133822619Y-71632619D01*
X133822619Y-71632619D02*
X133917857Y-71632619D01*
X133917857Y-71632619D02*
X134060714Y-71680238D01*
X134060714Y-71680238D02*
X134108333Y-71727857D01*
X134441667Y-71632619D02*
X135060714Y-71632619D01*
X135060714Y-71632619D02*
X134727381Y-72013571D01*
X134727381Y-72013571D02*
X134870238Y-72013571D01*
X134870238Y-72013571D02*
X134965476Y-72061190D01*
X134965476Y-72061190D02*
X135013095Y-72108809D01*
X135013095Y-72108809D02*
X135060714Y-72204047D01*
X135060714Y-72204047D02*
X135060714Y-72442142D01*
X135060714Y-72442142D02*
X135013095Y-72537380D01*
X135013095Y-72537380D02*
X134965476Y-72585000D01*
X134965476Y-72585000D02*
X134870238Y-72632619D01*
X134870238Y-72632619D02*
X134584524Y-72632619D01*
X134584524Y-72632619D02*
X134489286Y-72585000D01*
X134489286Y-72585000D02*
X134441667Y-72537380D01*
%TO.C,D1*%
X141361905Y-74082619D02*
X141361905Y-73082619D01*
X141361905Y-73082619D02*
X141600000Y-73082619D01*
X141600000Y-73082619D02*
X141742857Y-73130238D01*
X141742857Y-73130238D02*
X141838095Y-73225476D01*
X141838095Y-73225476D02*
X141885714Y-73320714D01*
X141885714Y-73320714D02*
X141933333Y-73511190D01*
X141933333Y-73511190D02*
X141933333Y-73654047D01*
X141933333Y-73654047D02*
X141885714Y-73844523D01*
X141885714Y-73844523D02*
X141838095Y-73939761D01*
X141838095Y-73939761D02*
X141742857Y-74035000D01*
X141742857Y-74035000D02*
X141600000Y-74082619D01*
X141600000Y-74082619D02*
X141361905Y-74082619D01*
X142885714Y-74082619D02*
X142314286Y-74082619D01*
X142600000Y-74082619D02*
X142600000Y-73082619D01*
X142600000Y-73082619D02*
X142504762Y-73225476D01*
X142504762Y-73225476D02*
X142409524Y-73320714D01*
X142409524Y-73320714D02*
X142314286Y-73368333D01*
%TO.C,RV2*%
X87549761Y-85852619D02*
X87216428Y-85376428D01*
X86978333Y-85852619D02*
X86978333Y-84852619D01*
X86978333Y-84852619D02*
X87359285Y-84852619D01*
X87359285Y-84852619D02*
X87454523Y-84900238D01*
X87454523Y-84900238D02*
X87502142Y-84947857D01*
X87502142Y-84947857D02*
X87549761Y-85043095D01*
X87549761Y-85043095D02*
X87549761Y-85185952D01*
X87549761Y-85185952D02*
X87502142Y-85281190D01*
X87502142Y-85281190D02*
X87454523Y-85328809D01*
X87454523Y-85328809D02*
X87359285Y-85376428D01*
X87359285Y-85376428D02*
X86978333Y-85376428D01*
X87835476Y-84852619D02*
X88168809Y-85852619D01*
X88168809Y-85852619D02*
X88502142Y-84852619D01*
X88787857Y-84947857D02*
X88835476Y-84900238D01*
X88835476Y-84900238D02*
X88930714Y-84852619D01*
X88930714Y-84852619D02*
X89168809Y-84852619D01*
X89168809Y-84852619D02*
X89264047Y-84900238D01*
X89264047Y-84900238D02*
X89311666Y-84947857D01*
X89311666Y-84947857D02*
X89359285Y-85043095D01*
X89359285Y-85043095D02*
X89359285Y-85138333D01*
X89359285Y-85138333D02*
X89311666Y-85281190D01*
X89311666Y-85281190D02*
X88740238Y-85852619D01*
X88740238Y-85852619D02*
X89359285Y-85852619D01*
%TO.C,R11*%
X144457142Y-80252619D02*
X144123809Y-79776428D01*
X143885714Y-80252619D02*
X143885714Y-79252619D01*
X143885714Y-79252619D02*
X144266666Y-79252619D01*
X144266666Y-79252619D02*
X144361904Y-79300238D01*
X144361904Y-79300238D02*
X144409523Y-79347857D01*
X144409523Y-79347857D02*
X144457142Y-79443095D01*
X144457142Y-79443095D02*
X144457142Y-79585952D01*
X144457142Y-79585952D02*
X144409523Y-79681190D01*
X144409523Y-79681190D02*
X144361904Y-79728809D01*
X144361904Y-79728809D02*
X144266666Y-79776428D01*
X144266666Y-79776428D02*
X143885714Y-79776428D01*
X145409523Y-80252619D02*
X144838095Y-80252619D01*
X145123809Y-80252619D02*
X145123809Y-79252619D01*
X145123809Y-79252619D02*
X145028571Y-79395476D01*
X145028571Y-79395476D02*
X144933333Y-79490714D01*
X144933333Y-79490714D02*
X144838095Y-79538333D01*
X146361904Y-80252619D02*
X145790476Y-80252619D01*
X146076190Y-80252619D02*
X146076190Y-79252619D01*
X146076190Y-79252619D02*
X145980952Y-79395476D01*
X145980952Y-79395476D02*
X145885714Y-79490714D01*
X145885714Y-79490714D02*
X145790476Y-79538333D01*
%TO.C,TP2*%
X147522619Y-77461904D02*
X147522619Y-76890476D01*
X148522619Y-77176190D02*
X147522619Y-77176190D01*
X148522619Y-76557142D02*
X147522619Y-76557142D01*
X147522619Y-76557142D02*
X147522619Y-76176190D01*
X147522619Y-76176190D02*
X147570238Y-76080952D01*
X147570238Y-76080952D02*
X147617857Y-76033333D01*
X147617857Y-76033333D02*
X147713095Y-75985714D01*
X147713095Y-75985714D02*
X147855952Y-75985714D01*
X147855952Y-75985714D02*
X147951190Y-76033333D01*
X147951190Y-76033333D02*
X147998809Y-76080952D01*
X147998809Y-76080952D02*
X148046428Y-76176190D01*
X148046428Y-76176190D02*
X148046428Y-76557142D01*
X147617857Y-75604761D02*
X147570238Y-75557142D01*
X147570238Y-75557142D02*
X147522619Y-75461904D01*
X147522619Y-75461904D02*
X147522619Y-75223809D01*
X147522619Y-75223809D02*
X147570238Y-75128571D01*
X147570238Y-75128571D02*
X147617857Y-75080952D01*
X147617857Y-75080952D02*
X147713095Y-75033333D01*
X147713095Y-75033333D02*
X147808333Y-75033333D01*
X147808333Y-75033333D02*
X147951190Y-75080952D01*
X147951190Y-75080952D02*
X148522619Y-75652380D01*
X148522619Y-75652380D02*
X148522619Y-75033333D01*
%TO.C,R9*%
X139112619Y-66206666D02*
X138636428Y-66539999D01*
X139112619Y-66778094D02*
X138112619Y-66778094D01*
X138112619Y-66778094D02*
X138112619Y-66397142D01*
X138112619Y-66397142D02*
X138160238Y-66301904D01*
X138160238Y-66301904D02*
X138207857Y-66254285D01*
X138207857Y-66254285D02*
X138303095Y-66206666D01*
X138303095Y-66206666D02*
X138445952Y-66206666D01*
X138445952Y-66206666D02*
X138541190Y-66254285D01*
X138541190Y-66254285D02*
X138588809Y-66301904D01*
X138588809Y-66301904D02*
X138636428Y-66397142D01*
X138636428Y-66397142D02*
X138636428Y-66778094D01*
X139112619Y-65730475D02*
X139112619Y-65539999D01*
X139112619Y-65539999D02*
X139065000Y-65444761D01*
X139065000Y-65444761D02*
X139017380Y-65397142D01*
X139017380Y-65397142D02*
X138874523Y-65301904D01*
X138874523Y-65301904D02*
X138684047Y-65254285D01*
X138684047Y-65254285D02*
X138303095Y-65254285D01*
X138303095Y-65254285D02*
X138207857Y-65301904D01*
X138207857Y-65301904D02*
X138160238Y-65349523D01*
X138160238Y-65349523D02*
X138112619Y-65444761D01*
X138112619Y-65444761D02*
X138112619Y-65635237D01*
X138112619Y-65635237D02*
X138160238Y-65730475D01*
X138160238Y-65730475D02*
X138207857Y-65778094D01*
X138207857Y-65778094D02*
X138303095Y-65825713D01*
X138303095Y-65825713D02*
X138541190Y-65825713D01*
X138541190Y-65825713D02*
X138636428Y-65778094D01*
X138636428Y-65778094D02*
X138684047Y-65730475D01*
X138684047Y-65730475D02*
X138731666Y-65635237D01*
X138731666Y-65635237D02*
X138731666Y-65444761D01*
X138731666Y-65444761D02*
X138684047Y-65349523D01*
X138684047Y-65349523D02*
X138636428Y-65301904D01*
X138636428Y-65301904D02*
X138541190Y-65254285D01*
%TO.C,TP3*%
X122122619Y-85081904D02*
X122122619Y-84510476D01*
X123122619Y-84796190D02*
X122122619Y-84796190D01*
X123122619Y-84177142D02*
X122122619Y-84177142D01*
X122122619Y-84177142D02*
X122122619Y-83796190D01*
X122122619Y-83796190D02*
X122170238Y-83700952D01*
X122170238Y-83700952D02*
X122217857Y-83653333D01*
X122217857Y-83653333D02*
X122313095Y-83605714D01*
X122313095Y-83605714D02*
X122455952Y-83605714D01*
X122455952Y-83605714D02*
X122551190Y-83653333D01*
X122551190Y-83653333D02*
X122598809Y-83700952D01*
X122598809Y-83700952D02*
X122646428Y-83796190D01*
X122646428Y-83796190D02*
X122646428Y-84177142D01*
X122122619Y-83272380D02*
X122122619Y-82653333D01*
X122122619Y-82653333D02*
X122503571Y-82986666D01*
X122503571Y-82986666D02*
X122503571Y-82843809D01*
X122503571Y-82843809D02*
X122551190Y-82748571D01*
X122551190Y-82748571D02*
X122598809Y-82700952D01*
X122598809Y-82700952D02*
X122694047Y-82653333D01*
X122694047Y-82653333D02*
X122932142Y-82653333D01*
X122932142Y-82653333D02*
X123027380Y-82700952D01*
X123027380Y-82700952D02*
X123075000Y-82748571D01*
X123075000Y-82748571D02*
X123122619Y-82843809D01*
X123122619Y-82843809D02*
X123122619Y-83129523D01*
X123122619Y-83129523D02*
X123075000Y-83224761D01*
X123075000Y-83224761D02*
X123027380Y-83272380D01*
%TO.C,TP5*%
X153662619Y-87621904D02*
X153662619Y-87050476D01*
X154662619Y-87336190D02*
X153662619Y-87336190D01*
X154662619Y-86717142D02*
X153662619Y-86717142D01*
X153662619Y-86717142D02*
X153662619Y-86336190D01*
X153662619Y-86336190D02*
X153710238Y-86240952D01*
X153710238Y-86240952D02*
X153757857Y-86193333D01*
X153757857Y-86193333D02*
X153853095Y-86145714D01*
X153853095Y-86145714D02*
X153995952Y-86145714D01*
X153995952Y-86145714D02*
X154091190Y-86193333D01*
X154091190Y-86193333D02*
X154138809Y-86240952D01*
X154138809Y-86240952D02*
X154186428Y-86336190D01*
X154186428Y-86336190D02*
X154186428Y-86717142D01*
X153662619Y-85240952D02*
X153662619Y-85717142D01*
X153662619Y-85717142D02*
X154138809Y-85764761D01*
X154138809Y-85764761D02*
X154091190Y-85717142D01*
X154091190Y-85717142D02*
X154043571Y-85621904D01*
X154043571Y-85621904D02*
X154043571Y-85383809D01*
X154043571Y-85383809D02*
X154091190Y-85288571D01*
X154091190Y-85288571D02*
X154138809Y-85240952D01*
X154138809Y-85240952D02*
X154234047Y-85193333D01*
X154234047Y-85193333D02*
X154472142Y-85193333D01*
X154472142Y-85193333D02*
X154567380Y-85240952D01*
X154567380Y-85240952D02*
X154615000Y-85288571D01*
X154615000Y-85288571D02*
X154662619Y-85383809D01*
X154662619Y-85383809D02*
X154662619Y-85621904D01*
X154662619Y-85621904D02*
X154615000Y-85717142D01*
X154615000Y-85717142D02*
X154567380Y-85764761D01*
%TO.C,R6*%
X82792619Y-53506666D02*
X82316428Y-53839999D01*
X82792619Y-54078094D02*
X81792619Y-54078094D01*
X81792619Y-54078094D02*
X81792619Y-53697142D01*
X81792619Y-53697142D02*
X81840238Y-53601904D01*
X81840238Y-53601904D02*
X81887857Y-53554285D01*
X81887857Y-53554285D02*
X81983095Y-53506666D01*
X81983095Y-53506666D02*
X82125952Y-53506666D01*
X82125952Y-53506666D02*
X82221190Y-53554285D01*
X82221190Y-53554285D02*
X82268809Y-53601904D01*
X82268809Y-53601904D02*
X82316428Y-53697142D01*
X82316428Y-53697142D02*
X82316428Y-54078094D01*
X81792619Y-52649523D02*
X81792619Y-52839999D01*
X81792619Y-52839999D02*
X81840238Y-52935237D01*
X81840238Y-52935237D02*
X81887857Y-52982856D01*
X81887857Y-52982856D02*
X82030714Y-53078094D01*
X82030714Y-53078094D02*
X82221190Y-53125713D01*
X82221190Y-53125713D02*
X82602142Y-53125713D01*
X82602142Y-53125713D02*
X82697380Y-53078094D01*
X82697380Y-53078094D02*
X82745000Y-53030475D01*
X82745000Y-53030475D02*
X82792619Y-52935237D01*
X82792619Y-52935237D02*
X82792619Y-52744761D01*
X82792619Y-52744761D02*
X82745000Y-52649523D01*
X82745000Y-52649523D02*
X82697380Y-52601904D01*
X82697380Y-52601904D02*
X82602142Y-52554285D01*
X82602142Y-52554285D02*
X82364047Y-52554285D01*
X82364047Y-52554285D02*
X82268809Y-52601904D01*
X82268809Y-52601904D02*
X82221190Y-52649523D01*
X82221190Y-52649523D02*
X82173571Y-52744761D01*
X82173571Y-52744761D02*
X82173571Y-52935237D01*
X82173571Y-52935237D02*
X82221190Y-53030475D01*
X82221190Y-53030475D02*
X82268809Y-53078094D01*
X82268809Y-53078094D02*
X82364047Y-53125713D01*
%TO.C,U5*%
X145288095Y-42847619D02*
X145288095Y-43657142D01*
X145288095Y-43657142D02*
X145335714Y-43752380D01*
X145335714Y-43752380D02*
X145383333Y-43800000D01*
X145383333Y-43800000D02*
X145478571Y-43847619D01*
X145478571Y-43847619D02*
X145669047Y-43847619D01*
X145669047Y-43847619D02*
X145764285Y-43800000D01*
X145764285Y-43800000D02*
X145811904Y-43752380D01*
X145811904Y-43752380D02*
X145859523Y-43657142D01*
X145859523Y-43657142D02*
X145859523Y-42847619D01*
X146811904Y-42847619D02*
X146335714Y-42847619D01*
X146335714Y-42847619D02*
X146288095Y-43323809D01*
X146288095Y-43323809D02*
X146335714Y-43276190D01*
X146335714Y-43276190D02*
X146430952Y-43228571D01*
X146430952Y-43228571D02*
X146669047Y-43228571D01*
X146669047Y-43228571D02*
X146764285Y-43276190D01*
X146764285Y-43276190D02*
X146811904Y-43323809D01*
X146811904Y-43323809D02*
X146859523Y-43419047D01*
X146859523Y-43419047D02*
X146859523Y-43657142D01*
X146859523Y-43657142D02*
X146811904Y-43752380D01*
X146811904Y-43752380D02*
X146764285Y-43800000D01*
X146764285Y-43800000D02*
X146669047Y-43847619D01*
X146669047Y-43847619D02*
X146430952Y-43847619D01*
X146430952Y-43847619D02*
X146335714Y-43800000D01*
X146335714Y-43800000D02*
X146288095Y-43752380D01*
%TO.C,R8*%
X141548909Y-81242619D02*
X141215576Y-80766428D01*
X140977481Y-81242619D02*
X140977481Y-80242619D01*
X140977481Y-80242619D02*
X141358433Y-80242619D01*
X141358433Y-80242619D02*
X141453671Y-80290238D01*
X141453671Y-80290238D02*
X141501290Y-80337857D01*
X141501290Y-80337857D02*
X141548909Y-80433095D01*
X141548909Y-80433095D02*
X141548909Y-80575952D01*
X141548909Y-80575952D02*
X141501290Y-80671190D01*
X141501290Y-80671190D02*
X141453671Y-80718809D01*
X141453671Y-80718809D02*
X141358433Y-80766428D01*
X141358433Y-80766428D02*
X140977481Y-80766428D01*
X142120338Y-80671190D02*
X142025100Y-80623571D01*
X142025100Y-80623571D02*
X141977481Y-80575952D01*
X141977481Y-80575952D02*
X141929862Y-80480714D01*
X141929862Y-80480714D02*
X141929862Y-80433095D01*
X141929862Y-80433095D02*
X141977481Y-80337857D01*
X141977481Y-80337857D02*
X142025100Y-80290238D01*
X142025100Y-80290238D02*
X142120338Y-80242619D01*
X142120338Y-80242619D02*
X142310814Y-80242619D01*
X142310814Y-80242619D02*
X142406052Y-80290238D01*
X142406052Y-80290238D02*
X142453671Y-80337857D01*
X142453671Y-80337857D02*
X142501290Y-80433095D01*
X142501290Y-80433095D02*
X142501290Y-80480714D01*
X142501290Y-80480714D02*
X142453671Y-80575952D01*
X142453671Y-80575952D02*
X142406052Y-80623571D01*
X142406052Y-80623571D02*
X142310814Y-80671190D01*
X142310814Y-80671190D02*
X142120338Y-80671190D01*
X142120338Y-80671190D02*
X142025100Y-80718809D01*
X142025100Y-80718809D02*
X141977481Y-80766428D01*
X141977481Y-80766428D02*
X141929862Y-80861666D01*
X141929862Y-80861666D02*
X141929862Y-81052142D01*
X141929862Y-81052142D02*
X141977481Y-81147380D01*
X141977481Y-81147380D02*
X142025100Y-81195000D01*
X142025100Y-81195000D02*
X142120338Y-81242619D01*
X142120338Y-81242619D02*
X142310814Y-81242619D01*
X142310814Y-81242619D02*
X142406052Y-81195000D01*
X142406052Y-81195000D02*
X142453671Y-81147380D01*
X142453671Y-81147380D02*
X142501290Y-81052142D01*
X142501290Y-81052142D02*
X142501290Y-80861666D01*
X142501290Y-80861666D02*
X142453671Y-80766428D01*
X142453671Y-80766428D02*
X142406052Y-80718809D01*
X142406052Y-80718809D02*
X142310814Y-80671190D01*
%TO.C,R7*%
X144958333Y-77712619D02*
X144625000Y-77236428D01*
X144386905Y-77712619D02*
X144386905Y-76712619D01*
X144386905Y-76712619D02*
X144767857Y-76712619D01*
X144767857Y-76712619D02*
X144863095Y-76760238D01*
X144863095Y-76760238D02*
X144910714Y-76807857D01*
X144910714Y-76807857D02*
X144958333Y-76903095D01*
X144958333Y-76903095D02*
X144958333Y-77045952D01*
X144958333Y-77045952D02*
X144910714Y-77141190D01*
X144910714Y-77141190D02*
X144863095Y-77188809D01*
X144863095Y-77188809D02*
X144767857Y-77236428D01*
X144767857Y-77236428D02*
X144386905Y-77236428D01*
X145291667Y-76712619D02*
X145958333Y-76712619D01*
X145958333Y-76712619D02*
X145529762Y-77712619D01*
D11*
%TO.C,TP4*%
X115250000Y-82870000D02*
X113350000Y-82870000D01*
X113350000Y-82870000D02*
X113350000Y-84720000D01*
X115250000Y-84720000D02*
X115250000Y-82870000D01*
X115200000Y-84720000D02*
X115250000Y-84720000D01*
X113350000Y-84720000D02*
X115200000Y-84720000D01*
%TO.C,U1*%
X156150000Y-41790000D02*
X156150000Y-59810000D01*
X156150000Y-59810000D02*
X166430000Y-59810000D01*
X158640000Y-41850000D02*
X158640000Y-59750000D01*
X158640000Y-59750000D02*
X163940000Y-59750000D01*
X160290000Y-41850000D02*
X158640000Y-41850000D01*
X163940000Y-41850000D02*
X162290000Y-41850000D01*
X163940000Y-59750000D02*
X163940000Y-41850000D01*
X166430000Y-41790000D02*
X156150000Y-41790000D01*
X166430000Y-59810000D02*
X166430000Y-41790000D01*
X160290000Y-41850000D02*
G75*
G03*
X162290000Y-41850000I1000000J0D01*
G01*
%TO.C,RV1*%
X97475000Y-79981000D02*
X97475000Y-81800000D01*
X98011000Y-77519000D02*
X104215000Y-77519000D01*
X98011000Y-84260000D02*
X104215000Y-84260000D01*
X104215000Y-77519000D02*
X104215000Y-79650000D01*
X104215000Y-82130000D02*
X104215000Y-84260000D01*
%TO.C,U3*%
X112920000Y-54550000D02*
X112920000Y-72450000D01*
X112920000Y-72450000D02*
X118220000Y-72450000D01*
X114570000Y-54550000D02*
X112920000Y-54550000D01*
X118220000Y-54550000D02*
X116570000Y-54550000D01*
X118220000Y-72450000D02*
X118220000Y-54550000D01*
X114570000Y-54550000D02*
G75*
G03*
X116570000Y-54550000I1000000J0D01*
G01*
%TO.C,U4*%
X128160000Y-44390000D02*
X128160000Y-62290000D01*
X128160000Y-62290000D02*
X133460000Y-62290000D01*
X129810000Y-44390000D02*
X128160000Y-44390000D01*
X133460000Y-44390000D02*
X131810000Y-44390000D01*
X133460000Y-62290000D02*
X133460000Y-44390000D01*
X129810000Y-44390000D02*
G75*
G03*
X131810000Y-44390000I1000000J0D01*
G01*
%TO.C,U2*%
X95140000Y-49470000D02*
X95140000Y-69910000D01*
X95140000Y-69910000D02*
X100440000Y-69910000D01*
X96790000Y-49470000D02*
X95140000Y-49470000D01*
X100440000Y-49470000D02*
X98790000Y-49470000D01*
X100440000Y-69910000D02*
X100440000Y-49470000D01*
X96790000Y-49470000D02*
G75*
G03*
X98790000Y-49470000I1000000J0D01*
G01*
%TO.C,U6*%
X158640000Y-67250000D02*
X158640000Y-85150000D01*
X158640000Y-85150000D02*
X163940000Y-85150000D01*
X160290000Y-67250000D02*
X158640000Y-67250000D01*
X163940000Y-67250000D02*
X162290000Y-67250000D01*
X163940000Y-85150000D02*
X163940000Y-67250000D01*
X160290000Y-67250000D02*
G75*
G03*
X162290000Y-67250000I1000000J0D01*
G01*
%TO.C,D2*%
X115970000Y-44110000D02*
X115970000Y-47330000D01*
X115970000Y-47330000D02*
X121780000Y-47330000D01*
X121780000Y-44110000D02*
X115970000Y-44110000D01*
%TO.C,TP1*%
X110170000Y-82870000D02*
X108270000Y-82870000D01*
X108270000Y-82870000D02*
X108270000Y-84720000D01*
X110170000Y-84720000D02*
X110170000Y-82870000D01*
X110120000Y-84720000D02*
X110170000Y-84720000D01*
X108270000Y-84720000D02*
X110120000Y-84720000D01*
%TO.C,D1*%
X145510000Y-72730000D02*
X145510000Y-69510000D01*
X145510000Y-69510000D02*
X139700000Y-69510000D01*
X139700000Y-72730000D02*
X145510000Y-72730000D01*
%TO.C,RV2*%
X91515000Y-81799000D02*
X91515000Y-79980000D01*
X90979000Y-84261000D02*
X84775000Y-84261000D01*
X90979000Y-77520000D02*
X84775000Y-77520000D01*
X84775000Y-84261000D02*
X84775000Y-82130000D01*
X84775000Y-79650000D02*
X84775000Y-77520000D01*
%TO.C,TP2*%
X150810000Y-75250000D02*
X148910000Y-75250000D01*
X148910000Y-75250000D02*
X148910000Y-77100000D01*
X150810000Y-77100000D02*
X150810000Y-75250000D01*
X150760000Y-77100000D02*
X150810000Y-77100000D01*
X148910000Y-77100000D02*
X150760000Y-77100000D01*
%TO.C,TP3*%
X125410000Y-82870000D02*
X123510000Y-82870000D01*
X123510000Y-82870000D02*
X123510000Y-84720000D01*
X125410000Y-84720000D02*
X125410000Y-82870000D01*
X125360000Y-84720000D02*
X125410000Y-84720000D01*
X123510000Y-84720000D02*
X125360000Y-84720000D01*
%TO.C,TP5*%
X151450000Y-87310000D02*
X153350000Y-87310000D01*
X153350000Y-87310000D02*
X153350000Y-85460000D01*
X151450000Y-85460000D02*
X151450000Y-87310000D01*
X151500000Y-85460000D02*
X151450000Y-85460000D01*
X153350000Y-85460000D02*
X151500000Y-85460000D01*
%TO.C,U5*%
X143400000Y-44385000D02*
X143400000Y-62285000D01*
X143400000Y-62285000D02*
X148700000Y-62285000D01*
X145050000Y-44385000D02*
X143400000Y-44385000D01*
X148700000Y-44385000D02*
X147050000Y-44385000D01*
X148700000Y-62285000D02*
X148700000Y-44385000D01*
X145050000Y-44385000D02*
G75*
G03*
X147050000Y-44385000I1000000J0D01*
G01*
%TD*%
M02*
