M48
; DRILL file {KiCad 7.0.1} date Thu Apr  6 21:37:25 2023
; FORMAT={-:-/ absolute / inch / decimal}
; #@! TF.CreationDate,2023-04-06T21:37:25+03:00
; #@! TF.GenerationSoftware,Kicad,Pcbnew,7.0.1
; #@! TF.FileFunction,Plated,1,2,PTH
FMAT,2
INCH
; #@! TA.AperFunction,Plated,PTH,ComponentDrill
T1C0.0276
; #@! TA.AperFunction,Plated,PTH,ComponentDrill
T2C0.0315
%
G90
G05
T1
X0.6Y-1.6
X0.6Y-1.8
X2.4Y-2.4
X2.7Y-1.9
X2.8Y-2.3
T2
X0.6Y-0.7
X0.6Y-0.8
X0.6Y-1.3
X0.6Y-1.4
X0.9Y-0.7
X0.9Y-0.8
X0.9Y-1.3
X0.9Y-1.4
X1.2Y-1.1
X1.2Y-1.2
X1.2Y-1.3
X1.2Y-1.4
X1.2Y-1.5
X1.2Y-1.6
X1.2Y-1.7
X1.5Y-1.1
X1.5Y-1.2
X1.5Y-1.3
X1.5Y-1.4
X1.5Y-1.5
X1.5Y-1.6
X1.5Y-1.7
X1.8Y-0.7
X1.8Y-0.8
X1.8Y-0.9
X1.8Y-1.0
X1.8Y-1.1
X1.8Y-1.2
X1.8Y-1.3
X2.1Y-0.7
X2.1Y-0.8
X2.1Y-0.9
X2.1Y-1.0
X2.1Y-1.1
X2.1Y-1.2
X2.1Y-1.3
X2.4Y-0.6998
X2.4Y-0.7998
X2.4Y-0.8998
X2.4Y-0.9998
X2.4Y-1.0998
X2.4Y-1.1998
X2.4Y-1.2998
X2.7Y-0.6998
X2.7Y-0.7998
X2.7Y-0.8998
X2.7Y-0.9998
X2.7Y-1.0998
X2.7Y-1.1998
X2.7Y-1.2998
X3.0Y-0.6
X3.0Y-0.7
X3.0Y-0.8
X3.0Y-0.9
X3.0Y-1.0
X3.0Y-1.1
X3.0Y-1.2
X3.0Y-1.6
X3.0Y-1.7
X3.0Y-1.8
X3.0Y-1.9
X3.0Y-2.0
X3.0Y-2.1
X3.0Y-2.2
X3.3Y-0.6
X3.3Y-0.7
X3.3Y-0.8
X3.3Y-0.9
X3.3Y-1.0
X3.3Y-1.1
X3.3Y-1.2
X3.3Y-1.6
X3.3Y-1.7
X3.3Y-1.8
X3.3Y-1.9
X3.3Y-2.0
X3.3Y-2.1
X3.3Y-2.2
T0
M30
