%TF.GenerationSoftware,KiCad,Pcbnew,7.0.1*%
%TF.CreationDate,2023-04-06T21:37:19+03:00*%
%TF.ProjectId,BSPD,42535044-2e6b-4696-9361-645f70636258,rev?*%
%TF.SameCoordinates,Original*%
%TF.FileFunction,Soldermask,Top*%
%TF.FilePolarity,Negative*%
%FSLAX46Y46*%
G04 Gerber Fmt 4.6, Leading zero omitted, Abs format (unit mm)*
G04 Created by KiCad (PCBNEW 7.0.1) date 2023-04-06 21:37:19*
%MOMM*%
%LPD*%
G01*
G04 APERTURE LIST*
G04 Aperture macros list*
%AMRoundRect*
0 Rectangle with rounded corners*
0 $1 Rounding radius*
0 $2 $3 $4 $5 $6 $7 $8 $9 X,Y pos of 4 corners*
0 Add a 4 corners polygon primitive as box body*
4,1,4,$2,$3,$4,$5,$6,$7,$8,$9,$2,$3,0*
0 Add four circle primitives for the rounded corners*
1,1,$1+$1,$2,$3*
1,1,$1+$1,$4,$5*
1,1,$1+$1,$6,$7*
1,1,$1+$1,$8,$9*
0 Add four rect primitives between the rounded corners*
20,1,$1+$1,$2,$3,$4,$5,0*
20,1,$1+$1,$4,$5,$6,$7,0*
20,1,$1+$1,$6,$7,$8,$9,0*
20,1,$1+$1,$8,$9,$2,$3,0*%
G04 Aperture macros list end*
%ADD10C,1.400000*%
%ADD11R,1.600000X1.600000*%
%ADD12O,1.600000X1.600000*%
%ADD13RoundRect,0.100000X-0.130000X-0.100000X0.130000X-0.100000X0.130000X0.100000X-0.130000X0.100000X0*%
%ADD14R,2.000000X2.500000*%
%ADD15RoundRect,0.100000X0.130000X0.100000X-0.130000X0.100000X-0.130000X-0.100000X0.130000X-0.100000X0*%
%ADD16C,1.600000*%
%ADD17RoundRect,0.250000X-0.500000X-1.100000X0.500000X-1.100000X0.500000X1.100000X-0.500000X1.100000X0*%
%ADD18RoundRect,0.100000X0.100000X-0.130000X0.100000X0.130000X-0.100000X0.130000X-0.100000X-0.130000X0*%
%ADD19RoundRect,0.250000X0.500000X1.100000X-0.500000X1.100000X-0.500000X-1.100000X0.500000X-1.100000X0*%
%ADD20R,2.500000X2.000000*%
G04 APERTURE END LIST*
D10*
%TO.C,TP5*%
X71120000Y-58420000D03*
%TD*%
%TO.C,TP4*%
X60960000Y-60960000D03*
%TD*%
%TO.C,TP3*%
X15240000Y-45720000D03*
%TD*%
%TO.C,TP2*%
X68580000Y-48260000D03*
%TD*%
%TO.C,TP1*%
X15240000Y-40640000D03*
%TD*%
D11*
%TO.C,U1*%
X76200000Y-15240000D03*
D12*
X76200000Y-17780000D03*
X76200000Y-20320000D03*
X76200000Y-22860000D03*
X76200000Y-25400000D03*
X76200000Y-27940000D03*
X76200000Y-30480000D03*
X83820000Y-30480000D03*
X83820000Y-27940000D03*
X83820000Y-25400000D03*
X83820000Y-22860000D03*
X83820000Y-20320000D03*
X83820000Y-17780000D03*
X83820000Y-15240000D03*
%TD*%
D13*
%TO.C,C2*%
X50480000Y-43180000D03*
X51120000Y-43180000D03*
%TD*%
D14*
%TO.C,RV1*%
X41030000Y-56635000D03*
X43180000Y-65285000D03*
X45330000Y-56635000D03*
%TD*%
D15*
%TO.C,R14*%
X71095000Y-38100000D03*
X70455000Y-38100000D03*
%TD*%
D11*
%TO.C,U3*%
X30480000Y-27940000D03*
D12*
X30480000Y-30480000D03*
X30480000Y-33020000D03*
X30480000Y-35560000D03*
X30480000Y-38100000D03*
X30480000Y-40640000D03*
X30480000Y-43180000D03*
X38100000Y-43180000D03*
X38100000Y-40640000D03*
X38100000Y-38100000D03*
X38100000Y-35560000D03*
X38100000Y-33020000D03*
X38100000Y-30480000D03*
X38100000Y-27940000D03*
%TD*%
D15*
%TO.C,R12*%
X63500000Y-53340000D03*
X62860000Y-53340000D03*
%TD*%
D11*
%TO.C,U4*%
X45720000Y-17780000D03*
D12*
X45720000Y-20320000D03*
X45720000Y-22860000D03*
X45720000Y-25400000D03*
X45720000Y-27940000D03*
X45720000Y-30480000D03*
X45720000Y-33020000D03*
X53340000Y-33020000D03*
X53340000Y-30480000D03*
X53340000Y-27940000D03*
X53340000Y-25400000D03*
X53340000Y-22860000D03*
X53340000Y-20320000D03*
X53340000Y-17780000D03*
%TD*%
D11*
%TO.C,U2*%
X15240000Y-17780000D03*
D16*
X15240000Y-20320000D03*
X15240000Y-33020000D03*
X15240000Y-35560000D03*
X22860000Y-35560000D03*
X22860000Y-33020000D03*
X22860000Y-20320000D03*
X22860000Y-17780000D03*
%TD*%
D11*
%TO.C,U6*%
X76200000Y-40640000D03*
D12*
X76200000Y-43180000D03*
X76200000Y-45720000D03*
X76200000Y-48260000D03*
X76200000Y-50800000D03*
X76200000Y-53340000D03*
X76200000Y-55880000D03*
X83820000Y-55880000D03*
X83820000Y-53340000D03*
X83820000Y-50800000D03*
X83820000Y-48260000D03*
X83820000Y-45720000D03*
X83820000Y-43180000D03*
X83820000Y-40640000D03*
%TD*%
D15*
%TO.C,R10*%
X35535000Y-22860000D03*
X34895000Y-22860000D03*
%TD*%
D17*
%TO.C,D2*%
X35700000Y-17780000D03*
X40500000Y-17780000D03*
%TD*%
D13*
%TO.C,C1*%
X55518088Y-56870000D03*
X56158088Y-56870000D03*
%TD*%
D18*
%TO.C,R5*%
X43180000Y-40960000D03*
X43180000Y-40320000D03*
%TD*%
D15*
%TO.C,C3*%
X53315000Y-43180000D03*
X52675000Y-43180000D03*
%TD*%
D19*
%TO.C,D1*%
X63220000Y-43180000D03*
X58420000Y-43180000D03*
%TD*%
D20*
%TO.C,RV2*%
X70365000Y-66430000D03*
X61715000Y-68580000D03*
X70365000Y-70730000D03*
%TD*%
D15*
%TO.C,R11*%
X64140000Y-50800000D03*
X63500000Y-50800000D03*
%TD*%
D18*
%TO.C,R9*%
X58420000Y-38420000D03*
X58420000Y-37780000D03*
%TD*%
%TO.C,R6*%
X45720000Y-40960000D03*
X45720000Y-40320000D03*
%TD*%
D11*
%TO.C,U5*%
X60960000Y-17775000D03*
D12*
X60960000Y-20315000D03*
X60960000Y-22855000D03*
X60960000Y-25395000D03*
X60960000Y-27935000D03*
X60960000Y-30475000D03*
X60960000Y-33015000D03*
X68580000Y-33015000D03*
X68580000Y-30475000D03*
X68580000Y-27935000D03*
X68580000Y-25395000D03*
X68580000Y-22855000D03*
X68580000Y-20315000D03*
X68580000Y-17775000D03*
%TD*%
D15*
%TO.C,R8*%
X60755576Y-51790000D03*
X60115576Y-51790000D03*
%TD*%
%TO.C,R7*%
X64165000Y-48260000D03*
X63525000Y-48260000D03*
%TD*%
M02*
