%TF.GenerationSoftware,KiCad,Pcbnew,7.0.1*%
%TF.CreationDate,2023-04-06T21:37:19+03:00*%
%TF.ProjectId,BSPD,42535044-2e6b-4696-9361-645f70636258,rev?*%
%TF.SameCoordinates,Original*%
%TF.FileFunction,Legend,Top*%
%TF.FilePolarity,Positive*%
%FSLAX46Y46*%
G04 Gerber Fmt 4.6, Leading zero omitted, Abs format (unit mm)*
G04 Created by KiCad (PCBNEW 7.0.1) date 2023-04-06 21:37:19*
%MOMM*%
%LPD*%
G01*
G04 APERTURE LIST*
%ADD10C,0.150000*%
%ADD11C,0.120000*%
G04 APERTURE END LIST*
D10*
%TO.C,TP5*%
X72382619Y-59681904D02*
X72382619Y-59110476D01*
X73382619Y-59396190D02*
X72382619Y-59396190D01*
X73382619Y-58777142D02*
X72382619Y-58777142D01*
X72382619Y-58777142D02*
X72382619Y-58396190D01*
X72382619Y-58396190D02*
X72430238Y-58300952D01*
X72430238Y-58300952D02*
X72477857Y-58253333D01*
X72477857Y-58253333D02*
X72573095Y-58205714D01*
X72573095Y-58205714D02*
X72715952Y-58205714D01*
X72715952Y-58205714D02*
X72811190Y-58253333D01*
X72811190Y-58253333D02*
X72858809Y-58300952D01*
X72858809Y-58300952D02*
X72906428Y-58396190D01*
X72906428Y-58396190D02*
X72906428Y-58777142D01*
X72382619Y-57300952D02*
X72382619Y-57777142D01*
X72382619Y-57777142D02*
X72858809Y-57824761D01*
X72858809Y-57824761D02*
X72811190Y-57777142D01*
X72811190Y-57777142D02*
X72763571Y-57681904D01*
X72763571Y-57681904D02*
X72763571Y-57443809D01*
X72763571Y-57443809D02*
X72811190Y-57348571D01*
X72811190Y-57348571D02*
X72858809Y-57300952D01*
X72858809Y-57300952D02*
X72954047Y-57253333D01*
X72954047Y-57253333D02*
X73192142Y-57253333D01*
X73192142Y-57253333D02*
X73287380Y-57300952D01*
X73287380Y-57300952D02*
X73335000Y-57348571D01*
X73335000Y-57348571D02*
X73382619Y-57443809D01*
X73382619Y-57443809D02*
X73382619Y-57681904D01*
X73382619Y-57681904D02*
X73335000Y-57777142D01*
X73335000Y-57777142D02*
X73287380Y-57824761D01*
%TO.C,TP4*%
X58622619Y-62221904D02*
X58622619Y-61650476D01*
X59622619Y-61936190D02*
X58622619Y-61936190D01*
X59622619Y-61317142D02*
X58622619Y-61317142D01*
X58622619Y-61317142D02*
X58622619Y-60936190D01*
X58622619Y-60936190D02*
X58670238Y-60840952D01*
X58670238Y-60840952D02*
X58717857Y-60793333D01*
X58717857Y-60793333D02*
X58813095Y-60745714D01*
X58813095Y-60745714D02*
X58955952Y-60745714D01*
X58955952Y-60745714D02*
X59051190Y-60793333D01*
X59051190Y-60793333D02*
X59098809Y-60840952D01*
X59098809Y-60840952D02*
X59146428Y-60936190D01*
X59146428Y-60936190D02*
X59146428Y-61317142D01*
X58955952Y-59888571D02*
X59622619Y-59888571D01*
X58575000Y-60126666D02*
X59289285Y-60364761D01*
X59289285Y-60364761D02*
X59289285Y-59745714D01*
%TO.C,TP3*%
X12902619Y-46981904D02*
X12902619Y-46410476D01*
X13902619Y-46696190D02*
X12902619Y-46696190D01*
X13902619Y-46077142D02*
X12902619Y-46077142D01*
X12902619Y-46077142D02*
X12902619Y-45696190D01*
X12902619Y-45696190D02*
X12950238Y-45600952D01*
X12950238Y-45600952D02*
X12997857Y-45553333D01*
X12997857Y-45553333D02*
X13093095Y-45505714D01*
X13093095Y-45505714D02*
X13235952Y-45505714D01*
X13235952Y-45505714D02*
X13331190Y-45553333D01*
X13331190Y-45553333D02*
X13378809Y-45600952D01*
X13378809Y-45600952D02*
X13426428Y-45696190D01*
X13426428Y-45696190D02*
X13426428Y-46077142D01*
X12902619Y-45172380D02*
X12902619Y-44553333D01*
X12902619Y-44553333D02*
X13283571Y-44886666D01*
X13283571Y-44886666D02*
X13283571Y-44743809D01*
X13283571Y-44743809D02*
X13331190Y-44648571D01*
X13331190Y-44648571D02*
X13378809Y-44600952D01*
X13378809Y-44600952D02*
X13474047Y-44553333D01*
X13474047Y-44553333D02*
X13712142Y-44553333D01*
X13712142Y-44553333D02*
X13807380Y-44600952D01*
X13807380Y-44600952D02*
X13855000Y-44648571D01*
X13855000Y-44648571D02*
X13902619Y-44743809D01*
X13902619Y-44743809D02*
X13902619Y-45029523D01*
X13902619Y-45029523D02*
X13855000Y-45124761D01*
X13855000Y-45124761D02*
X13807380Y-45172380D01*
%TO.C,TP2*%
X66242619Y-49521904D02*
X66242619Y-48950476D01*
X67242619Y-49236190D02*
X66242619Y-49236190D01*
X67242619Y-48617142D02*
X66242619Y-48617142D01*
X66242619Y-48617142D02*
X66242619Y-48236190D01*
X66242619Y-48236190D02*
X66290238Y-48140952D01*
X66290238Y-48140952D02*
X66337857Y-48093333D01*
X66337857Y-48093333D02*
X66433095Y-48045714D01*
X66433095Y-48045714D02*
X66575952Y-48045714D01*
X66575952Y-48045714D02*
X66671190Y-48093333D01*
X66671190Y-48093333D02*
X66718809Y-48140952D01*
X66718809Y-48140952D02*
X66766428Y-48236190D01*
X66766428Y-48236190D02*
X66766428Y-48617142D01*
X66337857Y-47664761D02*
X66290238Y-47617142D01*
X66290238Y-47617142D02*
X66242619Y-47521904D01*
X66242619Y-47521904D02*
X66242619Y-47283809D01*
X66242619Y-47283809D02*
X66290238Y-47188571D01*
X66290238Y-47188571D02*
X66337857Y-47140952D01*
X66337857Y-47140952D02*
X66433095Y-47093333D01*
X66433095Y-47093333D02*
X66528333Y-47093333D01*
X66528333Y-47093333D02*
X66671190Y-47140952D01*
X66671190Y-47140952D02*
X67242619Y-47712380D01*
X67242619Y-47712380D02*
X67242619Y-47093333D01*
%TO.C,TP1*%
X12902619Y-41901904D02*
X12902619Y-41330476D01*
X13902619Y-41616190D02*
X12902619Y-41616190D01*
X13902619Y-40997142D02*
X12902619Y-40997142D01*
X12902619Y-40997142D02*
X12902619Y-40616190D01*
X12902619Y-40616190D02*
X12950238Y-40520952D01*
X12950238Y-40520952D02*
X12997857Y-40473333D01*
X12997857Y-40473333D02*
X13093095Y-40425714D01*
X13093095Y-40425714D02*
X13235952Y-40425714D01*
X13235952Y-40425714D02*
X13331190Y-40473333D01*
X13331190Y-40473333D02*
X13378809Y-40520952D01*
X13378809Y-40520952D02*
X13426428Y-40616190D01*
X13426428Y-40616190D02*
X13426428Y-40997142D01*
X13902619Y-39473333D02*
X13902619Y-40044761D01*
X13902619Y-39759047D02*
X12902619Y-39759047D01*
X12902619Y-39759047D02*
X13045476Y-39854285D01*
X13045476Y-39854285D02*
X13140714Y-39949523D01*
X13140714Y-39949523D02*
X13188333Y-40044761D01*
%TO.C,U1*%
X79248095Y-12372619D02*
X79248095Y-13182142D01*
X79248095Y-13182142D02*
X79295714Y-13277380D01*
X79295714Y-13277380D02*
X79343333Y-13325000D01*
X79343333Y-13325000D02*
X79438571Y-13372619D01*
X79438571Y-13372619D02*
X79629047Y-13372619D01*
X79629047Y-13372619D02*
X79724285Y-13325000D01*
X79724285Y-13325000D02*
X79771904Y-13277380D01*
X79771904Y-13277380D02*
X79819523Y-13182142D01*
X79819523Y-13182142D02*
X79819523Y-12372619D01*
X80819523Y-13372619D02*
X80248095Y-13372619D01*
X80533809Y-13372619D02*
X80533809Y-12372619D01*
X80533809Y-12372619D02*
X80438571Y-12515476D01*
X80438571Y-12515476D02*
X80343333Y-12610714D01*
X80343333Y-12610714D02*
X80248095Y-12658333D01*
%TO.C,C2*%
X50633333Y-42497380D02*
X50585714Y-42545000D01*
X50585714Y-42545000D02*
X50442857Y-42592619D01*
X50442857Y-42592619D02*
X50347619Y-42592619D01*
X50347619Y-42592619D02*
X50204762Y-42545000D01*
X50204762Y-42545000D02*
X50109524Y-42449761D01*
X50109524Y-42449761D02*
X50061905Y-42354523D01*
X50061905Y-42354523D02*
X50014286Y-42164047D01*
X50014286Y-42164047D02*
X50014286Y-42021190D01*
X50014286Y-42021190D02*
X50061905Y-41830714D01*
X50061905Y-41830714D02*
X50109524Y-41735476D01*
X50109524Y-41735476D02*
X50204762Y-41640238D01*
X50204762Y-41640238D02*
X50347619Y-41592619D01*
X50347619Y-41592619D02*
X50442857Y-41592619D01*
X50442857Y-41592619D02*
X50585714Y-41640238D01*
X50585714Y-41640238D02*
X50633333Y-41687857D01*
X51014286Y-41687857D02*
X51061905Y-41640238D01*
X51061905Y-41640238D02*
X51157143Y-41592619D01*
X51157143Y-41592619D02*
X51395238Y-41592619D01*
X51395238Y-41592619D02*
X51490476Y-41640238D01*
X51490476Y-41640238D02*
X51538095Y-41687857D01*
X51538095Y-41687857D02*
X51585714Y-41783095D01*
X51585714Y-41783095D02*
X51585714Y-41878333D01*
X51585714Y-41878333D02*
X51538095Y-42021190D01*
X51538095Y-42021190D02*
X50966667Y-42592619D01*
X50966667Y-42592619D02*
X51585714Y-42592619D01*
%TO.C,RV1*%
X48142619Y-61555238D02*
X47666428Y-61888571D01*
X48142619Y-62126666D02*
X47142619Y-62126666D01*
X47142619Y-62126666D02*
X47142619Y-61745714D01*
X47142619Y-61745714D02*
X47190238Y-61650476D01*
X47190238Y-61650476D02*
X47237857Y-61602857D01*
X47237857Y-61602857D02*
X47333095Y-61555238D01*
X47333095Y-61555238D02*
X47475952Y-61555238D01*
X47475952Y-61555238D02*
X47571190Y-61602857D01*
X47571190Y-61602857D02*
X47618809Y-61650476D01*
X47618809Y-61650476D02*
X47666428Y-61745714D01*
X47666428Y-61745714D02*
X47666428Y-62126666D01*
X47142619Y-61269523D02*
X48142619Y-60936190D01*
X48142619Y-60936190D02*
X47142619Y-60602857D01*
X48142619Y-59745714D02*
X48142619Y-60317142D01*
X48142619Y-60031428D02*
X47142619Y-60031428D01*
X47142619Y-60031428D02*
X47285476Y-60126666D01*
X47285476Y-60126666D02*
X47380714Y-60221904D01*
X47380714Y-60221904D02*
X47428333Y-60317142D01*
%TO.C,R14*%
X70132142Y-39612619D02*
X69798809Y-39136428D01*
X69560714Y-39612619D02*
X69560714Y-38612619D01*
X69560714Y-38612619D02*
X69941666Y-38612619D01*
X69941666Y-38612619D02*
X70036904Y-38660238D01*
X70036904Y-38660238D02*
X70084523Y-38707857D01*
X70084523Y-38707857D02*
X70132142Y-38803095D01*
X70132142Y-38803095D02*
X70132142Y-38945952D01*
X70132142Y-38945952D02*
X70084523Y-39041190D01*
X70084523Y-39041190D02*
X70036904Y-39088809D01*
X70036904Y-39088809D02*
X69941666Y-39136428D01*
X69941666Y-39136428D02*
X69560714Y-39136428D01*
X71084523Y-39612619D02*
X70513095Y-39612619D01*
X70798809Y-39612619D02*
X70798809Y-38612619D01*
X70798809Y-38612619D02*
X70703571Y-38755476D01*
X70703571Y-38755476D02*
X70608333Y-38850714D01*
X70608333Y-38850714D02*
X70513095Y-38898333D01*
X71941666Y-38945952D02*
X71941666Y-39612619D01*
X71703571Y-38565000D02*
X71465476Y-39279285D01*
X71465476Y-39279285D02*
X72084523Y-39279285D01*
%TO.C,U3*%
X33528095Y-25072619D02*
X33528095Y-25882142D01*
X33528095Y-25882142D02*
X33575714Y-25977380D01*
X33575714Y-25977380D02*
X33623333Y-26025000D01*
X33623333Y-26025000D02*
X33718571Y-26072619D01*
X33718571Y-26072619D02*
X33909047Y-26072619D01*
X33909047Y-26072619D02*
X34004285Y-26025000D01*
X34004285Y-26025000D02*
X34051904Y-25977380D01*
X34051904Y-25977380D02*
X34099523Y-25882142D01*
X34099523Y-25882142D02*
X34099523Y-25072619D01*
X34480476Y-25072619D02*
X35099523Y-25072619D01*
X35099523Y-25072619D02*
X34766190Y-25453571D01*
X34766190Y-25453571D02*
X34909047Y-25453571D01*
X34909047Y-25453571D02*
X35004285Y-25501190D01*
X35004285Y-25501190D02*
X35051904Y-25548809D01*
X35051904Y-25548809D02*
X35099523Y-25644047D01*
X35099523Y-25644047D02*
X35099523Y-25882142D01*
X35099523Y-25882142D02*
X35051904Y-25977380D01*
X35051904Y-25977380D02*
X35004285Y-26025000D01*
X35004285Y-26025000D02*
X34909047Y-26072619D01*
X34909047Y-26072619D02*
X34623333Y-26072619D01*
X34623333Y-26072619D02*
X34528095Y-26025000D01*
X34528095Y-26025000D02*
X34480476Y-25977380D01*
%TO.C,R12*%
X62537142Y-54852619D02*
X62203809Y-54376428D01*
X61965714Y-54852619D02*
X61965714Y-53852619D01*
X61965714Y-53852619D02*
X62346666Y-53852619D01*
X62346666Y-53852619D02*
X62441904Y-53900238D01*
X62441904Y-53900238D02*
X62489523Y-53947857D01*
X62489523Y-53947857D02*
X62537142Y-54043095D01*
X62537142Y-54043095D02*
X62537142Y-54185952D01*
X62537142Y-54185952D02*
X62489523Y-54281190D01*
X62489523Y-54281190D02*
X62441904Y-54328809D01*
X62441904Y-54328809D02*
X62346666Y-54376428D01*
X62346666Y-54376428D02*
X61965714Y-54376428D01*
X63489523Y-54852619D02*
X62918095Y-54852619D01*
X63203809Y-54852619D02*
X63203809Y-53852619D01*
X63203809Y-53852619D02*
X63108571Y-53995476D01*
X63108571Y-53995476D02*
X63013333Y-54090714D01*
X63013333Y-54090714D02*
X62918095Y-54138333D01*
X63870476Y-53947857D02*
X63918095Y-53900238D01*
X63918095Y-53900238D02*
X64013333Y-53852619D01*
X64013333Y-53852619D02*
X64251428Y-53852619D01*
X64251428Y-53852619D02*
X64346666Y-53900238D01*
X64346666Y-53900238D02*
X64394285Y-53947857D01*
X64394285Y-53947857D02*
X64441904Y-54043095D01*
X64441904Y-54043095D02*
X64441904Y-54138333D01*
X64441904Y-54138333D02*
X64394285Y-54281190D01*
X64394285Y-54281190D02*
X63822857Y-54852619D01*
X63822857Y-54852619D02*
X64441904Y-54852619D01*
%TO.C,U4*%
X48768095Y-14912619D02*
X48768095Y-15722142D01*
X48768095Y-15722142D02*
X48815714Y-15817380D01*
X48815714Y-15817380D02*
X48863333Y-15865000D01*
X48863333Y-15865000D02*
X48958571Y-15912619D01*
X48958571Y-15912619D02*
X49149047Y-15912619D01*
X49149047Y-15912619D02*
X49244285Y-15865000D01*
X49244285Y-15865000D02*
X49291904Y-15817380D01*
X49291904Y-15817380D02*
X49339523Y-15722142D01*
X49339523Y-15722142D02*
X49339523Y-14912619D01*
X50244285Y-15245952D02*
X50244285Y-15912619D01*
X50006190Y-14865000D02*
X49768095Y-15579285D01*
X49768095Y-15579285D02*
X50387142Y-15579285D01*
%TO.C,U2*%
X18288095Y-14912619D02*
X18288095Y-15722142D01*
X18288095Y-15722142D02*
X18335714Y-15817380D01*
X18335714Y-15817380D02*
X18383333Y-15865000D01*
X18383333Y-15865000D02*
X18478571Y-15912619D01*
X18478571Y-15912619D02*
X18669047Y-15912619D01*
X18669047Y-15912619D02*
X18764285Y-15865000D01*
X18764285Y-15865000D02*
X18811904Y-15817380D01*
X18811904Y-15817380D02*
X18859523Y-15722142D01*
X18859523Y-15722142D02*
X18859523Y-14912619D01*
X19288095Y-15007857D02*
X19335714Y-14960238D01*
X19335714Y-14960238D02*
X19430952Y-14912619D01*
X19430952Y-14912619D02*
X19669047Y-14912619D01*
X19669047Y-14912619D02*
X19764285Y-14960238D01*
X19764285Y-14960238D02*
X19811904Y-15007857D01*
X19811904Y-15007857D02*
X19859523Y-15103095D01*
X19859523Y-15103095D02*
X19859523Y-15198333D01*
X19859523Y-15198333D02*
X19811904Y-15341190D01*
X19811904Y-15341190D02*
X19240476Y-15912619D01*
X19240476Y-15912619D02*
X19859523Y-15912619D01*
%TO.C,U6*%
X79248095Y-37772619D02*
X79248095Y-38582142D01*
X79248095Y-38582142D02*
X79295714Y-38677380D01*
X79295714Y-38677380D02*
X79343333Y-38725000D01*
X79343333Y-38725000D02*
X79438571Y-38772619D01*
X79438571Y-38772619D02*
X79629047Y-38772619D01*
X79629047Y-38772619D02*
X79724285Y-38725000D01*
X79724285Y-38725000D02*
X79771904Y-38677380D01*
X79771904Y-38677380D02*
X79819523Y-38582142D01*
X79819523Y-38582142D02*
X79819523Y-37772619D01*
X80724285Y-37772619D02*
X80533809Y-37772619D01*
X80533809Y-37772619D02*
X80438571Y-37820238D01*
X80438571Y-37820238D02*
X80390952Y-37867857D01*
X80390952Y-37867857D02*
X80295714Y-38010714D01*
X80295714Y-38010714D02*
X80248095Y-38201190D01*
X80248095Y-38201190D02*
X80248095Y-38582142D01*
X80248095Y-38582142D02*
X80295714Y-38677380D01*
X80295714Y-38677380D02*
X80343333Y-38725000D01*
X80343333Y-38725000D02*
X80438571Y-38772619D01*
X80438571Y-38772619D02*
X80629047Y-38772619D01*
X80629047Y-38772619D02*
X80724285Y-38725000D01*
X80724285Y-38725000D02*
X80771904Y-38677380D01*
X80771904Y-38677380D02*
X80819523Y-38582142D01*
X80819523Y-38582142D02*
X80819523Y-38344047D01*
X80819523Y-38344047D02*
X80771904Y-38248809D01*
X80771904Y-38248809D02*
X80724285Y-38201190D01*
X80724285Y-38201190D02*
X80629047Y-38153571D01*
X80629047Y-38153571D02*
X80438571Y-38153571D01*
X80438571Y-38153571D02*
X80343333Y-38201190D01*
X80343333Y-38201190D02*
X80295714Y-38248809D01*
X80295714Y-38248809D02*
X80248095Y-38344047D01*
%TO.C,R10*%
X34572142Y-24372619D02*
X34238809Y-23896428D01*
X34000714Y-24372619D02*
X34000714Y-23372619D01*
X34000714Y-23372619D02*
X34381666Y-23372619D01*
X34381666Y-23372619D02*
X34476904Y-23420238D01*
X34476904Y-23420238D02*
X34524523Y-23467857D01*
X34524523Y-23467857D02*
X34572142Y-23563095D01*
X34572142Y-23563095D02*
X34572142Y-23705952D01*
X34572142Y-23705952D02*
X34524523Y-23801190D01*
X34524523Y-23801190D02*
X34476904Y-23848809D01*
X34476904Y-23848809D02*
X34381666Y-23896428D01*
X34381666Y-23896428D02*
X34000714Y-23896428D01*
X35524523Y-24372619D02*
X34953095Y-24372619D01*
X35238809Y-24372619D02*
X35238809Y-23372619D01*
X35238809Y-23372619D02*
X35143571Y-23515476D01*
X35143571Y-23515476D02*
X35048333Y-23610714D01*
X35048333Y-23610714D02*
X34953095Y-23658333D01*
X36143571Y-23372619D02*
X36238809Y-23372619D01*
X36238809Y-23372619D02*
X36334047Y-23420238D01*
X36334047Y-23420238D02*
X36381666Y-23467857D01*
X36381666Y-23467857D02*
X36429285Y-23563095D01*
X36429285Y-23563095D02*
X36476904Y-23753571D01*
X36476904Y-23753571D02*
X36476904Y-23991666D01*
X36476904Y-23991666D02*
X36429285Y-24182142D01*
X36429285Y-24182142D02*
X36381666Y-24277380D01*
X36381666Y-24277380D02*
X36334047Y-24325000D01*
X36334047Y-24325000D02*
X36238809Y-24372619D01*
X36238809Y-24372619D02*
X36143571Y-24372619D01*
X36143571Y-24372619D02*
X36048333Y-24325000D01*
X36048333Y-24325000D02*
X36000714Y-24277380D01*
X36000714Y-24277380D02*
X35953095Y-24182142D01*
X35953095Y-24182142D02*
X35905476Y-23991666D01*
X35905476Y-23991666D02*
X35905476Y-23753571D01*
X35905476Y-23753571D02*
X35953095Y-23563095D01*
X35953095Y-23563095D02*
X36000714Y-23467857D01*
X36000714Y-23467857D02*
X36048333Y-23420238D01*
X36048333Y-23420238D02*
X36143571Y-23372619D01*
%TO.C,D2*%
X37361905Y-15742619D02*
X37361905Y-14742619D01*
X37361905Y-14742619D02*
X37600000Y-14742619D01*
X37600000Y-14742619D02*
X37742857Y-14790238D01*
X37742857Y-14790238D02*
X37838095Y-14885476D01*
X37838095Y-14885476D02*
X37885714Y-14980714D01*
X37885714Y-14980714D02*
X37933333Y-15171190D01*
X37933333Y-15171190D02*
X37933333Y-15314047D01*
X37933333Y-15314047D02*
X37885714Y-15504523D01*
X37885714Y-15504523D02*
X37838095Y-15599761D01*
X37838095Y-15599761D02*
X37742857Y-15695000D01*
X37742857Y-15695000D02*
X37600000Y-15742619D01*
X37600000Y-15742619D02*
X37361905Y-15742619D01*
X38314286Y-14837857D02*
X38361905Y-14790238D01*
X38361905Y-14790238D02*
X38457143Y-14742619D01*
X38457143Y-14742619D02*
X38695238Y-14742619D01*
X38695238Y-14742619D02*
X38790476Y-14790238D01*
X38790476Y-14790238D02*
X38838095Y-14837857D01*
X38838095Y-14837857D02*
X38885714Y-14933095D01*
X38885714Y-14933095D02*
X38885714Y-15028333D01*
X38885714Y-15028333D02*
X38838095Y-15171190D01*
X38838095Y-15171190D02*
X38266667Y-15742619D01*
X38266667Y-15742619D02*
X38885714Y-15742619D01*
%TO.C,C1*%
X55671421Y-56187380D02*
X55623802Y-56235000D01*
X55623802Y-56235000D02*
X55480945Y-56282619D01*
X55480945Y-56282619D02*
X55385707Y-56282619D01*
X55385707Y-56282619D02*
X55242850Y-56235000D01*
X55242850Y-56235000D02*
X55147612Y-56139761D01*
X55147612Y-56139761D02*
X55099993Y-56044523D01*
X55099993Y-56044523D02*
X55052374Y-55854047D01*
X55052374Y-55854047D02*
X55052374Y-55711190D01*
X55052374Y-55711190D02*
X55099993Y-55520714D01*
X55099993Y-55520714D02*
X55147612Y-55425476D01*
X55147612Y-55425476D02*
X55242850Y-55330238D01*
X55242850Y-55330238D02*
X55385707Y-55282619D01*
X55385707Y-55282619D02*
X55480945Y-55282619D01*
X55480945Y-55282619D02*
X55623802Y-55330238D01*
X55623802Y-55330238D02*
X55671421Y-55377857D01*
X56623802Y-56282619D02*
X56052374Y-56282619D01*
X56338088Y-56282619D02*
X56338088Y-55282619D01*
X56338088Y-55282619D02*
X56242850Y-55425476D01*
X56242850Y-55425476D02*
X56147612Y-55520714D01*
X56147612Y-55520714D02*
X56052374Y-55568333D01*
%TO.C,R5*%
X42592619Y-40806666D02*
X42116428Y-41139999D01*
X42592619Y-41378094D02*
X41592619Y-41378094D01*
X41592619Y-41378094D02*
X41592619Y-40997142D01*
X41592619Y-40997142D02*
X41640238Y-40901904D01*
X41640238Y-40901904D02*
X41687857Y-40854285D01*
X41687857Y-40854285D02*
X41783095Y-40806666D01*
X41783095Y-40806666D02*
X41925952Y-40806666D01*
X41925952Y-40806666D02*
X42021190Y-40854285D01*
X42021190Y-40854285D02*
X42068809Y-40901904D01*
X42068809Y-40901904D02*
X42116428Y-40997142D01*
X42116428Y-40997142D02*
X42116428Y-41378094D01*
X41592619Y-39901904D02*
X41592619Y-40378094D01*
X41592619Y-40378094D02*
X42068809Y-40425713D01*
X42068809Y-40425713D02*
X42021190Y-40378094D01*
X42021190Y-40378094D02*
X41973571Y-40282856D01*
X41973571Y-40282856D02*
X41973571Y-40044761D01*
X41973571Y-40044761D02*
X42021190Y-39949523D01*
X42021190Y-39949523D02*
X42068809Y-39901904D01*
X42068809Y-39901904D02*
X42164047Y-39854285D01*
X42164047Y-39854285D02*
X42402142Y-39854285D01*
X42402142Y-39854285D02*
X42497380Y-39901904D01*
X42497380Y-39901904D02*
X42545000Y-39949523D01*
X42545000Y-39949523D02*
X42592619Y-40044761D01*
X42592619Y-40044761D02*
X42592619Y-40282856D01*
X42592619Y-40282856D02*
X42545000Y-40378094D01*
X42545000Y-40378094D02*
X42497380Y-40425713D01*
%TO.C,C3*%
X52828333Y-44597380D02*
X52780714Y-44645000D01*
X52780714Y-44645000D02*
X52637857Y-44692619D01*
X52637857Y-44692619D02*
X52542619Y-44692619D01*
X52542619Y-44692619D02*
X52399762Y-44645000D01*
X52399762Y-44645000D02*
X52304524Y-44549761D01*
X52304524Y-44549761D02*
X52256905Y-44454523D01*
X52256905Y-44454523D02*
X52209286Y-44264047D01*
X52209286Y-44264047D02*
X52209286Y-44121190D01*
X52209286Y-44121190D02*
X52256905Y-43930714D01*
X52256905Y-43930714D02*
X52304524Y-43835476D01*
X52304524Y-43835476D02*
X52399762Y-43740238D01*
X52399762Y-43740238D02*
X52542619Y-43692619D01*
X52542619Y-43692619D02*
X52637857Y-43692619D01*
X52637857Y-43692619D02*
X52780714Y-43740238D01*
X52780714Y-43740238D02*
X52828333Y-43787857D01*
X53161667Y-43692619D02*
X53780714Y-43692619D01*
X53780714Y-43692619D02*
X53447381Y-44073571D01*
X53447381Y-44073571D02*
X53590238Y-44073571D01*
X53590238Y-44073571D02*
X53685476Y-44121190D01*
X53685476Y-44121190D02*
X53733095Y-44168809D01*
X53733095Y-44168809D02*
X53780714Y-44264047D01*
X53780714Y-44264047D02*
X53780714Y-44502142D01*
X53780714Y-44502142D02*
X53733095Y-44597380D01*
X53733095Y-44597380D02*
X53685476Y-44645000D01*
X53685476Y-44645000D02*
X53590238Y-44692619D01*
X53590238Y-44692619D02*
X53304524Y-44692619D01*
X53304524Y-44692619D02*
X53209286Y-44645000D01*
X53209286Y-44645000D02*
X53161667Y-44597380D01*
%TO.C,D1*%
X60081905Y-46142619D02*
X60081905Y-45142619D01*
X60081905Y-45142619D02*
X60320000Y-45142619D01*
X60320000Y-45142619D02*
X60462857Y-45190238D01*
X60462857Y-45190238D02*
X60558095Y-45285476D01*
X60558095Y-45285476D02*
X60605714Y-45380714D01*
X60605714Y-45380714D02*
X60653333Y-45571190D01*
X60653333Y-45571190D02*
X60653333Y-45714047D01*
X60653333Y-45714047D02*
X60605714Y-45904523D01*
X60605714Y-45904523D02*
X60558095Y-45999761D01*
X60558095Y-45999761D02*
X60462857Y-46095000D01*
X60462857Y-46095000D02*
X60320000Y-46142619D01*
X60320000Y-46142619D02*
X60081905Y-46142619D01*
X61605714Y-46142619D02*
X61034286Y-46142619D01*
X61320000Y-46142619D02*
X61320000Y-45142619D01*
X61320000Y-45142619D02*
X61224762Y-45285476D01*
X61224762Y-45285476D02*
X61129524Y-45380714D01*
X61129524Y-45380714D02*
X61034286Y-45428333D01*
%TO.C,RV2*%
X65444761Y-73542619D02*
X65111428Y-73066428D01*
X64873333Y-73542619D02*
X64873333Y-72542619D01*
X64873333Y-72542619D02*
X65254285Y-72542619D01*
X65254285Y-72542619D02*
X65349523Y-72590238D01*
X65349523Y-72590238D02*
X65397142Y-72637857D01*
X65397142Y-72637857D02*
X65444761Y-72733095D01*
X65444761Y-72733095D02*
X65444761Y-72875952D01*
X65444761Y-72875952D02*
X65397142Y-72971190D01*
X65397142Y-72971190D02*
X65349523Y-73018809D01*
X65349523Y-73018809D02*
X65254285Y-73066428D01*
X65254285Y-73066428D02*
X64873333Y-73066428D01*
X65730476Y-72542619D02*
X66063809Y-73542619D01*
X66063809Y-73542619D02*
X66397142Y-72542619D01*
X66682857Y-72637857D02*
X66730476Y-72590238D01*
X66730476Y-72590238D02*
X66825714Y-72542619D01*
X66825714Y-72542619D02*
X67063809Y-72542619D01*
X67063809Y-72542619D02*
X67159047Y-72590238D01*
X67159047Y-72590238D02*
X67206666Y-72637857D01*
X67206666Y-72637857D02*
X67254285Y-72733095D01*
X67254285Y-72733095D02*
X67254285Y-72828333D01*
X67254285Y-72828333D02*
X67206666Y-72971190D01*
X67206666Y-72971190D02*
X66635238Y-73542619D01*
X66635238Y-73542619D02*
X67254285Y-73542619D01*
%TO.C,R11*%
X63177142Y-52312619D02*
X62843809Y-51836428D01*
X62605714Y-52312619D02*
X62605714Y-51312619D01*
X62605714Y-51312619D02*
X62986666Y-51312619D01*
X62986666Y-51312619D02*
X63081904Y-51360238D01*
X63081904Y-51360238D02*
X63129523Y-51407857D01*
X63129523Y-51407857D02*
X63177142Y-51503095D01*
X63177142Y-51503095D02*
X63177142Y-51645952D01*
X63177142Y-51645952D02*
X63129523Y-51741190D01*
X63129523Y-51741190D02*
X63081904Y-51788809D01*
X63081904Y-51788809D02*
X62986666Y-51836428D01*
X62986666Y-51836428D02*
X62605714Y-51836428D01*
X64129523Y-52312619D02*
X63558095Y-52312619D01*
X63843809Y-52312619D02*
X63843809Y-51312619D01*
X63843809Y-51312619D02*
X63748571Y-51455476D01*
X63748571Y-51455476D02*
X63653333Y-51550714D01*
X63653333Y-51550714D02*
X63558095Y-51598333D01*
X65081904Y-52312619D02*
X64510476Y-52312619D01*
X64796190Y-52312619D02*
X64796190Y-51312619D01*
X64796190Y-51312619D02*
X64700952Y-51455476D01*
X64700952Y-51455476D02*
X64605714Y-51550714D01*
X64605714Y-51550714D02*
X64510476Y-51598333D01*
%TO.C,R9*%
X57832619Y-38266666D02*
X57356428Y-38599999D01*
X57832619Y-38838094D02*
X56832619Y-38838094D01*
X56832619Y-38838094D02*
X56832619Y-38457142D01*
X56832619Y-38457142D02*
X56880238Y-38361904D01*
X56880238Y-38361904D02*
X56927857Y-38314285D01*
X56927857Y-38314285D02*
X57023095Y-38266666D01*
X57023095Y-38266666D02*
X57165952Y-38266666D01*
X57165952Y-38266666D02*
X57261190Y-38314285D01*
X57261190Y-38314285D02*
X57308809Y-38361904D01*
X57308809Y-38361904D02*
X57356428Y-38457142D01*
X57356428Y-38457142D02*
X57356428Y-38838094D01*
X57832619Y-37790475D02*
X57832619Y-37599999D01*
X57832619Y-37599999D02*
X57785000Y-37504761D01*
X57785000Y-37504761D02*
X57737380Y-37457142D01*
X57737380Y-37457142D02*
X57594523Y-37361904D01*
X57594523Y-37361904D02*
X57404047Y-37314285D01*
X57404047Y-37314285D02*
X57023095Y-37314285D01*
X57023095Y-37314285D02*
X56927857Y-37361904D01*
X56927857Y-37361904D02*
X56880238Y-37409523D01*
X56880238Y-37409523D02*
X56832619Y-37504761D01*
X56832619Y-37504761D02*
X56832619Y-37695237D01*
X56832619Y-37695237D02*
X56880238Y-37790475D01*
X56880238Y-37790475D02*
X56927857Y-37838094D01*
X56927857Y-37838094D02*
X57023095Y-37885713D01*
X57023095Y-37885713D02*
X57261190Y-37885713D01*
X57261190Y-37885713D02*
X57356428Y-37838094D01*
X57356428Y-37838094D02*
X57404047Y-37790475D01*
X57404047Y-37790475D02*
X57451666Y-37695237D01*
X57451666Y-37695237D02*
X57451666Y-37504761D01*
X57451666Y-37504761D02*
X57404047Y-37409523D01*
X57404047Y-37409523D02*
X57356428Y-37361904D01*
X57356428Y-37361904D02*
X57261190Y-37314285D01*
%TO.C,R6*%
X45132619Y-40806666D02*
X44656428Y-41139999D01*
X45132619Y-41378094D02*
X44132619Y-41378094D01*
X44132619Y-41378094D02*
X44132619Y-40997142D01*
X44132619Y-40997142D02*
X44180238Y-40901904D01*
X44180238Y-40901904D02*
X44227857Y-40854285D01*
X44227857Y-40854285D02*
X44323095Y-40806666D01*
X44323095Y-40806666D02*
X44465952Y-40806666D01*
X44465952Y-40806666D02*
X44561190Y-40854285D01*
X44561190Y-40854285D02*
X44608809Y-40901904D01*
X44608809Y-40901904D02*
X44656428Y-40997142D01*
X44656428Y-40997142D02*
X44656428Y-41378094D01*
X44132619Y-39949523D02*
X44132619Y-40139999D01*
X44132619Y-40139999D02*
X44180238Y-40235237D01*
X44180238Y-40235237D02*
X44227857Y-40282856D01*
X44227857Y-40282856D02*
X44370714Y-40378094D01*
X44370714Y-40378094D02*
X44561190Y-40425713D01*
X44561190Y-40425713D02*
X44942142Y-40425713D01*
X44942142Y-40425713D02*
X45037380Y-40378094D01*
X45037380Y-40378094D02*
X45085000Y-40330475D01*
X45085000Y-40330475D02*
X45132619Y-40235237D01*
X45132619Y-40235237D02*
X45132619Y-40044761D01*
X45132619Y-40044761D02*
X45085000Y-39949523D01*
X45085000Y-39949523D02*
X45037380Y-39901904D01*
X45037380Y-39901904D02*
X44942142Y-39854285D01*
X44942142Y-39854285D02*
X44704047Y-39854285D01*
X44704047Y-39854285D02*
X44608809Y-39901904D01*
X44608809Y-39901904D02*
X44561190Y-39949523D01*
X44561190Y-39949523D02*
X44513571Y-40044761D01*
X44513571Y-40044761D02*
X44513571Y-40235237D01*
X44513571Y-40235237D02*
X44561190Y-40330475D01*
X44561190Y-40330475D02*
X44608809Y-40378094D01*
X44608809Y-40378094D02*
X44704047Y-40425713D01*
%TO.C,U5*%
X64008095Y-14907619D02*
X64008095Y-15717142D01*
X64008095Y-15717142D02*
X64055714Y-15812380D01*
X64055714Y-15812380D02*
X64103333Y-15860000D01*
X64103333Y-15860000D02*
X64198571Y-15907619D01*
X64198571Y-15907619D02*
X64389047Y-15907619D01*
X64389047Y-15907619D02*
X64484285Y-15860000D01*
X64484285Y-15860000D02*
X64531904Y-15812380D01*
X64531904Y-15812380D02*
X64579523Y-15717142D01*
X64579523Y-15717142D02*
X64579523Y-14907619D01*
X65531904Y-14907619D02*
X65055714Y-14907619D01*
X65055714Y-14907619D02*
X65008095Y-15383809D01*
X65008095Y-15383809D02*
X65055714Y-15336190D01*
X65055714Y-15336190D02*
X65150952Y-15288571D01*
X65150952Y-15288571D02*
X65389047Y-15288571D01*
X65389047Y-15288571D02*
X65484285Y-15336190D01*
X65484285Y-15336190D02*
X65531904Y-15383809D01*
X65531904Y-15383809D02*
X65579523Y-15479047D01*
X65579523Y-15479047D02*
X65579523Y-15717142D01*
X65579523Y-15717142D02*
X65531904Y-15812380D01*
X65531904Y-15812380D02*
X65484285Y-15860000D01*
X65484285Y-15860000D02*
X65389047Y-15907619D01*
X65389047Y-15907619D02*
X65150952Y-15907619D01*
X65150952Y-15907619D02*
X65055714Y-15860000D01*
X65055714Y-15860000D02*
X65008095Y-15812380D01*
%TO.C,R8*%
X60268909Y-53302619D02*
X59935576Y-52826428D01*
X59697481Y-53302619D02*
X59697481Y-52302619D01*
X59697481Y-52302619D02*
X60078433Y-52302619D01*
X60078433Y-52302619D02*
X60173671Y-52350238D01*
X60173671Y-52350238D02*
X60221290Y-52397857D01*
X60221290Y-52397857D02*
X60268909Y-52493095D01*
X60268909Y-52493095D02*
X60268909Y-52635952D01*
X60268909Y-52635952D02*
X60221290Y-52731190D01*
X60221290Y-52731190D02*
X60173671Y-52778809D01*
X60173671Y-52778809D02*
X60078433Y-52826428D01*
X60078433Y-52826428D02*
X59697481Y-52826428D01*
X60840338Y-52731190D02*
X60745100Y-52683571D01*
X60745100Y-52683571D02*
X60697481Y-52635952D01*
X60697481Y-52635952D02*
X60649862Y-52540714D01*
X60649862Y-52540714D02*
X60649862Y-52493095D01*
X60649862Y-52493095D02*
X60697481Y-52397857D01*
X60697481Y-52397857D02*
X60745100Y-52350238D01*
X60745100Y-52350238D02*
X60840338Y-52302619D01*
X60840338Y-52302619D02*
X61030814Y-52302619D01*
X61030814Y-52302619D02*
X61126052Y-52350238D01*
X61126052Y-52350238D02*
X61173671Y-52397857D01*
X61173671Y-52397857D02*
X61221290Y-52493095D01*
X61221290Y-52493095D02*
X61221290Y-52540714D01*
X61221290Y-52540714D02*
X61173671Y-52635952D01*
X61173671Y-52635952D02*
X61126052Y-52683571D01*
X61126052Y-52683571D02*
X61030814Y-52731190D01*
X61030814Y-52731190D02*
X60840338Y-52731190D01*
X60840338Y-52731190D02*
X60745100Y-52778809D01*
X60745100Y-52778809D02*
X60697481Y-52826428D01*
X60697481Y-52826428D02*
X60649862Y-52921666D01*
X60649862Y-52921666D02*
X60649862Y-53112142D01*
X60649862Y-53112142D02*
X60697481Y-53207380D01*
X60697481Y-53207380D02*
X60745100Y-53255000D01*
X60745100Y-53255000D02*
X60840338Y-53302619D01*
X60840338Y-53302619D02*
X61030814Y-53302619D01*
X61030814Y-53302619D02*
X61126052Y-53255000D01*
X61126052Y-53255000D02*
X61173671Y-53207380D01*
X61173671Y-53207380D02*
X61221290Y-53112142D01*
X61221290Y-53112142D02*
X61221290Y-52921666D01*
X61221290Y-52921666D02*
X61173671Y-52826428D01*
X61173671Y-52826428D02*
X61126052Y-52778809D01*
X61126052Y-52778809D02*
X61030814Y-52731190D01*
%TO.C,R7*%
X63678333Y-49772619D02*
X63345000Y-49296428D01*
X63106905Y-49772619D02*
X63106905Y-48772619D01*
X63106905Y-48772619D02*
X63487857Y-48772619D01*
X63487857Y-48772619D02*
X63583095Y-48820238D01*
X63583095Y-48820238D02*
X63630714Y-48867857D01*
X63630714Y-48867857D02*
X63678333Y-48963095D01*
X63678333Y-48963095D02*
X63678333Y-49105952D01*
X63678333Y-49105952D02*
X63630714Y-49201190D01*
X63630714Y-49201190D02*
X63583095Y-49248809D01*
X63583095Y-49248809D02*
X63487857Y-49296428D01*
X63487857Y-49296428D02*
X63106905Y-49296428D01*
X64011667Y-48772619D02*
X64678333Y-48772619D01*
X64678333Y-48772619D02*
X64249762Y-49772619D01*
D11*
%TO.C,TP5*%
X70220000Y-57520000D02*
X70170000Y-57520000D01*
X70170000Y-57520000D02*
X70170000Y-59370000D01*
X72070000Y-57520000D02*
X70220000Y-57520000D01*
X72070000Y-59370000D02*
X72070000Y-57520000D01*
X70170000Y-59370000D02*
X72070000Y-59370000D01*
%TO.C,TP4*%
X61860000Y-61860000D02*
X61910000Y-61860000D01*
X61910000Y-61860000D02*
X61910000Y-60010000D01*
X60010000Y-61860000D02*
X61860000Y-61860000D01*
X60010000Y-60010000D02*
X60010000Y-61860000D01*
X61910000Y-60010000D02*
X60010000Y-60010000D01*
%TO.C,TP3*%
X16140000Y-46620000D02*
X16190000Y-46620000D01*
X16190000Y-46620000D02*
X16190000Y-44770000D01*
X14290000Y-46620000D02*
X16140000Y-46620000D01*
X14290000Y-44770000D02*
X14290000Y-46620000D01*
X16190000Y-44770000D02*
X14290000Y-44770000D01*
%TO.C,TP2*%
X69480000Y-49160000D02*
X69530000Y-49160000D01*
X69530000Y-49160000D02*
X69530000Y-47310000D01*
X67630000Y-49160000D02*
X69480000Y-49160000D01*
X67630000Y-47310000D02*
X67630000Y-49160000D01*
X69530000Y-47310000D02*
X67630000Y-47310000D01*
%TO.C,TP1*%
X16140000Y-41540000D02*
X16190000Y-41540000D01*
X16190000Y-41540000D02*
X16190000Y-39690000D01*
X14290000Y-41540000D02*
X16140000Y-41540000D01*
X14290000Y-39690000D02*
X14290000Y-41540000D01*
X16190000Y-39690000D02*
X14290000Y-39690000D01*
%TO.C,U1*%
X74870000Y-13850000D02*
X74870000Y-31870000D01*
X74870000Y-31870000D02*
X85150000Y-31870000D01*
X77360000Y-13910000D02*
X77360000Y-31810000D01*
X77360000Y-31810000D02*
X82660000Y-31810000D01*
X79010000Y-13910000D02*
X77360000Y-13910000D01*
X82660000Y-13910000D02*
X81010000Y-13910000D01*
X82660000Y-31810000D02*
X82660000Y-13910000D01*
X85150000Y-13850000D02*
X74870000Y-13850000D01*
X85150000Y-31870000D02*
X85150000Y-13850000D01*
X79010000Y-13910000D02*
G75*
G03*
X81010000Y-13910000I1000000J0D01*
G01*
%TO.C,RV1*%
X44089000Y-57590000D02*
X42270000Y-57590000D01*
X46551000Y-58126000D02*
X46551000Y-64330000D01*
X39810000Y-58126000D02*
X39810000Y-64330000D01*
X46551000Y-64330000D02*
X44420000Y-64330000D01*
X41940000Y-64330000D02*
X39810000Y-64330000D01*
%TO.C,U3*%
X31640000Y-26610000D02*
X31640000Y-44510000D01*
X31640000Y-44510000D02*
X36940000Y-44510000D01*
X33290000Y-26610000D02*
X31640000Y-26610000D01*
X36940000Y-26610000D02*
X35290000Y-26610000D01*
X36940000Y-44510000D02*
X36940000Y-26610000D01*
X33290000Y-26610000D02*
G75*
G03*
X35290000Y-26610000I1000000J0D01*
G01*
%TO.C,U4*%
X46880000Y-16450000D02*
X46880000Y-34350000D01*
X46880000Y-34350000D02*
X52180000Y-34350000D01*
X48530000Y-16450000D02*
X46880000Y-16450000D01*
X52180000Y-16450000D02*
X50530000Y-16450000D01*
X52180000Y-34350000D02*
X52180000Y-16450000D01*
X48530000Y-16450000D02*
G75*
G03*
X50530000Y-16450000I1000000J0D01*
G01*
%TO.C,U2*%
X16400000Y-16450000D02*
X16400000Y-36890000D01*
X16400000Y-36890000D02*
X21700000Y-36890000D01*
X18050000Y-16450000D02*
X16400000Y-16450000D01*
X21700000Y-16450000D02*
X20050000Y-16450000D01*
X21700000Y-36890000D02*
X21700000Y-16450000D01*
X18050000Y-16450000D02*
G75*
G03*
X20050000Y-16450000I1000000J0D01*
G01*
%TO.C,U6*%
X77360000Y-39310000D02*
X77360000Y-57210000D01*
X77360000Y-57210000D02*
X82660000Y-57210000D01*
X79010000Y-39310000D02*
X77360000Y-39310000D01*
X82660000Y-39310000D02*
X81010000Y-39310000D01*
X82660000Y-57210000D02*
X82660000Y-39310000D01*
X79010000Y-39310000D02*
G75*
G03*
X81010000Y-39310000I1000000J0D01*
G01*
%TO.C,D2*%
X34690000Y-16170000D02*
X34690000Y-19390000D01*
X34690000Y-19390000D02*
X40500000Y-19390000D01*
X40500000Y-16170000D02*
X34690000Y-16170000D01*
%TO.C,D1*%
X64230000Y-44790000D02*
X64230000Y-41570000D01*
X64230000Y-41570000D02*
X58420000Y-41570000D01*
X58420000Y-44790000D02*
X64230000Y-44790000D01*
%TO.C,RV2*%
X69410000Y-69489000D02*
X69410000Y-67670000D01*
X68874000Y-71951000D02*
X62670000Y-71951000D01*
X68874000Y-65210000D02*
X62670000Y-65210000D01*
X62670000Y-71951000D02*
X62670000Y-69820000D01*
X62670000Y-67340000D02*
X62670000Y-65210000D01*
%TO.C,U5*%
X62120000Y-16445000D02*
X62120000Y-34345000D01*
X62120000Y-34345000D02*
X67420000Y-34345000D01*
X63770000Y-16445000D02*
X62120000Y-16445000D01*
X67420000Y-16445000D02*
X65770000Y-16445000D01*
X67420000Y-34345000D02*
X67420000Y-16445000D01*
X63770000Y-16445000D02*
G75*
G03*
X65770000Y-16445000I1000000J0D01*
G01*
%TD*%
M02*
